<svg width="576" height="110" viewBox="0 0 576 110" fill="none" xmlns="http://www.w3.org/2000/svg">
<path d="M36.8678 7.76211C47.1565 -2.52715 63.8378 -2.52714 74.1265 7.76212L102.733 36.3697C113.021 46.6589 113.021 63.3411 102.733 73.6304L74.1265 102.238C63.8378 112.527 47.1565 112.527 36.8677 102.238L8.26171 73.6304C-2.02702 63.3411 -2.02701 46.6589 8.26172 36.3696L36.8678 7.76211Z" fill="#ED3266"/>
<path fill-rule="evenodd" clip-rule="evenodd" d="M76.8185 46.4944C78.2196 46.4944 79.397 47.5411 79.5304 48.936C79.7743 51.4851 80.1048 55.6066 80.1046 59.2135C80.1046 62.9628 79.7588 66.4815 79.5137 68.5042C79.3829 69.5844 78.6001 70.4577 77.5504 70.744L66.316 73.8081C65.0173 74.1623 63.6501 73.5312 62.9557 72.378C61.4767 69.9218 58.6767 66.1261 55.4972 66.126V66.1261C52.3177 66.1261 49.5177 69.9218 48.0387 72.378C47.3443 73.5312 45.977 74.1623 44.6783 73.8081L33.444 70.744C32.3943 70.4577 31.6115 69.5844 31.4806 68.5042C31.2356 66.4815 30.8898 62.9628 30.8898 59.2135C30.8895 55.6066 31.2201 51.4851 31.464 48.936C31.5974 47.5411 32.7747 46.4944 34.1759 46.4944H55.4972V46.4944H76.8185Z" fill="white"/>
<path fill-rule="evenodd" clip-rule="evenodd" d="M29.3396 52.3362C29.4248 51.3784 28.3752 50.8121 27.7489 51.5417C26.1035 53.4587 25.1093 55.9511 25.1093 58.6756C25.1093 61.2848 26.0211 63.6809 27.5434 65.5628C28.158 66.3226 29.2329 65.7552 29.1554 64.781C29.0344 63.2596 28.9548 61.6086 28.9548 59.898C28.9546 57.4595 29.1216 54.7863 29.3396 52.3362Z" fill="white"/>
<path fill-rule="evenodd" clip-rule="evenodd" d="M81.6547 52.3362C81.5695 51.3784 82.6191 50.8121 83.2453 51.5417C84.8908 53.4587 85.885 55.9511 85.885 58.6756C85.885 61.2848 84.9732 63.6809 83.4509 65.5628C82.8362 66.3226 81.7614 65.7552 81.8389 64.781C81.9599 63.2596 82.0395 61.6086 82.0395 59.898C82.0396 57.4595 81.8726 54.7863 81.6547 52.3362Z" fill="white"/>
<path d="M51.0731 33.2222C51.0731 32.306 51.8158 31.5632 52.732 31.5632H58.2618C59.178 31.5632 59.9207 32.306 59.9207 33.2222V44.8353H51.0731V33.2222Z" fill="white"/>
<path d="M73.7451 54.2365C73.7451 55.7635 72.5072 57.0015 70.9802 57.0015C69.4532 57.0015 68.2153 55.7635 68.2153 54.2365C68.2153 52.7094 69.4532 51.4714 70.9802 51.4714C72.5072 51.4714 73.7451 52.7094 73.7451 54.2365Z" fill="#ED3266"/>
<path d="M68.2154 62.5316C68.2154 64.0587 66.9775 65.2966 65.4505 65.2966C63.9235 65.2966 62.6857 64.0587 62.6857 62.5316C62.6857 61.0045 63.9235 59.7666 65.4505 59.7666C66.9775 59.7666 68.2154 61.0045 68.2154 62.5316Z" fill="#ED3266"/>
<path d="M40.3482 53.2998C40.3482 52.5722 40.938 51.9824 41.6655 51.9824H42.9828C43.7103 51.9824 44.3001 52.5722 44.3001 53.2998V63.18C44.3001 63.9076 43.7103 64.4974 42.9828 64.4974H41.6655C40.938 64.4974 40.3482 63.9076 40.3482 63.18V53.2998Z" fill="#ED3266"/>
<path d="M47.2641 56.2639C47.9916 56.2639 48.5814 56.8537 48.5814 57.5813L48.5814 58.8986C48.5814 59.6262 47.9916 60.216 47.2641 60.216L37.3843 60.216C36.6568 60.216 36.067 59.6262 36.067 58.8986L36.067 57.5813C36.067 56.8537 36.6568 56.2639 37.3843 56.2639L47.2641 56.2639Z" fill="#ED3266"/>
<path d="M167.467 35.2451H179.323V76.727H167.467V35.2451Z" fill="black"/>
<path fill-rule="evenodd" clip-rule="evenodd" d="M155.431 77.3857C167.792 77.3857 176.668 66.7825 176.668 55.9785C176.668 45.7735 167.851 34.5713 155.431 34.5713C143.553 34.5713 134.535 44.1556 134.535 55.9785C134.535 67.8013 143.553 77.3857 155.431 77.3857ZM156.732 66.565C162.822 66.565 167.467 62.0277 167.467 55.9784C167.467 49.9291 162.822 45.3918 156.732 45.3918C150.642 45.3918 145.926 50.1316 145.926 55.9784C145.926 61.8252 150.642 66.565 156.732 66.565Z" fill="black"/>
<path fill-rule="evenodd" clip-rule="evenodd" d="M226.948 46.8095L216.092 51.853C214.707 48.7333 211.786 46.2224 207.837 46.2224C202.223 46.2224 197.875 50.5921 197.875 55.9824C197.875 61.3727 202.223 65.7423 207.837 65.7423C211.877 65.7423 214.839 63.4807 216.184 60.2045L227.018 65.3134C223.69 72.4613 216.548 77.3896 207.645 77.3896C195.658 77.3896 186.239 67.8052 186.239 55.9824C186.239 44.1595 196.086 34.5752 207.645 34.5752C215.995 34.5752 223.451 39.5762 226.948 46.8095Z" fill="black"/>
<path d="M233.661 35.2368H245.517V76.7335H233.661V35.2368Z" fill="black"/>
<path d="M260.007 51.3745L271.863 50.3865V76.7338H260.007V51.3745Z" fill="black"/>
<path d="M286.353 51.3745L298.209 50.3865V76.7338H286.353V51.3745Z" fill="black"/>
<path d="M256.142 34.5752C266.634 34.5752 271.863 42.6138 271.863 51.0423L260.007 53.2466C260.007 49.6018 256.714 46.3208 252.762 46.3208C248.81 46.3208 245.517 49.7273 245.517 53.6794L242.377 49.2476C241.141 46.3208 245.62 34.5752 256.142 34.5752Z" fill="black"/>
<path d="M282.488 34.5752C292.98 34.5752 298.209 42.6138 298.209 51.0423L286.353 53.2466C286.353 49.6018 283.06 46.3208 279.108 46.3208C275.156 46.3208 271.863 49.7273 271.863 53.6794L268.723 49.2476C267.487 46.3208 271.966 34.5752 282.488 34.5752Z" fill="black"/>
<path d="M282.489 34.5752C292.98 34.5752 298.209 42.6138 298.209 51.0423L286.353 52.0303C286.353 48.3855 283.06 45.4435 279.108 45.4435C275.156 45.4435 271.863 48.0782 271.863 52.0303L265.935 45.7728C268.57 39.8447 271.966 34.5752 282.489 34.5752Z" fill="black"/>
<path d="M324.195 68.9761C324.195 73.2421 320.737 76.7004 316.471 76.7004C312.206 76.7004 308.747 73.2421 308.747 68.9761C308.747 64.71 312.206 61.2517 316.471 61.2517C320.737 61.2517 324.195 64.71 324.195 68.9761Z" fill="black"/>
<mask id="mask0_443_1741" style="mask-type:alpha" maskUnits="userSpaceOnUse" x="334" y="14" width="242" height="64">
<path fill-rule="evenodd" clip-rule="evenodd" d="M350.03 34.7827C360.53 33.5327 366.671 39.4307 368.506 43.915L358.527 47.9976C357.86 46.8394 355.562 44.7118 352.637 44.7118C348.994 44.7118 348.271 46.0927 348.019 46.8212C347.684 47.7943 348.201 48.6938 349.398 49.1362C350.54 49.5578 351.762 49.8603 353.045 50.1781C353.723 50.3459 354.418 50.518 355.128 50.7142L355.128 50.7138L355.212 50.7368C357.893 51.4718 360.909 52.4032 364.445 55.0717C366.968 56.975 368.494 59.6235 368.81 62.5809C369.112 65.402 368.271 68.029 366.997 70.1169C364.504 74.2026 359.642 77.401 353.987 77.401L353.927 77.401C352.604 77.4013 349.07 77.402 345.327 76.351C341.531 75.2849 336.67 72.884 334.105 67.465L344.141 62.7148C344.172 62.7941 344.729 64.1769 346.755 65.679C348.842 67.2261 351.363 67.4588 353.991 66.8933C356.938 66.2589 357.403 64.3541 356.529 63.4917C355.505 62.4802 353.454 61.8987 351.42 61.3218C351.177 61.2526 350.933 61.1836 350.692 61.1139L350.692 61.1114C350.622 61.092 350.551 61.0724 350.48 61.0524C350.436 61.0395 350.392 61.0266 350.348 61.0137L350.342 61.0136C348.243 60.4202 345.645 59.5708 342.517 57.8948C339.965 56.5276 337.827 54.5281 336.641 51.9046C335.428 49.2196 335.408 46.2862 336.462 43.6376C338.517 38.4743 343.968 35.5044 350.03 34.7827Z" fill="black"/>
<path d="M491.169 16.3982H503.025V76.8329H491.169V16.3982Z" fill="black"/>
<path fill-rule="evenodd" clip-rule="evenodd" d="M479.157 77.3893C491.518 77.3893 500.394 66.7861 500.394 55.9822C500.394 45.7772 491.577 34.575 479.157 34.575C467.279 34.575 458.26 44.1593 458.26 55.9821C458.26 67.805 467.279 77.3893 479.157 77.3893ZM480.458 66.5686C486.548 66.5686 491.193 62.0313 491.193 55.982C491.193 49.9327 486.548 45.3955 480.458 45.3955C474.368 45.3955 469.651 50.1352 469.651 55.982C469.651 61.8288 474.368 66.5686 480.458 66.5686Z" fill="black"/>
<path fill-rule="evenodd" clip-rule="evenodd" d="M554.094 77.3893C566.509 77.3893 575.5 67.805 575.5 55.9821C575.5 44.1593 565.653 34.575 554.094 34.575C542.535 34.575 532.688 44.1593 532.688 55.9821C532.688 67.805 542.107 77.3893 554.094 77.3893ZM554.094 66.6682C560.292 66.6682 564.78 61.8838 564.78 55.9821C564.78 50.0803 559.865 45.2959 554.094 45.2959C548.324 45.2959 543.409 50.0803 543.409 55.9821C543.409 61.8838 548.111 66.6682 554.094 66.6682Z" fill="black"/>
<path d="M381.528 64.3442L393.384 62.6713V23.3023L381.528 28.1468L381.528 64.3442Z" fill="black"/>
<path d="M373.624 35.2615H403.263V45.8004H373.624V35.2615Z" fill="black"/>
<path d="M395.36 76.7307C382.988 76.7307 381.528 69.0896 381.528 64.2271C384.912 62.1911 391.013 61.5953 393.384 61.5953C393.384 63.9108 395.03 66.2263 398.324 66.2263H403.263L403.263 76.4992C400.3 76.7307 399.136 76.7307 395.36 76.7307Z" fill="black"/>
<path d="M513.258 35.2271H525.113V76.8309H513.258V35.2271Z" fill="black"/>
<path d="M526.431 22.0639C526.431 26.0655 523.187 29.3094 519.186 29.3094C515.184 29.3094 511.94 26.0655 511.94 22.0639C511.94 18.0623 515.184 14.8184 519.186 14.8184C523.187 14.8184 526.431 18.0623 526.431 22.0639Z" fill="black"/>
<path d="M452.047 76.7351H440.051V35.926H452.047V76.7351Z" fill="black"/>
<path d="M422.834 56.4198L410.838 58.76V35.9258H422.834V56.4198Z" fill="black"/>
<path d="M429.322 77.377C417.923 77.377 410.838 69.007 410.838 58.7451L422.831 55.9925C422.831 62.7404 425.999 65.7567 431.428 65.7567C436.563 65.7567 440.056 62.8679 440.056 57.2702L443.881 61.1404C443.881 64.316 441.114 77.377 429.322 77.377Z" fill="black"/>
</mask>
<g mask="url(#mask0_443_1741)">
<path d="M330.153 -3.03467H603.163V105.977H330.153V-3.03467Z" fill="url(#paint0_linear_443_1741)"/>
</g>
<defs>
<linearGradient id="paint0_linear_443_1741" x1="337.546" y1="100.215" x2="561.249" y2="-8.71068" gradientUnits="userSpaceOnUse">
<stop stop-color="#FF3939"/>
<stop offset="1" stop-color="#FF70D6"/>
</linearGradient>
</defs>
</svg>
