<?xml version="1.0" standalone="no"?>
<!DOCTYPE svg PUBLIC "-//W3C//DTD SVG 20010904//EN"
 "http://www.w3.org/TR/2001/REC-SVG-20010904/DTD/svg10.dtd">
<svg version="1.0" xmlns="http://www.w3.org/2000/svg"
 width="334.000000pt" height="334.000000pt" viewBox="0 0 334.000000 334.000000"
 preserveAspectRatio="xMidYMid meet">
<metadata>
Created by potrace 1.14, written by Peter Selinger 2001-2017
</metadata>
<g transform="translate(0.000000,334.000000) scale(0.100000,-0.100000)"
fill="#000000" stroke="none">
<path d="M1595 3334 c-150 -22 -273 -68 -381 -142 -71 -49 -1028 -1007 -1074
-1075 -87 -131 -132 -279 -134 -437 -1 -173 46 -326 142 -466 61 -90 1033
-1051 1104 -1093 134 -78 261 -114 408 -115 173 -1 326 46 466 142 90 61 1051
1033 1093 1104 78 134 114 261 115 408 1 173 -46 326 -142 466 -49 71 -1007
1028 -1075 1074 -68 45 -180 95 -257 113 -68 17 -214 28 -265 21z m199 -976
c13 -18 16 -56 16 -200 l0 -178 -140 0 -140 0 0 178 c0 231 -6 222 140 222
101 0 110 -2 124 -22z m581 -452 c31 -31 39 -107 40 -356 0 -232 -8 -304 -38
-334 -30 -30 -395 -130 -429 -117 -12 4 -50 44 -83 87 -150 197 -251 192 -404
-19 -23 -32 -54 -62 -68 -68 -35 -13 -398 86 -430 117 -30 30 -38 102 -38 334
1 249 9 325 40 356 l24 24 681 0 681 0 24 -24z m-1508 -128 c5 -8 7 -102 3
-223 l-5 -210 -25 0 c-20 0 -30 11 -55 59 -27 54 -30 68 -30 155 0 101 18 158
65 209 24 25 34 27 47 10z m1662 -25 c47 -57 64 -121 59 -218 -4 -68 -9 -91
-35 -136 -23 -42 -36 -54 -54 -54 l-24 0 -5 210 c-7 250 -1 270 59 198z"/>
<path d="M2125 1772 c-35 -7 -65 -43 -65 -78 0 -43 27 -73 72 -80 30 -5 41 -2
62 19 57 57 8 155 -69 139z"/>
<path d="M1222 1748 c-7 -7 -12 -36 -12 -65 l0 -53 -53 0 c-61 0 -77 -11 -77
-56 0 -46 22 -64 81 -64 l49 0 0 -49 c0 -57 18 -81 60 -81 42 0 60 24 60 81
l0 49 49 0 c59 0 81 18 81 64 0 45 -16 56 -77 56 l-53 0 0 53 c0 62 -11 77
-60 77 -20 0 -41 -5 -48 -12z"/>
<path d="M1911 1494 c-28 -36 -27 -79 4 -109 50 -51 135 -17 135 54 0 76 -94
112 -139 55z"/>
</g>
</svg>
