<svg width="29" height="26" viewBox="0 0 29 26" fill="none" xmlns="http://www.w3.org/2000/svg">
<path fill-rule="evenodd" clip-rule="evenodd" d="M4.89826 17.5716C2.6203 15.0119 1.33353 12.0597 1.05687 9.3888C0.780024 6.7161 1.51325 4.40965 3.1551 2.94848C4.79694 1.48731 7.17289 1.02671 9.7954 1.61188C12.4161 2.19664 15.1991 3.81734 17.4771 6.37696C17.6945 6.62134 17.9125 6.88241 18.1281 7.15694C18.2237 6.7539 18.3468 6.37625 18.496 6.02568C18.4054 5.91856 18.3147 5.81399 18.2241 5.71215C13.4206 0.314791 6.37639 -1.257 2.49029 2.20147C-1.39581 5.65994 -0.652177 12.839 4.15125 18.2364C5.69505 19.9711 7.94336 22.024 10.0939 23.1564C10.1841 22.8541 10.2918 22.5321 10.4149 22.1938C10.3157 22.1396 10.2153 22.0829 10.114 22.0236C8.23807 20.9267 6.28667 19.1316 4.89826 17.5716ZM18.5754 16.902C18.3665 17.2031 18.1542 17.5061 17.9394 17.8094C19.1276 18.0352 20.3462 18.1297 21.2817 17.2972C22.6387 16.0894 22.606 14.0313 21.8811 11.8707C21.6704 12.2129 21.4322 12.593 21.1713 13.0024C21.5827 14.6716 21.3702 15.8798 20.6169 16.5501C20.1372 16.977 19.4993 17.0365 18.5754 16.902ZM15.4539 21.1552C14.598 22.2436 13.7606 23.2321 13 24.0143C13.7066 24.0075 14.3455 23.7872 14.874 23.2875C15.6617 22.5427 15.6984 21.8269 15.4539 21.1552Z" fill="black"/>
<path d="M12.0898 15.853C11.5042 16.3742 10.4126 16.3036 9.65595 15.4534C8.89929 14.6032 8.95589 13.5108 9.54152 12.9896C10.1272 12.4684 11.2187 12.539 11.9754 13.3892C12.7321 14.2394 12.6755 15.3318 12.0898 15.853Z" stroke="black"/>
<ellipse cx="5.05938" cy="13.6065" rx="1.30825" ry="1.30825" fill="black"/>
<ellipse cx="3.75114" cy="8.37347" rx="1.30825" ry="1.30825" fill="black"/>
<ellipse cx="6.36764" cy="3.92542" rx="1.30825" ry="1.30825" fill="black"/>
<ellipse cx="11.8623" cy="4.71036" rx="1.30825" ry="1.30825" fill="black"/>
<ellipse cx="16.3103" cy="8.37347" rx="1.30825" ry="1.30825" fill="black"/>
<path d="M20.8948 4.00028C22.211 3.29009 24.0695 3.24966 26.3525 4.21953C25.6047 4.83092 25.1578 5.46449 24.8892 6.10849C24.5899 6.82607 24.5263 7.53336 24.4731 8.12406C24.4666 8.19597 24.4603 8.26615 24.4538 8.3344C24.3907 8.98978 24.3062 9.47281 23.9898 9.88765C23.6929 10.2769 23.1359 10.6738 21.992 11.0064L18.4101 8.65936C18.5669 6.33921 19.4992 4.75328 20.8948 4.00028Z" stroke="black"/>
<path fill-rule="evenodd" clip-rule="evenodd" d="M22.1631 11.4084L18.0387 8.58957C14.8769 12.4762 8.14177 24.7381 10.1402 25.7324C12.1555 26.735 19.7397 15.4249 22.1631 11.4084ZM18.8156 9.21882C19.1654 9.4739 19.4396 9.67396 19.652 9.82903L19.6687 9.84481C19.6759 9.85123 19.6882 9.86195 19.6934 9.86634C19.7036 9.87496 19.7119 9.88162 19.7157 9.88463C19.7397 9.90377 19.7831 9.9357 19.8194 9.96243L19.8195 9.96245L19.8243 9.96602C19.981 10.0813 20.3873 10.3782 21.2409 11.0008C20.1071 12.8697 17.9047 16.2447 15.6722 19.2267C14.3761 20.9579 13.0966 22.5202 12.0277 23.5746C11.5301 24.0654 11.1142 24.4098 10.7915 24.6125C10.8294 24.2654 10.9388 23.7874 11.1326 23.1824C11.5915 21.75 12.4373 19.8651 13.4558 17.8895C14.4701 15.9224 15.6362 13.9027 16.7164 12.2098C17.5172 10.9548 18.2458 9.91923 18.8156 9.21882ZM10.4138 24.7947C10.4138 24.7946 10.4154 24.7943 10.4185 24.7941C10.4153 24.7947 10.4137 24.7948 10.4138 24.7947ZM10.7863 25.028C10.7918 25.0414 10.7933 25.0497 10.7927 25.0505C10.7922 25.0513 10.7894 25.0446 10.7863 25.028Z" fill="black"/>
<rect x="20.5189" y="13.4574" width="4.26228" height="0.978801" transform="rotate(-144.891 20.5189 13.4574)" fill="black"/>
</svg>
