<svg width="1408" height="445" viewBox="0 0 1408 445" fill="none" xmlns="http://www.w3.org/2000/svg">
<path d="M286.167 228.519L289.282 215.359H291.022L291.42 217.551L288.101 231H286.231L286.167 228.519ZM284.566 215.359L287.145 228.519L286.93 231H284.846L281.376 215.359H284.566ZM294.159 228.465L296.705 215.359H299.896L296.437 231H294.353L294.159 228.465ZM292 215.359L295.137 228.572L295.051 231H293.182L289.841 217.54L290.271 215.359H292ZM312.023 228.583V231H301.324V228.938L306.384 223.513C306.892 222.947 307.293 222.449 307.587 222.02C307.881 221.583 308.092 221.192 308.221 220.849C308.357 220.498 308.425 220.165 308.425 219.85C308.425 219.377 308.346 218.972 308.188 218.636C308.031 218.292 307.798 218.027 307.49 217.841C307.189 217.655 306.817 217.562 306.373 217.562C305.9 217.562 305.492 217.676 305.148 217.905C304.812 218.134 304.554 218.453 304.375 218.861C304.203 219.27 304.117 219.731 304.117 220.247H301.013C301.013 219.316 301.235 218.464 301.679 217.69C302.123 216.91 302.749 216.29 303.559 215.832C304.368 215.367 305.327 215.134 306.438 215.134C307.533 215.134 308.457 215.313 309.209 215.671C309.968 216.022 310.541 216.53 310.928 217.196C311.322 217.855 311.519 218.643 311.519 219.56C311.519 220.075 311.436 220.58 311.271 221.074C311.107 221.561 310.87 222.048 310.562 222.535C310.262 223.015 309.896 223.502 309.467 223.996C309.037 224.49 308.561 225.002 308.038 225.532L305.32 228.583H312.023Z" fill="black"/>
<circle cx="297" cy="223" r="42" stroke="#FF4466" stroke-width="16"/>
<path d="M450.167 228.519L453.282 215.359H455.022L455.42 217.551L452.101 231H450.231L450.167 228.519ZM448.566 215.359L451.145 228.519L450.93 231H448.846L445.376 215.359H448.566ZM458.159 228.465L460.705 215.359H463.896L460.437 231H458.353L458.159 228.465ZM456 215.359L459.137 228.572L459.051 231H457.182L453.841 217.54L454.271 215.359H456ZM468.493 221.837H470.147C470.677 221.837 471.114 221.747 471.458 221.568C471.802 221.382 472.056 221.124 472.221 220.795C472.393 220.458 472.479 220.068 472.479 219.624C472.479 219.223 472.4 218.868 472.242 218.561C472.092 218.245 471.859 218.002 471.544 217.83C471.229 217.651 470.831 217.562 470.352 217.562C469.972 217.562 469.621 217.637 469.299 217.787C468.977 217.938 468.719 218.149 468.525 218.421C468.332 218.693 468.235 219.022 468.235 219.409H465.131C465.131 218.55 465.36 217.801 465.818 217.164C466.284 216.527 466.907 216.029 467.688 215.671C468.468 215.313 469.327 215.134 470.266 215.134C471.326 215.134 472.253 215.306 473.048 215.649C473.843 215.986 474.462 216.484 474.906 217.143C475.35 217.801 475.572 218.618 475.572 219.592C475.572 220.086 475.458 220.566 475.229 221.031C474.999 221.49 474.67 221.905 474.24 222.277C473.818 222.643 473.302 222.936 472.693 223.158C472.085 223.373 471.401 223.48 470.642 223.48H468.493V221.837ZM468.493 224.189V222.589H470.642C471.494 222.589 472.242 222.686 472.887 222.879C473.531 223.072 474.072 223.352 474.509 223.717C474.946 224.075 475.275 224.501 475.497 224.995C475.719 225.482 475.83 226.023 475.83 226.617C475.83 227.348 475.69 227.999 475.411 228.572C475.132 229.138 474.738 229.618 474.229 230.012C473.728 230.406 473.141 230.706 472.468 230.914C471.795 231.115 471.061 231.215 470.266 231.215C469.607 231.215 468.959 231.125 468.321 230.946C467.691 230.76 467.118 230.484 466.603 230.119C466.094 229.747 465.686 229.281 465.378 228.723C465.077 228.157 464.927 227.487 464.927 226.714H468.031C468.031 227.115 468.132 227.473 468.332 227.788C468.533 228.103 468.808 228.35 469.159 228.529C469.517 228.708 469.915 228.798 470.352 228.798C470.846 228.798 471.268 228.708 471.619 228.529C471.977 228.343 472.249 228.085 472.436 227.756C472.629 227.419 472.726 227.029 472.726 226.585C472.726 226.012 472.622 225.554 472.414 225.21C472.206 224.859 471.909 224.601 471.522 224.437C471.136 224.272 470.677 224.189 470.147 224.189H468.493Z" fill="black"/>
<circle cx="461" cy="223" r="42" stroke="#FF4466" stroke-width="16"/>
<path d="M614.167 228.519L617.282 215.359H619.022L619.42 217.551L616.101 231H614.231L614.167 228.519ZM612.566 215.359L615.145 228.519L614.93 231H612.846L609.376 215.359H612.566ZM622.159 228.465L624.705 215.359H627.896L624.437 231H622.353L622.159 228.465ZM620 215.359L623.137 228.572L623.051 231H621.182L617.841 217.54L618.271 215.359H620ZM640.281 225.156V227.584H629.013L628.862 225.704L635.383 215.359H637.843L635.179 219.817L631.935 225.156H640.281ZM638.509 215.359V231H635.415V215.359H638.509Z" fill="black"/>
<circle cx="625" cy="223" r="42" stroke="#FF4466" stroke-width="16"/>
<path d="M778.167 228.519L781.282 215.359H783.022L783.42 217.551L780.101 231H778.231L778.167 228.519ZM776.566 215.359L779.145 228.519L778.93 231H776.846L773.376 215.359H776.566ZM786.159 228.465L788.705 215.359H791.896L788.437 231H786.353L786.159 228.465ZM784 215.359L787.137 228.572L787.051 231H785.182L781.841 217.54L782.271 215.359H784ZM796.235 223.878L793.765 223.287L794.656 215.359H803.443V217.862H797.202L796.815 221.332C797.023 221.21 797.338 221.081 797.761 220.945C798.183 220.802 798.656 220.73 799.179 220.73C799.938 220.73 800.611 220.849 801.198 221.085C801.785 221.321 802.283 221.665 802.691 222.116C803.107 222.567 803.422 223.119 803.637 223.771C803.852 224.422 803.959 225.16 803.959 225.983C803.959 226.678 803.852 227.34 803.637 227.971C803.422 228.594 803.096 229.152 802.659 229.646C802.222 230.133 801.674 230.517 801.016 230.796C800.357 231.075 799.576 231.215 798.674 231.215C798.001 231.215 797.349 231.115 796.719 230.914C796.096 230.714 795.534 230.416 795.032 230.022C794.538 229.629 794.141 229.152 793.84 228.594C793.546 228.028 793.392 227.383 793.378 226.66H796.45C796.493 227.104 796.608 227.487 796.794 227.81C796.987 228.125 797.242 228.368 797.557 228.54C797.872 228.712 798.241 228.798 798.663 228.798C799.057 228.798 799.394 228.723 799.673 228.572C799.952 228.422 800.178 228.214 800.35 227.949C800.521 227.677 800.647 227.362 800.726 227.004C800.812 226.639 800.854 226.245 800.854 225.822C800.854 225.4 800.804 225.017 800.704 224.673C800.604 224.329 800.45 224.032 800.242 223.781C800.035 223.531 799.77 223.337 799.447 223.201C799.132 223.065 798.763 222.997 798.341 222.997C797.768 222.997 797.324 223.087 797.009 223.266C796.701 223.445 796.443 223.649 796.235 223.878Z" fill="black"/>
<circle cx="789" cy="223" r="42" stroke="#FF4466" stroke-width="16"/>
<path d="M942.167 228.519L945.282 215.359H947.022L947.42 217.551L944.101 231H942.231L942.167 228.519ZM940.566 215.359L943.145 228.519L942.93 231H940.846L937.376 215.359H940.566ZM950.159 228.465L952.705 215.359H955.896L952.437 231H950.353L950.159 228.465ZM948 215.359L951.137 228.572L951.051 231H949.182L945.841 217.54L946.271 215.359H948ZM965.306 215.198H965.757V217.669H965.574C964.758 217.669 964.031 217.791 963.394 218.034C962.756 218.278 962.215 218.625 961.771 219.076C961.335 219.52 960.998 220.057 960.762 220.688C960.533 221.318 960.418 222.023 960.418 222.804V225.403C960.418 225.962 960.472 226.456 960.579 226.886C960.694 227.308 960.855 227.663 961.062 227.949C961.277 228.229 961.528 228.44 961.814 228.583C962.101 228.719 962.423 228.787 962.781 228.787C963.118 228.787 963.422 228.715 963.694 228.572C963.974 228.429 964.21 228.229 964.403 227.971C964.604 227.706 964.754 227.398 964.854 227.047C964.962 226.689 965.016 226.299 965.016 225.876C965.016 225.453 964.962 225.063 964.854 224.705C964.754 224.347 964.604 224.039 964.403 223.781C964.203 223.516 963.959 223.312 963.673 223.169C963.386 223.026 963.064 222.954 962.706 222.954C962.219 222.954 961.789 223.069 961.417 223.298C961.052 223.52 960.765 223.806 960.558 224.157C960.35 224.508 960.239 224.877 960.225 225.264L959.29 224.662C959.312 224.111 959.426 223.588 959.634 223.094C959.849 222.6 960.142 222.163 960.515 221.783C960.894 221.396 961.349 221.096 961.879 220.881C962.409 220.659 963.007 220.548 963.673 220.548C964.403 220.548 965.044 220.688 965.596 220.967C966.154 221.246 966.62 221.629 966.992 222.116C967.365 222.603 967.644 223.165 967.83 223.803C968.016 224.44 968.109 225.12 968.109 225.844C968.109 226.603 967.984 227.308 967.733 227.96C967.49 228.612 967.135 229.181 966.67 229.668C966.212 230.155 965.66 230.535 965.016 230.807C964.371 231.079 963.648 231.215 962.846 231.215C962.015 231.215 961.259 231.064 960.579 230.764C959.906 230.456 959.326 230.026 958.839 229.475C958.352 228.923 957.976 228.268 957.711 227.509C957.453 226.75 957.324 225.919 957.324 225.017V223.813C957.324 222.553 957.507 221.4 957.872 220.354C958.244 219.302 958.778 218.392 959.473 217.626C960.167 216.853 961.005 216.255 961.986 215.832C962.967 215.41 964.074 215.198 965.306 215.198Z" fill="black"/>
<circle cx="953" cy="223" r="42" stroke="#FF4466" stroke-width="16"/>
<path d="M122.167 228.519L125.282 215.359H127.022L127.42 217.551L124.101 231H122.231L122.167 228.519ZM120.566 215.359L123.145 228.519L122.93 231H120.846L117.376 215.359H120.566ZM130.159 228.465L132.705 215.359H135.896L132.437 231H130.353L130.159 228.465ZM128 215.359L131.137 228.572L131.051 231H129.182L125.841 217.54L126.271 215.359H128ZM144.865 215.327V231H141.771V218.894L138.055 220.075V217.637L144.532 215.327H144.865Z" fill="black"/>
<circle cx="133" cy="223" r="42" stroke="#FF4466" stroke-width="16"/>
<rect x="173" y="209" width="80" height="32" fill="#FF4466"/>
<rect x="339" y="209" width="80" height="32" fill="#FF4466"/>
<rect x="503" y="209" width="80" height="32" fill="#FF4466"/>
<rect x="664" y="209" width="80" height="32" fill="#FF4466"/>
<rect x="830" y="209" width="80" height="32" fill="#FF4466"/>
<path d="M996 209H1068C1072.42 209 1076 212.582 1076 217V233C1076 237.418 1072.42 241 1068 241H996V209Z" fill="#FF4466"/>
<line x1="132" y1="134" x2="132" y2="173" stroke="#FF4466" stroke-width="8" stroke-dasharray="16 8"/>
<rect x="45" y="15" width="176" height="112" rx="24" stroke="#FF4466" stroke-width="16"/>
<path d="M90.5312 65.6328L86.7656 76H85.2266L89.5625 64.625H90.5547L90.5312 65.6328ZM93.6875 76L89.9141 65.6328L89.8906 64.625H90.8828L95.2344 76H93.6875ZM93.4922 71.7891V73.0234H87.1016V71.7891H93.4922ZM102.367 74.3594V64H103.82V76H102.492L102.367 74.3594ZM96.6797 71.8672V71.7031C96.6797 71.0573 96.7578 70.4714 96.9141 69.9453C97.0755 69.4141 97.3021 68.9583 97.5938 68.5781C97.8906 68.1979 98.2422 67.9062 98.6484 67.7031C99.0599 67.4948 99.5182 67.3906 100.023 67.3906C100.555 67.3906 101.018 67.4844 101.414 67.6719C101.815 67.8542 102.154 68.1224 102.43 68.4766C102.711 68.8255 102.932 69.2474 103.094 69.7422C103.255 70.237 103.367 70.7969 103.43 71.4219V72.1406C103.372 72.7604 103.26 73.3177 103.094 73.8125C102.932 74.3073 102.711 74.7292 102.43 75.0781C102.154 75.4271 101.815 75.6953 101.414 75.8828C101.013 76.0651 100.544 76.1562 100.008 76.1562C99.513 76.1562 99.0599 76.0495 98.6484 75.8359C98.2422 75.6224 97.8906 75.3229 97.5938 74.9375C97.3021 74.5521 97.0755 74.099 96.9141 73.5781C96.7578 73.0521 96.6797 72.4818 96.6797 71.8672ZM98.1328 71.7031V71.8672C98.1328 72.2891 98.1745 72.6849 98.2578 73.0547C98.3464 73.4245 98.4818 73.75 98.6641 74.0312C98.8464 74.3125 99.0781 74.5339 99.3594 74.6953C99.6406 74.8516 99.9766 74.9297 100.367 74.9297C100.846 74.9297 101.24 74.8281 101.547 74.625C101.859 74.4219 102.109 74.1536 102.297 73.8203C102.484 73.487 102.63 73.125 102.734 72.7344V70.8516C102.672 70.5651 102.581 70.2891 102.461 70.0234C102.346 69.7526 102.195 69.513 102.008 69.3047C101.826 69.0911 101.599 68.9219 101.328 68.7969C101.062 68.6719 100.747 68.6094 100.383 68.6094C99.987 68.6094 99.6458 68.6927 99.3594 68.8594C99.0781 69.0208 98.8464 69.2448 98.6641 69.5312C98.4818 69.8125 98.3464 70.1406 98.2578 70.5156C98.1745 70.8854 98.1328 71.2812 98.1328 71.7031ZM111.898 74.3594V64H113.352V76H112.023L111.898 74.3594ZM106.211 71.8672V71.7031C106.211 71.0573 106.289 70.4714 106.445 69.9453C106.607 69.4141 106.833 68.9583 107.125 68.5781C107.422 68.1979 107.773 67.9062 108.18 67.7031C108.591 67.4948 109.049 67.3906 109.555 67.3906C110.086 67.3906 110.549 67.4844 110.945 67.6719C111.346 67.8542 111.685 68.1224 111.961 68.4766C112.242 68.8255 112.464 69.2474 112.625 69.7422C112.786 70.237 112.898 70.7969 112.961 71.4219V72.1406C112.904 72.7604 112.792 73.3177 112.625 73.8125C112.464 74.3073 112.242 74.7292 111.961 75.0781C111.685 75.4271 111.346 75.6953 110.945 75.8828C110.544 76.0651 110.076 76.1562 109.539 76.1562C109.044 76.1562 108.591 76.0495 108.18 75.8359C107.773 75.6224 107.422 75.3229 107.125 74.9375C106.833 74.5521 106.607 74.099 106.445 73.5781C106.289 73.0521 106.211 72.4818 106.211 71.8672ZM107.664 71.7031V71.8672C107.664 72.2891 107.706 72.6849 107.789 73.0547C107.878 73.4245 108.013 73.75 108.195 74.0312C108.378 74.3125 108.609 74.5339 108.891 74.6953C109.172 74.8516 109.508 74.9297 109.898 74.9297C110.378 74.9297 110.771 74.8281 111.078 74.625C111.391 74.4219 111.641 74.1536 111.828 73.8203C112.016 73.487 112.161 73.125 112.266 72.7344V70.8516C112.203 70.5651 112.112 70.2891 111.992 70.0234C111.878 69.7526 111.727 69.513 111.539 69.3047C111.357 69.0911 111.13 68.9219 110.859 68.7969C110.594 68.6719 110.279 68.6094 109.914 68.6094C109.518 68.6094 109.177 68.6927 108.891 68.8594C108.609 69.0208 108.378 69.2448 108.195 69.5312C108.013 69.8125 107.878 70.1406 107.789 70.5156C107.706 70.8854 107.664 71.2812 107.664 71.7031ZM124.078 76.1562C123.49 76.1562 122.956 76.0573 122.477 75.8594C122.003 75.6562 121.594 75.3724 121.25 75.0078C120.911 74.6432 120.651 74.2109 120.469 73.7109C120.286 73.2109 120.195 72.6641 120.195 72.0703V71.7422C120.195 71.0547 120.297 70.4427 120.5 69.9062C120.703 69.3646 120.979 68.9062 121.328 68.5312C121.677 68.1562 122.073 67.8724 122.516 67.6797C122.958 67.487 123.417 67.3906 123.891 67.3906C124.495 67.3906 125.016 67.4948 125.453 67.7031C125.896 67.9115 126.258 68.2031 126.539 68.5781C126.82 68.9479 127.029 69.3854 127.164 69.8906C127.299 70.3906 127.367 70.9375 127.367 71.5312V72.1797H121.055V71H125.922V70.8906C125.901 70.5156 125.823 70.151 125.688 69.7969C125.557 69.4427 125.349 69.151 125.062 68.9219C124.776 68.6927 124.385 68.5781 123.891 68.5781C123.562 68.5781 123.26 68.6484 122.984 68.7891C122.708 68.9245 122.471 69.1276 122.273 69.3984C122.076 69.6693 121.922 70 121.812 70.3906C121.703 70.7812 121.648 71.2318 121.648 71.7422V72.0703C121.648 72.4714 121.703 72.849 121.812 73.2031C121.927 73.5521 122.091 73.8594 122.305 74.125C122.523 74.3906 122.786 74.599 123.094 74.75C123.406 74.901 123.76 74.9766 124.156 74.9766C124.667 74.9766 125.099 74.8724 125.453 74.6641C125.807 74.4557 126.117 74.1771 126.383 73.8281L127.258 74.5234C127.076 74.7995 126.844 75.0625 126.562 75.3125C126.281 75.5625 125.935 75.7656 125.523 75.9219C125.117 76.0781 124.635 76.1562 124.078 76.1562ZM131 69.3516V76H129.555V67.5469H130.922L131 69.3516ZM130.656 71.4531L130.055 71.4297C130.06 70.8516 130.146 70.3177 130.312 69.8281C130.479 69.3333 130.714 68.9036 131.016 68.5391C131.318 68.1745 131.677 67.8932 132.094 67.6953C132.516 67.4922 132.982 67.3906 133.492 67.3906C133.909 67.3906 134.284 67.4479 134.617 67.5625C134.951 67.6719 135.234 67.849 135.469 68.0938C135.708 68.3385 135.891 68.6562 136.016 69.0469C136.141 69.4323 136.203 69.9036 136.203 70.4609V76H134.75V70.4453C134.75 70.0026 134.685 69.6484 134.555 69.3828C134.424 69.112 134.234 68.9167 133.984 68.7969C133.734 68.6719 133.427 68.6094 133.062 68.6094C132.703 68.6094 132.375 68.6849 132.078 68.8359C131.786 68.987 131.534 69.1953 131.32 69.4609C131.112 69.7266 130.948 70.0312 130.828 70.375C130.714 70.7135 130.656 71.0729 130.656 71.4531ZM142.406 76.1562C141.818 76.1562 141.284 76.0573 140.805 75.8594C140.331 75.6562 139.922 75.3724 139.578 75.0078C139.24 74.6432 138.979 74.2109 138.797 73.7109C138.615 73.2109 138.523 72.6641 138.523 72.0703V71.7422C138.523 71.0547 138.625 70.4427 138.828 69.9062C139.031 69.3646 139.307 68.9062 139.656 68.5312C140.005 68.1562 140.401 67.8724 140.844 67.6797C141.286 67.487 141.745 67.3906 142.219 67.3906C142.823 67.3906 143.344 67.4948 143.781 67.7031C144.224 67.9115 144.586 68.2031 144.867 68.5781C145.148 68.9479 145.357 69.3854 145.492 69.8906C145.628 70.3906 145.695 70.9375 145.695 71.5312V72.1797H139.383V71H144.25V70.8906C144.229 70.5156 144.151 70.151 144.016 69.7969C143.885 69.4427 143.677 69.151 143.391 68.9219C143.104 68.6927 142.714 68.5781 142.219 68.5781C141.891 68.5781 141.589 68.6484 141.312 68.7891C141.036 68.9245 140.799 69.1276 140.602 69.3984C140.404 69.6693 140.25 70 140.141 70.3906C140.031 70.7812 139.977 71.2318 139.977 71.7422V72.0703C139.977 72.4714 140.031 72.849 140.141 73.2031C140.255 73.5521 140.419 73.8594 140.633 74.125C140.852 74.3906 141.115 74.599 141.422 74.75C141.734 74.901 142.089 74.9766 142.484 74.9766C142.995 74.9766 143.427 74.8724 143.781 74.6641C144.135 74.4557 144.445 74.1771 144.711 73.8281L145.586 74.5234C145.404 74.7995 145.172 75.0625 144.891 75.3125C144.609 75.5625 144.263 75.7656 143.852 75.9219C143.445 76.0781 142.964 76.1562 142.406 76.1562ZM149.32 69.2266V76H147.867V67.5469H149.242L149.32 69.2266ZM149.023 71.4531L148.352 71.4297C148.357 70.8516 148.432 70.3177 148.578 69.8281C148.724 69.3333 148.94 68.9036 149.227 68.5391C149.513 68.1745 149.87 67.8932 150.297 67.6953C150.724 67.4922 151.219 67.3906 151.781 67.3906C152.177 67.3906 152.542 67.4479 152.875 67.5625C153.208 67.6719 153.497 67.8464 153.742 68.0859C153.987 68.3255 154.177 68.6328 154.312 69.0078C154.448 69.3828 154.516 69.8359 154.516 70.3672V76H153.07V70.4375C153.07 69.9948 152.995 69.6406 152.844 69.375C152.698 69.1094 152.49 68.9167 152.219 68.7969C151.948 68.6719 151.63 68.6094 151.266 68.6094C150.839 68.6094 150.482 68.6849 150.195 68.8359C149.909 68.987 149.68 69.1953 149.508 69.4609C149.336 69.7266 149.211 70.0312 149.133 70.375C149.06 70.7135 149.023 71.0729 149.023 71.4531ZM154.5 70.6562L153.531 70.9531C153.536 70.4896 153.612 70.0443 153.758 69.6172C153.909 69.1901 154.125 68.8099 154.406 68.4766C154.693 68.1432 155.044 67.8802 155.461 67.6875C155.878 67.4896 156.354 67.3906 156.891 67.3906C157.344 67.3906 157.745 67.4505 158.094 67.5703C158.448 67.6901 158.745 67.875 158.984 68.125C159.229 68.3698 159.414 68.6849 159.539 69.0703C159.664 69.4557 159.727 69.9141 159.727 70.4453V76H158.273V70.4297C158.273 69.9557 158.198 69.5885 158.047 69.3281C157.901 69.0625 157.693 68.8776 157.422 68.7734C157.156 68.6641 156.839 68.6094 156.469 68.6094C156.151 68.6094 155.87 68.6641 155.625 68.7734C155.38 68.8828 155.174 69.0339 155.008 69.2266C154.841 69.4141 154.714 69.6302 154.625 69.875C154.542 70.1198 154.5 70.3802 154.5 70.6562ZM163.984 67.5469V76H162.531V67.5469H163.984ZM162.422 65.3047C162.422 65.0703 162.492 64.8724 162.633 64.7109C162.779 64.5495 162.992 64.4688 163.273 64.4688C163.549 64.4688 163.76 64.5495 163.906 64.7109C164.057 64.8724 164.133 65.0703 164.133 65.3047C164.133 65.5286 164.057 65.7214 163.906 65.8828C163.76 66.0391 163.549 66.1172 163.273 66.1172C162.992 66.1172 162.779 66.0391 162.633 65.8828C162.492 65.7214 162.422 65.5286 162.422 65.3047ZM170.312 76.1562C169.724 76.1562 169.19 76.0573 168.711 75.8594C168.237 75.6562 167.828 75.3724 167.484 75.0078C167.146 74.6432 166.885 74.2109 166.703 73.7109C166.521 73.2109 166.43 72.6641 166.43 72.0703V71.7422C166.43 71.0547 166.531 70.4427 166.734 69.9062C166.938 69.3646 167.214 68.9062 167.562 68.5312C167.911 68.1562 168.307 67.8724 168.75 67.6797C169.193 67.487 169.651 67.3906 170.125 67.3906C170.729 67.3906 171.25 67.4948 171.688 67.7031C172.13 67.9115 172.492 68.2031 172.773 68.5781C173.055 68.9479 173.263 69.3854 173.398 69.8906C173.534 70.3906 173.602 70.9375 173.602 71.5312V72.1797H167.289V71H172.156V70.8906C172.135 70.5156 172.057 70.151 171.922 69.7969C171.792 69.4427 171.583 69.151 171.297 68.9219C171.01 68.6927 170.62 68.5781 170.125 68.5781C169.797 68.5781 169.495 68.6484 169.219 68.7891C168.943 68.9245 168.706 69.1276 168.508 69.3984C168.31 69.6693 168.156 70 168.047 70.3906C167.938 70.7812 167.883 71.2318 167.883 71.7422V72.0703C167.883 72.4714 167.938 72.849 168.047 73.2031C168.161 73.5521 168.326 73.8594 168.539 74.125C168.758 74.3906 169.021 74.599 169.328 74.75C169.641 74.901 169.995 74.9766 170.391 74.9766C170.901 74.9766 171.333 74.8724 171.688 74.6641C172.042 74.4557 172.352 74.1771 172.617 73.8281L173.492 74.5234C173.31 74.7995 173.078 75.0625 172.797 75.3125C172.516 75.5625 172.169 75.7656 171.758 75.9219C171.352 76.0781 170.87 76.1562 170.312 76.1562ZM180.711 73.7578C180.711 73.5495 180.664 73.3568 180.57 73.1797C180.482 72.9974 180.297 72.8333 180.016 72.6875C179.74 72.5365 179.323 72.4062 178.766 72.2969C178.297 72.1979 177.872 72.0807 177.492 71.9453C177.117 71.8099 176.797 71.6458 176.531 71.4531C176.271 71.2604 176.07 71.0339 175.93 70.7734C175.789 70.513 175.719 70.2083 175.719 69.8594C175.719 69.526 175.792 69.2109 175.938 68.9141C176.089 68.6172 176.299 68.3542 176.57 68.125C176.846 67.8958 177.177 67.7161 177.562 67.5859C177.948 67.4557 178.378 67.3906 178.852 67.3906C179.529 67.3906 180.107 67.5104 180.586 67.75C181.065 67.9896 181.432 68.3099 181.688 68.7109C181.943 69.1068 182.07 69.5469 182.07 70.0312H180.625C180.625 69.7969 180.555 69.5703 180.414 69.3516C180.279 69.1276 180.078 68.9427 179.812 68.7969C179.552 68.651 179.232 68.5781 178.852 68.5781C178.451 68.5781 178.125 68.6406 177.875 68.7656C177.63 68.8854 177.451 69.0391 177.336 69.2266C177.227 69.4141 177.172 69.612 177.172 69.8203C177.172 69.9766 177.198 70.1172 177.25 70.2422C177.307 70.362 177.406 70.474 177.547 70.5781C177.688 70.6771 177.885 70.7708 178.141 70.8594C178.396 70.9479 178.721 71.0365 179.117 71.125C179.81 71.2812 180.38 71.4688 180.828 71.6875C181.276 71.9062 181.609 72.1745 181.828 72.4922C182.047 72.8099 182.156 73.1953 182.156 73.6484C182.156 74.0182 182.078 74.3568 181.922 74.6641C181.771 74.9714 181.549 75.237 181.258 75.4609C180.971 75.6797 180.628 75.8516 180.227 75.9766C179.831 76.0964 179.385 76.1562 178.891 76.1562C178.146 76.1562 177.516 76.0234 177 75.7578C176.484 75.4922 176.094 75.1484 175.828 74.7266C175.562 74.3047 175.43 73.8594 175.43 73.3906H176.883C176.904 73.7865 177.018 74.1016 177.227 74.3359C177.435 74.5651 177.69 74.7292 177.992 74.8281C178.294 74.9219 178.594 74.9688 178.891 74.9688C179.286 74.9688 179.617 74.9167 179.883 74.8125C180.154 74.7083 180.359 74.5651 180.5 74.3828C180.641 74.2005 180.711 73.9922 180.711 73.7578Z" fill="black"/>
<line x1="298" y1="312" x2="298" y2="273" stroke="#FF4466" stroke-width="8" stroke-dasharray="16 8"/>
<rect x="385" y="431" width="176" height="112" rx="24" transform="rotate(-180 385 431)" stroke="#FF4466" stroke-width="16"/>
<path d="M252.531 369.633L248.766 380L247.227 380L251.563 368.625L252.555 368.625L252.531 369.633ZM255.688 380L251.914 369.633L251.891 368.625L252.883 368.625L257.234 380L255.688 380ZM255.492 375.789L255.492 377.023L249.102 377.023L249.102 375.789L255.492 375.789ZM264.367 378.359L264.367 368L265.82 368L265.82 380L264.492 380L264.367 378.359ZM258.68 375.867L258.68 375.703C258.68 375.057 258.758 374.471 258.914 373.945C259.076 373.414 259.302 372.958 259.594 372.578C259.891 372.198 260.242 371.906 260.648 371.703C261.06 371.495 261.518 371.391 262.023 371.391C262.555 371.391 263.018 371.484 263.414 371.672C263.815 371.854 264.154 372.122 264.43 372.477C264.711 372.826 264.932 373.247 265.094 373.742C265.255 374.237 265.367 374.797 265.43 375.422L265.43 376.141C265.372 376.76 265.26 377.318 265.094 377.812C264.932 378.307 264.711 378.729 264.43 379.078C264.154 379.427 263.815 379.695 263.414 379.883C263.013 380.065 262.544 380.156 262.008 380.156C261.513 380.156 261.06 380.049 260.648 379.836C260.242 379.622 259.891 379.323 259.594 378.937C259.302 378.552 259.076 378.099 258.914 377.578C258.758 377.052 258.68 376.482 258.68 375.867ZM260.133 375.703L260.133 375.867C260.133 376.289 260.174 376.685 260.258 377.055C260.346 377.424 260.482 377.75 260.664 378.031C260.846 378.312 261.078 378.534 261.359 378.695C261.641 378.852 261.977 378.93 262.367 378.93C262.846 378.93 263.24 378.828 263.547 378.625C263.859 378.422 264.109 378.154 264.297 377.82C264.484 377.487 264.63 377.125 264.734 376.734L264.734 374.852C264.672 374.565 264.581 374.289 264.461 374.023C264.346 373.753 264.195 373.513 264.008 373.305C263.826 373.091 263.599 372.922 263.328 372.797C263.063 372.672 262.747 372.609 262.383 372.609C261.987 372.609 261.646 372.693 261.359 372.859C261.078 373.021 260.846 373.245 260.664 373.531C260.482 373.812 260.346 374.141 260.258 374.516C260.174 374.885 260.133 375.281 260.133 375.703ZM273.898 378.359L273.898 368L275.352 368L275.352 380L274.023 380L273.898 378.359ZM268.211 375.867L268.211 375.703C268.211 375.057 268.289 374.471 268.445 373.945C268.607 373.414 268.833 372.958 269.125 372.578C269.422 372.198 269.773 371.906 270.18 371.703C270.591 371.495 271.049 371.391 271.555 371.391C272.086 371.391 272.549 371.484 272.945 371.672C273.346 371.854 273.685 372.122 273.961 372.477C274.242 372.826 274.464 373.247 274.625 373.742C274.786 374.237 274.898 374.797 274.961 375.422L274.961 376.141C274.904 376.76 274.792 377.318 274.625 377.812C274.464 378.307 274.242 378.729 273.961 379.078C273.685 379.427 273.346 379.695 272.945 379.883C272.544 380.065 272.076 380.156 271.539 380.156C271.044 380.156 270.591 380.049 270.18 379.836C269.773 379.622 269.422 379.323 269.125 378.937C268.833 378.552 268.607 378.099 268.445 377.578C268.289 377.052 268.211 376.482 268.211 375.867ZM269.664 375.703L269.664 375.867C269.664 376.289 269.706 376.685 269.789 377.055C269.878 377.424 270.013 377.75 270.195 378.031C270.378 378.312 270.609 378.534 270.891 378.695C271.172 378.852 271.508 378.93 271.898 378.93C272.378 378.93 272.771 378.828 273.078 378.625C273.391 378.422 273.641 378.154 273.828 377.82C274.016 377.487 274.161 377.125 274.266 376.734L274.266 374.852C274.203 374.565 274.112 374.289 273.992 374.023C273.878 373.753 273.727 373.513 273.539 373.305C273.357 373.091 273.13 372.922 272.859 372.797C272.594 372.672 272.279 372.609 271.914 372.609C271.518 372.609 271.177 372.693 270.891 372.859C270.609 373.021 270.378 373.245 270.195 373.531C270.013 373.812 269.878 374.141 269.789 374.516C269.706 374.885 269.664 375.281 269.664 375.703ZM286.078 380.156C285.49 380.156 284.956 380.057 284.477 379.859C284.003 379.656 283.594 379.372 283.25 379.008C282.911 378.643 282.651 378.211 282.469 377.711C282.286 377.211 282.195 376.664 282.195 376.07L282.195 375.742C282.195 375.055 282.297 374.443 282.5 373.906C282.703 373.365 282.979 372.906 283.328 372.531C283.677 372.156 284.073 371.872 284.516 371.68C284.958 371.487 285.417 371.391 285.891 371.391C286.495 371.391 287.016 371.495 287.453 371.703C287.896 371.911 288.258 372.203 288.539 372.578C288.82 372.948 289.029 373.385 289.164 373.891C289.299 374.391 289.367 374.937 289.367 375.531L289.367 376.18L283.055 376.18L283.055 375L287.922 375L287.922 374.891C287.901 374.516 287.823 374.151 287.688 373.797C287.557 373.443 287.349 373.151 287.063 372.922C286.776 372.693 286.385 372.578 285.891 372.578C285.563 372.578 285.26 372.648 284.984 372.789C284.708 372.924 284.471 373.128 284.273 373.398C284.076 373.669 283.922 374 283.813 374.391C283.703 374.781 283.648 375.232 283.648 375.742L283.648 376.07C283.648 376.471 283.703 376.849 283.813 377.203C283.927 377.552 284.091 377.859 284.305 378.125C284.523 378.391 284.786 378.599 285.094 378.75C285.406 378.901 285.76 378.977 286.156 378.977C286.667 378.977 287.099 378.872 287.453 378.664C287.807 378.456 288.117 378.177 288.383 377.828L289.258 378.523C289.076 378.799 288.844 379.062 288.563 379.312C288.281 379.562 287.935 379.766 287.523 379.922C287.117 380.078 286.635 380.156 286.078 380.156ZM293 373.352L293 380L291.555 380L291.555 371.547L292.922 371.547L293 373.352ZM292.656 375.453L292.055 375.43C292.06 374.852 292.146 374.318 292.313 373.828C292.479 373.333 292.714 372.904 293.016 372.539C293.318 372.174 293.677 371.893 294.094 371.695C294.516 371.492 294.982 371.391 295.492 371.391C295.909 371.391 296.284 371.448 296.617 371.562C296.951 371.672 297.234 371.849 297.469 372.094C297.708 372.339 297.891 372.656 298.016 373.047C298.141 373.432 298.203 373.904 298.203 374.461L298.203 380L296.75 380L296.75 374.445C296.75 374.003 296.685 373.648 296.555 373.383C296.424 373.112 296.234 372.917 295.984 372.797C295.734 372.672 295.427 372.609 295.063 372.609C294.703 372.609 294.375 372.685 294.078 372.836C293.786 372.987 293.534 373.195 293.32 373.461C293.112 373.727 292.948 374.031 292.828 374.375C292.714 374.714 292.656 375.073 292.656 375.453ZM304.406 380.156C303.818 380.156 303.284 380.057 302.805 379.859C302.331 379.656 301.922 379.372 301.578 379.008C301.24 378.643 300.979 378.211 300.797 377.711C300.615 377.211 300.523 376.664 300.523 376.07L300.523 375.742C300.523 375.055 300.625 374.443 300.828 373.906C301.031 373.365 301.307 372.906 301.656 372.531C302.005 372.156 302.401 371.872 302.844 371.68C303.286 371.487 303.745 371.391 304.219 371.391C304.823 371.391 305.344 371.495 305.781 371.703C306.224 371.911 306.586 372.203 306.867 372.578C307.148 372.948 307.357 373.385 307.492 373.891C307.628 374.391 307.695 374.937 307.695 375.531L307.695 376.18L301.383 376.18L301.383 375L306.25 375L306.25 374.891C306.229 374.516 306.151 374.151 306.016 373.797C305.885 373.443 305.677 373.151 305.391 372.922C305.104 372.693 304.714 372.578 304.219 372.578C303.891 372.578 303.589 372.648 303.313 372.789C303.036 372.924 302.799 373.128 302.602 373.398C302.404 373.669 302.25 374 302.141 374.391C302.031 374.781 301.977 375.232 301.977 375.742L301.977 376.07C301.977 376.471 302.031 376.849 302.141 377.203C302.255 377.552 302.419 377.859 302.633 378.125C302.852 378.391 303.115 378.599 303.422 378.75C303.734 378.901 304.089 378.977 304.484 378.977C304.995 378.977 305.427 378.872 305.781 378.664C306.135 378.456 306.445 378.177 306.711 377.828L307.586 378.523C307.404 378.799 307.172 379.062 306.891 379.312C306.609 379.562 306.263 379.766 305.852 379.922C305.445 380.078 304.964 380.156 304.406 380.156ZM311.32 373.227L311.32 380L309.867 380L309.867 371.547L311.242 371.547L311.32 373.227ZM311.023 375.453L310.352 375.43C310.357 374.852 310.432 374.318 310.578 373.828C310.724 373.333 310.94 372.904 311.227 372.539C311.513 372.174 311.87 371.893 312.297 371.695C312.724 371.492 313.219 371.391 313.781 371.391C314.177 371.391 314.542 371.448 314.875 371.562C315.208 371.672 315.497 371.846 315.742 372.086C315.987 372.326 316.177 372.633 316.313 373.008C316.448 373.383 316.516 373.836 316.516 374.367L316.516 380L315.07 380L315.07 374.437C315.07 373.995 314.995 373.641 314.844 373.375C314.698 373.109 314.49 372.917 314.219 372.797C313.948 372.672 313.63 372.609 313.266 372.609C312.839 372.609 312.482 372.685 312.195 372.836C311.909 372.987 311.68 373.195 311.508 373.461C311.336 373.727 311.211 374.031 311.133 374.375C311.06 374.714 311.023 375.073 311.023 375.453ZM316.5 374.656L315.531 374.953C315.536 374.49 315.612 374.044 315.758 373.617C315.909 373.19 316.125 372.81 316.406 372.477C316.693 372.143 317.044 371.88 317.461 371.687C317.878 371.49 318.354 371.391 318.891 371.391C319.344 371.391 319.745 371.451 320.094 371.57C320.448 371.69 320.745 371.875 320.984 372.125C321.229 372.37 321.414 372.685 321.539 373.07C321.664 373.456 321.727 373.914 321.727 374.445L321.727 380L320.273 380L320.273 374.43C320.273 373.956 320.198 373.589 320.047 373.328C319.901 373.062 319.693 372.878 319.422 372.773C319.156 372.664 318.839 372.609 318.469 372.609C318.151 372.609 317.87 372.664 317.625 372.773C317.38 372.883 317.174 373.034 317.008 373.227C316.841 373.414 316.714 373.63 316.625 373.875C316.542 374.12 316.5 374.38 316.5 374.656ZM325.984 371.547L325.984 380L324.531 380L324.531 371.547L325.984 371.547ZM324.422 369.305C324.422 369.07 324.492 368.872 324.633 368.711C324.779 368.549 324.992 368.469 325.273 368.469C325.549 368.469 325.76 368.549 325.906 368.711C326.057 368.872 326.133 369.07 326.133 369.305C326.133 369.529 326.057 369.721 325.906 369.883C325.76 370.039 325.549 370.117 325.273 370.117C324.992 370.117 324.779 370.039 324.633 369.883C324.492 369.721 324.422 369.529 324.422 369.305ZM332.313 380.156C331.724 380.156 331.19 380.057 330.711 379.859C330.237 379.656 329.828 379.372 329.484 379.008C329.146 378.643 328.885 378.211 328.703 377.711C328.521 377.211 328.43 376.664 328.43 376.07L328.43 375.742C328.43 375.055 328.531 374.443 328.734 373.906C328.938 373.365 329.214 372.906 329.563 372.531C329.911 372.156 330.307 371.872 330.75 371.68C331.193 371.487 331.651 371.391 332.125 371.391C332.729 371.391 333.25 371.495 333.688 371.703C334.13 371.911 334.492 372.203 334.773 372.578C335.055 372.948 335.263 373.385 335.398 373.891C335.534 374.391 335.602 374.937 335.602 375.531L335.602 376.18L329.289 376.18L329.289 375L334.156 375L334.156 374.891C334.135 374.516 334.057 374.151 333.922 373.797C333.792 373.443 333.583 373.151 333.297 372.922C333.01 372.693 332.62 372.578 332.125 372.578C331.797 372.578 331.495 372.648 331.219 372.789C330.943 372.924 330.706 373.128 330.508 373.398C330.31 373.669 330.156 374 330.047 374.391C329.938 374.781 329.883 375.232 329.883 375.742L329.883 376.07C329.883 376.471 329.938 376.849 330.047 377.203C330.161 377.552 330.326 377.859 330.539 378.125C330.758 378.391 331.021 378.599 331.328 378.75C331.641 378.901 331.995 378.977 332.391 378.977C332.901 378.977 333.333 378.872 333.688 378.664C334.042 378.456 334.352 378.177 334.617 377.828L335.492 378.523C335.31 378.799 335.078 379.062 334.797 379.312C334.516 379.562 334.169 379.766 333.758 379.922C333.352 380.078 332.87 380.156 332.313 380.156ZM342.711 377.758C342.711 377.549 342.664 377.357 342.57 377.18C342.482 376.997 342.297 376.833 342.016 376.687C341.74 376.536 341.323 376.406 340.766 376.297C340.297 376.198 339.872 376.081 339.492 375.945C339.117 375.81 338.797 375.646 338.531 375.453C338.271 375.26 338.07 375.034 337.93 374.773C337.789 374.513 337.719 374.208 337.719 373.859C337.719 373.526 337.792 373.211 337.938 372.914C338.089 372.617 338.299 372.354 338.57 372.125C338.846 371.896 339.177 371.716 339.563 371.586C339.948 371.456 340.378 371.391 340.852 371.391C341.529 371.391 342.107 371.51 342.586 371.75C343.065 371.99 343.432 372.31 343.688 372.711C343.943 373.107 344.07 373.547 344.07 374.031L342.625 374.031C342.625 373.797 342.555 373.57 342.414 373.352C342.279 373.128 342.078 372.943 341.813 372.797C341.552 372.651 341.232 372.578 340.852 372.578C340.451 372.578 340.125 372.641 339.875 372.766C339.63 372.885 339.451 373.039 339.336 373.227C339.227 373.414 339.172 373.612 339.172 373.82C339.172 373.977 339.198 374.117 339.25 374.242C339.307 374.362 339.406 374.474 339.547 374.578C339.688 374.677 339.885 374.771 340.141 374.859C340.396 374.948 340.721 375.036 341.117 375.125C341.81 375.281 342.38 375.469 342.828 375.687C343.276 375.906 343.609 376.174 343.828 376.492C344.047 376.81 344.156 377.195 344.156 377.648C344.156 378.018 344.078 378.357 343.922 378.664C343.771 378.971 343.549 379.237 343.258 379.461C342.971 379.68 342.628 379.852 342.227 379.977C341.831 380.096 341.385 380.156 340.891 380.156C340.146 380.156 339.516 380.023 339 379.758C338.484 379.492 338.094 379.148 337.828 378.727C337.563 378.305 337.43 377.859 337.43 377.391L338.883 377.391C338.904 377.786 339.018 378.102 339.227 378.336C339.435 378.565 339.69 378.729 339.992 378.828C340.294 378.922 340.594 378.969 340.891 378.969C341.286 378.969 341.617 378.917 341.883 378.812C342.154 378.708 342.359 378.565 342.5 378.383C342.641 378.201 342.711 377.992 342.711 377.758Z" fill="black"/>
<path d="M1188 232.924C1188 236.234 1191.79 238.111 1194.42 236.105L1204.82 228.182C1206.93 226.581 1206.93 223.419 1204.82 221.818L1194.42 213.895C1191.79 211.889 1188 213.766 1188 217.076V232.924Z" fill="#FF4466"/>
<circle cx="1100" cy="225" r="8" fill="#FF4466"/>
<circle cx="1132" cy="225" r="8" fill="#FF4466"/>
<circle cx="1164" cy="225" r="8" fill="#FF4466"/>
</svg>
