<svg width="2172" height="1307" viewBox="0 0 2172 1307" fill="none" xmlns="http://www.w3.org/2000/svg">
<g filter="url(#filter0_d_618_870)">
<rect x="1614.78" y="564.711" width="263.322" height="385.628" rx="30" transform="rotate(-36.6901 1614.78 564.711)" fill="white"/>
<rect x="1621.77" y="565.733" width="253.322" height="375.628" rx="25" transform="rotate(-36.6901 1621.77 565.733)" stroke="url(#paint0_linear_618_870)" stroke-width="10"/>
</g>
<path d="M1794.8 586.495C1807.32 577.169 1826.33 579.959 1835.26 591.949C1838.34 596.226 1840.25 601.234 1840.8 606.475C1841.35 611.716 1840.52 617.007 1838.39 621.823C1841.8 615.044 1849.75 609.124 1849.75 609.124C1849.75 609.124 1849.75 609.124 1849.75 609.124C1863.35 598.987 1881.55 600.687 1891.7 614.312C1901.85 627.937 1897.87 645.312 1884.27 655.449C1884.27 655.449 1884.27 655.449 1884.27 655.449C1884.27 655.449 1877.57 660.437 1865.21 663.354C1863.22 663.822 1862.28 665.96 1863.65 667.473C1866.89 671.061 1873.72 676.908 1886.55 681.482C1888.89 682.316 1889.47 685.476 1887.48 686.961L1864.57 704.031C1862.57 705.516 1859.71 704.06 1859.58 701.578C1858.87 687.976 1855.22 679.756 1852.71 675.624C1851.65 673.881 1849.33 674.173 1848.32 675.942C1841.99 686.954 1835.29 691.942 1835.29 691.942C1835.29 691.942 1835.29 691.942 1835.29 691.942C1821.69 702.079 1803.9 700.924 1793.75 687.298C1783.59 673.673 1787.17 655.754 1800.77 645.617C1800.77 645.617 1800.77 645.617 1800.77 645.617C1800.77 645.617 1808.72 639.697 1816.19 638.367C1813.87 638.657 1799.39 640.462 1788.46 626.821C1779.53 614.83 1782.29 595.821 1794.8 586.495Z" fill="url(#paint1_linear_618_870)"/>
<g filter="url(#filter1_f_618_870)">
<rect x="1334.5" y="208.937" width="233.322" height="355.628" rx="65" transform="rotate(19.2275 1334.5 208.937)" stroke="#EC4875" stroke-opacity="0.79" stroke-width="30"/>
</g>
<g filter="url(#filter2_d_618_870)">
<rect x="1320.22" y="180.948" width="263.322" height="385.628" rx="30" transform="rotate(19.2275 1320.22 180.948)" fill="white" fill-opacity="0.99" shape-rendering="crispEdges"/>
<rect x="1323.29" y="187.316" width="253.322" height="375.628" rx="25" transform="rotate(19.2275 1323.29 187.316)" stroke="url(#paint2_linear_618_870)" stroke-width="10" shape-rendering="crispEdges"/>
</g>
<path d="M1404.71 346.351C1404.17 344.117 1401.43 343.162 1399.61 344.573C1370.23 367.437 1336.74 370.612 1325.9 401.69C1321.37 414.689 1329.46 432.091 1342.08 436.495C1346.93 438.185 1351.77 439.875 1357.64 438.629C1360.06 438.115 1362.25 439.988 1361.11 442.188C1358.74 446.79 1353.89 453.748 1344.21 461.188C1342.25 462.695 1342.66 465.858 1345 466.673L1371.99 476.09C1374.24 476.873 1376.47 474.844 1376.02 472.51C1373.93 461.74 1374.01 453.578 1374.56 448.263C1374.83 445.584 1378.13 445.185 1379.99 447.139C1383.65 450.997 1388.12 452.555 1392.58 454.112C1405.21 458.516 1422.37 449.922 1426.9 436.924C1437.74 405.845 1413.5 382.53 1404.71 346.351Z" fill="url(#paint3_linear_618_870)"/>
<g filter="url(#filter3_d_618_870)">
<rect x="740.385" y="178.995" width="263.322" height="385.628" rx="30" transform="rotate(7.52348 740.385 178.995)" fill="white"/>
<rect x="744.688" y="184.607" width="253.322" height="375.628" rx="25" transform="rotate(7.52348 744.688 184.607)" stroke="url(#paint4_linear_618_870)" stroke-width="10"/>
</g>
<g filter="url(#filter4_f_618_870)">
<rect x="134.567" y="601.158" width="233.322" height="355.628" rx="65" transform="rotate(-32.5017 134.567 601.158)" stroke="#EC4875" stroke-opacity="0.79" stroke-width="30"/>
</g>
<g filter="url(#filter5_d_618_870)">
<rect x="103.746" y="595.037" width="263.322" height="385.628" rx="30" transform="rotate(-32.5017 103.746 595.037)" fill="white" fill-opacity="0.99" shape-rendering="crispEdges"/>
<rect x="110.649" y="596.567" width="253.322" height="375.628" rx="25" transform="rotate(-32.5017 110.649 596.567)" stroke="url(#paint5_linear_618_870)" stroke-width="10" shape-rendering="crispEdges"/>
</g>
<path d="M711.239 882.901C630.764 885.098 641.367 937.098 659.926 972.195C679.422 992.766 689.985 1010.83 744.462 1019.12C793.059 1026.52 838.041 1040.06 954.55 1039.25L964.111 965.469C905.894 939.275 776.478 881.121 711.239 882.901Z" fill="#986565"/>
<path d="M695.575 347.197C688.308 387.909 685.645 404.068 677.892 422.325C670.138 440.582 644.159 444.534 648.755 467.102C654.773 496.254 635.908 483.338 628.202 505.042C625.255 513.351 696.603 544.092 681.048 557.805C649.919 543.017 618.787 528.106 587.658 513.318C582.998 496.888 578.868 473.448 582.223 445.736C590.822 375.286 643.58 262.05 657.021 251.59C670.722 249.958 709.256 270.091 695.575 347.197Z" fill="#360D26"/>
<path d="M602.313 349.088C595.046 389.801 595.421 394.208 600.193 414.439C604.965 434.669 539.412 438.684 544.007 461.252C550.025 490.404 537.683 483.332 529.977 505.036C527.03 513.345 598.378 544.086 582.823 557.799C551.695 543.011 520.562 528.1 489.433 513.312C484.774 496.882 480.643 473.442 483.998 445.73C492.597 375.28 545.355 262.044 558.796 251.584C572.497 249.952 615.994 271.983 602.313 349.088Z" fill="#360D26"/>
<path d="M624.779 455.69C604.332 449.822 564.952 450.881 537.903 456.935L526.147 465.557L561.848 535.669L651.311 525.995L644.319 467.471L624.779 455.69Z" fill="#A21932"/>
<path d="M699.912 589.996C713.487 584.135 739.943 569.966 737.163 560.181C735.36 554.716 731.186 552.842 724.236 543.779C717.286 534.717 700.537 550.938 693.031 560.181L699.912 589.996Z" fill="#FB4469"/>
<ellipse cx="582.377" cy="894.805" rx="124.779" ry="85.0133" transform="rotate(-3.29291 582.377 894.805)" fill="#9A9A9A"/>
<path d="M757.239 955.282C751.599 977.464 771.765 1027.36 793.666 1031.38C785.465 1032.36 726.094 1017.49 699.264 1008.4C672.435 999.304 600.654 970.518 571.792 986.152L504.449 867.34C513.818 868.055 664.454 864.091 690.846 864.091C716.1 864.091 821.885 905.129 842.971 914.344C821.232 912.556 761.89 936.993 757.239 955.282Z" fill="url(#paint6_linear_618_870)"/>
<path d="M907.12 1016.65C902.927 1036.19 889.798 1047.22 911.142 1057.41C889.537 1047.09 726.861 1026.42 716.955 1001.43C709.03 981.436 690.097 884.493 683.81 869.584C695.094 871.366 722.146 873.575 741.625 878.585C759.357 883.146 943.343 951.007 950.304 954.256C917.342 968.984 909.979 1003.32 907.178 1016.38L907.12 1016.65Z" fill="url(#paint7_linear_618_870)"/>
<path d="M648.39 573.425C629.605 541.529 625.157 493.844 659.198 481.922C691.74 470.525 719.987 513.795 723.267 527.982C726.547 542.168 742.593 582.698 755.667 608.842C778.584 654.668 772.556 641.592 783.381 666.171C792.041 685.835 794.428 693.885 794.428 707.396L750.587 722.153C730.047 695.382 716.793 681.971 703.21 656.505C686.231 624.673 667.174 605.321 648.39 573.425Z" fill="#986565"/>
<path d="M499.329 872.039C567.316 850.469 596.059 906.464 596.096 938.832C596.134 971.199 578.582 980.602 535.182 1000.03C496.466 1017.37 434.492 1018.19 353.612 1043.92L313.196 994.222C353.725 958.127 441.55 890.371 499.329 872.039Z" fill="#A27272"/>
<path d="M411.708 1037.02C500.981 1023.93 611.009 978.395 638.796 926.411L553.961 828.398C544.79 831.109 509.354 852.997 486.299 865.316C464.074 877.193 357.641 946.322 345.108 957.727C353.742 952.548 371.161 973.645 388.976 991.091C406.79 1008.54 422.844 1032.2 411.708 1037.02Z" fill="#F4E1DD"/>
<path d="M404.722 1006.69C436.666 1004.16 564.307 957.192 587.718 941.437C589.349 941.611 595.199 946.886 605.557 966.599C593.601 979.081 478.659 1029.27 422.489 1040.83C427.13 1035.11 424.129 1031 404.722 1006.69Z" fill="#F4E1DD"/>
<path d="M779.132 1038.23C867.623 956.689 913.922 986.244 948.3 986.244L962.178 964.658C996.176 978.562 1020.65 1017.33 985.858 1039.78C982.443 1043.05 867.582 1082.65 797.296 1088.37C740.618 1092.98 692.388 1092.02 674.795 1094.69L682.918 1051.03C704.873 1046.56 748.197 1055.8 779.132 1038.23Z" fill="#986565"/>
<path d="M628.991 1144.73C642.431 1115.84 647.9 1094.74 688.807 1093.89L698.451 1049.52C676.303 1037.54 675.044 1011.05 661.044 1008.27C644.317 1004.95 632.871 1026.8 629.327 1040.28C624.716 1057.82 595.509 1075.53 594.948 1097.4C594.66 1108.61 599.658 1133.57 603.419 1162.44C605.213 1176.22 614.431 1176.02 628.991 1144.73Z" fill="url(#paint8_linear_618_870)"/>
<path d="M556.068 1043.16C422.16 942.156 367.715 969.958 356.426 974.221C356.426 974.221 314.552 991.865 313.171 994.172C313.171 994.172 298.609 1011.3 306.016 1024.99C313.422 1038.68 386.993 1058.24 460.498 1076.71C519.496 1091.54 639.799 1115.44 657.821 1124.13L656.776 1068.65C634.015 1061.23 586.311 1065.97 556.068 1043.16Z" fill="#A27272"/>
<path d="M691.964 1168.87C680.042 1137.24 668.893 1126.57 631.157 1116.12C635.105 1095.02 635.352 1083.26 626.046 1062.63C650.43 1051.72 653.869 1023.78 668.901 1021.96C686.861 1019.78 697.234 1043.8 699.912 1058.35C703.396 1077.27 732.888 1098.33 731.744 1121.52C731.157 1133.39 723.885 1159.4 717.611 1189.65C714.618 1204.08 704.881 1203.14 691.964 1168.87Z" fill="url(#paint9_linear_618_870)"/>
<path d="M693.584 292.159C693.83 269.65 686.683 247.682 673.24 229.626C659.797 211.57 640.801 198.424 619.166 192.205C597.532 185.986 574.455 187.037 553.475 195.197C532.496 203.358 514.774 218.176 503.028 237.38C491.282 256.583 486.162 279.11 488.453 301.503C490.744 323.897 500.319 344.92 515.71 361.348C531.101 377.775 551.456 388.698 573.653 392.442C595.85 396.185 618.663 392.542 638.59 382.071L590.755 291.038L693.584 292.159Z" fill="#A27272"/>
<path d="M473.37 480.966C494.405 476.712 537.715 474.199 557.252 440.916L609.834 440.859C610.042 447.906 607.21 453.334 625.371 460.279C652.249 470.557 668.638 469.936 686.271 479.401C703.904 488.867 710.412 506.529 707.82 533.387C705.746 554.874 691.165 566.562 682.768 573.619L582.16 523.08L487.597 589.942C476.647 582.247 454.035 562.791 451.184 546.534C447.621 526.212 452.335 485.219 473.37 480.966Z" fill="#A27272"/>
<path d="M555.459 436.851C566.815 406.377 565.513 406.512 565.906 371.898L630.128 400.859C623.42 418.891 610.716 458.041 613.566 470.393C616.416 482.744 618.148 498.393 617.507 498.568L527.231 495.4C532.855 486.041 546.374 461.229 555.459 436.851Z" fill="url(#paint10_linear_618_870)"/>
<path d="M661.691 405.825C678.798 389.761 677.071 367.911 679.298 347.201C681.524 326.49 692.519 307.175 693.503 292.034L497.643 334.457C502.573 344.984 509.381 358.482 514.312 366.501C521.88 378.808 535.328 398.525 551.382 409.085C564.194 417.512 593.656 433.066 609.833 435.752C627.714 428.789 645.288 421.228 661.691 405.825Z" fill="#A27272"/>
<path d="M471.875 661.646C472.964 577.242 554.685 489.784 592.341 471.159C653.917 531.787 695.909 579.807 697.766 642.632C699.623 705.458 697.563 811.404 582.738 814.797C498.551 817.285 470.633 757.905 471.875 661.646Z" fill="#A27272"/>
<path d="M579.429 345.201L693.56 292.277L560.714 250.289L579.429 345.201Z" fill="#A27272"/>
<path d="M737.371 560.385C721.038 502.465 699.397 479.278 671.45 471.654L687.811 576.625C701.624 566.713 730.874 549.589 737.371 560.385Z" fill="#FF819A"/>
<path d="M613.855 518.366C569.88 520.485 528.624 464.076 538.055 456.873C528.901 459.332 498.98 467.093 469.737 476.861C516.448 483.428 539.612 530.065 546.983 558.757C556.197 594.622 516.507 590.356 496.94 601.491C481.287 610.399 466.495 566.264 464.477 557.526C459.999 586.184 471.192 655.199 473.103 719.866C474.896 780.538 439.51 877.319 450.935 886.94C452.75 878.64 489.417 872.509 518.88 873.711C539.924 875.515 626.54 871.435 653.049 870.652C699.67 869.274 700.467 865.293 732.335 873.711C727.983 837.421 707.894 776.418 708.641 772.103C715.575 732.039 707.292 694.185 707.036 642.629C706.78 591.073 694.683 545.067 689.254 517.015C683.825 488.962 679.594 474.362 673.948 472.48C665.212 469.568 631.885 458.514 624.592 455.688C634.745 461.378 657.83 516.247 613.855 518.366Z" fill="#FF9AAE"/>
<path d="M553.321 598.675C557.24 631.936 480.417 633.561 473.223 613.799C461.355 593.476 487.351 557.181 501.832 541.573C516.89 549.96 550.339 573.369 553.321 598.675Z" fill="#ED3266"/>
<path d="M470.335 727.228C469.868 687.634 473.13 666.208 458.7 568.386L523.399 631.272C518.124 663.258 507.667 738.501 508.039 783.592C508.412 828.683 515.331 862.314 518.745 873.494C515.641 873.959 502.052 872.248 474.992 877.653C458.751 880.896 456.346 884.535 448.529 888.142C445.713 847.019 470.709 758.904 470.335 727.228Z" fill="url(#paint11_linear_618_870)"/>
<g filter="url(#filter6_d_618_870)">
<rect width="44.9062" height="65.1864" rx="4" transform="matrix(-0.83291 -0.553409 -0.553409 0.83291 726.517 473.049)" fill="url(#paint12_linear_618_870)"/>
<rect x="-1.38632" y="0.279501" width="42.9062" height="63.1864" rx="3" transform="matrix(-0.83291 -0.553409 -0.553409 0.83291 724.13 472.328)" stroke="url(#paint13_linear_618_870)" stroke-width="2"/>
</g>
<g filter="url(#filter7_d_618_870)">
<rect width="44.9062" height="65.1864" rx="4" transform="matrix(-0.967788 -0.251765 -0.251765 0.967788 697.421 458.106)" fill="url(#paint14_linear_618_870)"/>
<rect x="-1.21955" y="0.716023" width="42.9062" height="63.1864" rx="3" transform="matrix(-0.967788 -0.251765 -0.251765 0.967788 695.202 457.822)" stroke="url(#paint15_linear_618_870)" stroke-width="2"/>
</g>
<g filter="url(#filter8_d_618_870)">
<rect width="44.9062" height="65.1864" rx="4" transform="matrix(-1 0 0 1 671.567 450.363)" fill="url(#paint16_linear_618_870)"/>
<rect x="-1" y="1" width="42.9062" height="63.1864" rx="3" transform="matrix(-1 0 0 1 669.567 450.363)" stroke="url(#paint17_linear_618_870)" stroke-width="2"/>
</g>
<g filter="url(#filter9_d_618_870)">
<rect width="44.9062" height="65.1864" rx="4" transform="matrix(-0.889093 0.457727 0.457727 0.889093 631.589 453.26)" fill="url(#paint18_linear_618_870)"/>
<rect x="-0.431366" y="1.34682" width="42.9062" height="63.1864" rx="3" transform="matrix(-0.889093 0.457727 0.457727 0.889093 630.158 453.606)" stroke="url(#paint19_linear_618_870)" stroke-width="2"/>
</g>
<g filter="url(#filter10_d_618_870)">
<rect width="44.9062" height="65.1864" rx="4" transform="matrix(-0.514735 0.857349 0.857349 0.514735 592.502 473.54)" fill="url(#paint20_linear_618_870)"/>
<rect x="0.342615" y="1.37208" width="42.9062" height="63.1864" rx="3" transform="matrix(-0.514735 0.857349 0.857349 0.514735 591.845 473.912)" stroke="url(#paint21_linear_618_870)" stroke-width="2"/>
</g>
<path d="M558.243 395.721C542.215 377.559 534.739 362.597 527.525 315.317L510.432 364.2C518 373.46 535.7 394.651 545.957 405.335C556.214 416.019 590.832 430.087 606.858 435.785C595.996 428.484 571.065 410.25 558.243 395.721Z" fill="#986565"/>
<rect x="644.431" y="521.922" width="63.1364" height="41.8763" rx="12.6" transform="rotate(38.0477 644.431 521.922)" fill="#FC618C"/>
<path fill-rule="evenodd" clip-rule="evenodd" d="M642.378 552.246C641.71 552.193 641.306 552.623 641.451 553.251C641.764 554.604 642.348 556.979 643.04 559.057C643.755 561.208 644.643 563.237 645.14 564.319C645.367 564.814 645.872 565.239 646.416 565.408L653.83 567.716C654.503 567.926 655.06 567.691 655.208 567.189C655.579 565.928 656.494 563.789 658.402 563.938L658.402 563.938C660.311 564.088 662.737 566.491 663.989 567.879C664.488 568.432 665.235 568.769 665.801 568.657L672.037 567.422C672.494 567.331 672.736 566.964 672.637 566.479C672.422 565.42 671.972 563.425 671.256 561.275C670.565 559.196 669.558 556.788 668.964 555.413C668.688 554.775 667.969 554.257 667.301 554.204L654.84 553.225L654.84 553.225L642.378 552.246Z" fill="white"/>
<path fill-rule="evenodd" clip-rule="evenodd" d="M640.847 555.007C640.744 554.576 640.154 554.275 639.949 554.571C639.265 555.556 639.105 556.934 639.627 558.504C640.129 560.013 641.176 561.439 642.495 562.568C642.914 562.925 643.341 562.703 643.155 562.258C642.776 561.357 642.393 560.368 642.053 559.344C641.585 557.937 641.176 556.395 640.847 555.007Z" fill="white"/>
<path fill-rule="evenodd" clip-rule="evenodd" d="M670.8 557.361C670.614 556.923 671.03 556.701 671.448 557.046C672.842 558.194 673.952 559.672 674.474 561.241C674.976 562.751 674.847 564.084 674.227 565.06C674.031 565.37 673.428 565.067 673.321 564.628C673.104 563.739 672.832 562.759 672.491 561.735C672.024 560.328 671.401 558.77 670.8 557.361Z" fill="white"/>
<path d="M649.845 545.63C649.706 545.215 649.948 544.905 650.385 544.94L653.876 545.214C654.313 545.248 654.779 545.613 654.918 546.029L657.076 552.519L652.003 552.12L649.845 545.63Z" fill="white"/>
<circle cx="1.59017" cy="1.59017" r="1.59017" transform="matrix(0.996927 0.0783325 0.315604 0.948891 663.038 556.514)" fill="#FC618C"/>
<circle cx="1.59017" cy="1.59017" r="1.59017" transform="matrix(0.996927 0.0783325 0.315604 0.948891 661.373 560.792)" fill="#FC618C"/>
<rect width="2.27285" height="7.19736" rx="0.63" transform="matrix(0.996927 0.0783325 0.315604 0.948891 647.151 555.538)" fill="#FC618C"/>
<rect width="2.27285" height="7.19736" rx="0.63" transform="matrix(0.315604 0.948891 -0.996927 -0.0783326 652.65 558.245)" fill="#FC618C"/>
<path d="M461.514 576.291C450.254 541.029 460.203 478.859 496.039 474.766C530.296 470.853 544.532 533.984 544.592 548.544C544.651 563.105 555.697 623.141 562.662 651.53C574.87 701.292 569.498 698.722 574.615 725.088C578.709 746.18 570.549 742.531 574.615 756.461L524.892 749.847C514.069 723.992 504.201 697.284 496.59 669.443C487.076 634.642 472.775 611.553 461.514 576.291Z" fill="#A27272"/>
<path d="M543.278 523.302C536.368 485.461 510.012 468.39 487.867 471.778C439.874 479.115 447.877 572.695 474.761 620.551C465.742 596.796 492.946 586.175 514.014 582.756C535.082 579.337 551.368 588.741 553.982 602.109C553.084 588.609 548.918 554.195 543.278 523.302Z" fill="#FF819A"/>
<path d="M755.834 639.369C776.854 660.306 799.073 672.279 807.381 710.204L808.988 738.397C798.518 740.548 773.485 742.6 757.116 733.596C736.654 722.342 688.397 620.386 671.125 590.3L696.747 574.899C709.437 589.41 739.019 622.62 755.834 639.369Z" fill="#A27272"/>
<path d="M698.211 518.737C703.646 531.197 698.668 549.384 699.214 584.139C689.365 587.925 670.003 594.334 671.354 589.681C673.042 583.865 658.347 550.035 653.221 543.528C648.095 537.021 643.3 509.882 643.025 490.82C642.751 471.757 649.779 467.556 657.246 470.417C664.714 473.278 692.776 506.276 698.211 518.737Z" fill="#A27272"/>
<path d="M451.311 521.598C453.075 492.034 465.01 469.475 500.505 470.874C490.621 473.635 479.986 478.266 474.077 498.858C468.169 519.45 476.219 559.435 484.629 593.161C472.896 599.756 472.275 613.457 474.338 619.794C457.738 586.406 449.9 545.249 451.311 521.598Z" fill="url(#paint22_linear_618_870)"/>
<path d="M556.733 510.383C556.861 524.92 557.078 571.945 554.751 600.056C553.767 593.807 551.797 569.201 550.352 559.22C549.068 550.354 544.783 535.948 543.799 529.698L551.359 550.603L556.733 510.383Z" fill="url(#paint23_linear_618_870)"/>
<path d="M607.66 592.081C589.256 625.921 529.467 681.6 518.879 725.195C518.879 736.018 518.278 748.044 544.734 772.696C591.634 769.088 592.235 732.41 601.255 704.15C609.718 677.631 624.192 646.382 639.831 613.957L639.831 534.704C635.242 542.549 622.383 565.009 607.66 592.081Z" fill="#986565"/>
<path d="M638.046 480.037C630.534 484.008 606.014 522.842 602.278 536.887C599.195 548.478 610.485 585.096 609.177 589.305C607.869 593.513 611.207 600.762 612.118 607.3C620.391 609.437 629.074 617.487 634.927 616.963C636.977 616.78 636.624 618.605 640.94 612.153C643.238 607.782 650.152 565.739 654.552 558.13C658.951 550.52 659.552 520.777 656.666 500.257C653.779 479.737 645.559 476.066 638.046 480.037Z" fill="#986565"/>
<path d="M442.3 549.836C430.952 522.75 446.189 500.041 450.078 481.572C457.654 444.745 432.497 434.662 441.531 398.306C447.245 375.247 458.245 377.5 465.538 352.022C475.548 317.288 469.207 273.757 474.563 249.059C483.736 206.925 532.991 156.389 604.152 169.959C635.894 176.032 663.171 191.517 684.132 227.192C720.629 289.423 689.94 367.868 687.507 372.786C689.055 365.832 690.336 311.456 681.012 285.644C671.006 257.688 650.043 242.944 643.669 240.143C621.1 268.752 598.765 284.363 582.629 293.295C558.069 306.91 546.996 305.69 534.756 320.797C519.83 339.282 515.187 367.156 520.294 389.895C524.935 410.792 534.471 412.366 533.612 428.683C532.402 450.578 514.723 456.153 516.707 474.448C518.422 490.585 532.778 491.192 535.95 507.802C540.713 532.82 515.684 572.432 500.599 578.549C461.657 594.135 452.259 569.236 442.3 549.836Z" fill="url(#paint24_linear_618_870)"/>
<path d="M1531.82 539.652C1565.04 514.082 1590.17 523.201 1610.06 525.096C1627.68 526.775 1640.99 521.968 1659.19 535.311L1654.94 658.525H1533.64L1508.17 594.843L1531.82 539.652Z" fill="#F9AEC9"/>
<path d="M1511.2 865.244H1516.66V868.883L1513.02 868.277C1511.93 867.73 1511.64 866.895 1511.2 865.244Z" fill="#F9AEDC"/>
<path d="M1444.1 880.658C1524.73 864.748 1617.48 862.018 1621.03 938.61C1601.48 1035.87 1446.67 1021.03 1396.98 1015.44C1357.23 1010.97 1303.28 1002.65 1258.2 1009.17C1258.2 1009.17 1239.17 991.447 1246.85 955.753C1256.77 903.212 1383.46 892.623 1444.1 880.658Z" fill="url(#paint25_linear_618_870)"/>
<path d="M1469.95 1008.03C1413.09 996.416 1362.38 994.039 1337.19 990.295L1361.79 1011.41C1362.56 1011.51 1368.52 1012.23 1386.24 1014.29C1403.96 1016.36 1425.48 1018.69 1437 1018.69L1469.95 1008.03Z" fill="url(#paint26_linear_618_870)"/>
<path d="M1810.23 941.89C1735.13 911.833 1664.45 875.434 1633.62 942.928C1615.77 1035.32 1761.5 1066.7 1807.51 1075.52C1844.32 1082.57 1888.7 1087.34 1926.25 1105.7C1926.25 1105.7 1952.59 1096.31 1958.69 1062.26C1968.9 1012.53 1866.59 970.3 1810.23 941.89Z" fill="url(#paint27_linear_618_870)"/>
<path d="M1734.24 1046.23C1788.93 1051.48 1834.83 1063.31 1858.55 1066.89L1831.15 1079.57C1830.43 1079.45 1821.96 1077.67 1805.48 1074.64C1788.99 1071.61 1764.92 1063.87 1756.01 1063.41L1734.24 1046.23Z" fill="url(#paint28_linear_618_870)"/>
<path d="M1607.66 867.606C1592.07 866.637 1528.17 841.914 1516.45 857.363C1518.87 866.457 1515.84 864.637 1513.52 865.874C1462.15 873.363 1374.63 893.123 1329.1 902.24C1384.3 893.708 1419.82 997.868 1393.81 1015.27L1394.54 1017.12C1427.3 1021.54 1442.8 1020.4 1476.99 1021.5C1511.19 1022.6 1542.12 1013.82 1577.35 1000.88C1589.12 996.559 1627.04 995.034 1649.16 1009.42C1677.57 1027.91 1699.34 1047.48 1729.49 1056.6C1731.93 1057.34 1734.27 1058.05 1736.5 1058.75C1752.12 1063.59 1763.17 1067.39 1775.79 1070.86C1786.1 1073.15 1795.34 1074.75 1802.72 1076.4C1802.64 1075.39 1802.57 1074.41 1802.52 1073.46C1800.12 1066.6 1802.47 1056.29 1808.02 1045.09C1824.22 1012.41 1867.75 972.197 1900.36 988.362C1864.58 966.528 1797.86 934.384 1759.05 915.583C1755.37 913.936 1755.01 910.873 1751.77 909.518C1751.44 909.411 1738.75 898.1 1738.43 897.995C1728.76 894.874 1734.18 890.717 1726.9 884.807C1697.76 861.152 1672.39 891.421 1660.09 881.897C1647.79 872.372 1623.24 868.575 1607.66 867.606Z" fill="#252331"/>
<path d="M1607.66 867.606C1592.07 866.637 1528.17 841.914 1516.45 857.363C1518.87 866.457 1515.84 864.637 1513.52 865.874C1462.15 873.363 1374.63 893.123 1329.1 902.24C1384.3 893.708 1419.82 997.868 1393.81 1015.27L1394.54 1017.12C1427.3 1021.54 1442.8 1020.4 1476.99 1021.5C1511.19 1022.6 1542.12 1013.82 1577.35 1000.88C1589.12 996.559 1627.04 995.034 1649.16 1009.42C1677.57 1027.91 1699.34 1047.48 1729.49 1056.6C1731.93 1057.34 1734.27 1058.05 1736.5 1058.75C1752.12 1063.59 1763.17 1067.39 1775.79 1070.86C1786.1 1073.15 1795.34 1074.75 1802.72 1076.4C1802.64 1075.39 1802.57 1074.41 1802.52 1073.46C1800.12 1066.6 1802.47 1056.29 1808.02 1045.09C1824.22 1012.41 1867.75 972.197 1900.36 988.362C1864.58 966.528 1797.86 934.384 1759.05 915.583C1755.37 913.936 1755.01 910.873 1751.77 909.518C1751.44 909.411 1738.75 898.1 1738.43 897.995C1728.76 894.874 1734.18 890.717 1726.9 884.807C1697.76 861.152 1672.39 891.421 1660.09 881.897C1647.79 872.372 1623.24 868.575 1607.66 867.606Z" fill="url(#paint29_linear_618_870)" fill-opacity="0.2"/>
<path d="M1940.68 1040.34L1925.02 1105.41C1868.14 1118.16 1804.49 1126.79 1714.5 1120.54C1641.94 1115.5 1573.07 1113.91 1565.79 1104.81L1560.93 1051.16C1589.93 1050.22 1663.96 1063.73 1710.23 1057.24C1778.6 1047.65 1839.12 989.23 1940.68 1040.34Z" fill="url(#paint30_linear_618_870)"/>
<path d="M1477.62 1128.53C1511.96 1113.13 1545.17 1092.68 1571.85 1109.06C1569.45 1087.9 1571.19 1075.49 1581.45 1052.13C1560.29 1024.29 1555.04 997.641 1538.69 995.94C1518.26 993.813 1499.19 1005.04 1490.62 1017.67C1479.48 1034.1 1484.66 1054.77 1463.12 1059.42C1450.24 1062.2 1415.57 1078.26 1417.4 1128.8C1417.99 1145.17 1448.76 1141.47 1477.62 1128.53Z" fill="url(#paint31_linear_618_870)"/>
<path d="M1267.21 937.065L1256.05 1007.25C1306.63 1042.93 1365.53 1077.33 1456.32 1107.86C1529.53 1132.48 1586.14 1141.9 1608.5 1155.27L1624.74 1102.52C1596.69 1089.79 1529.03 1072.75 1486.3 1047.53C1423.16 1010.27 1387.62 928.327 1267.21 937.065Z" fill="url(#paint32_linear_618_870)"/>
<path d="M1267.21 937.065L1256.05 1007.25C1306.63 1042.93 1365.53 1077.33 1456.32 1107.86C1529.53 1132.48 1586.14 1141.9 1608.5 1155.27L1624.74 1102.52C1596.69 1089.79 1529.03 1072.75 1486.3 1047.53C1423.16 1010.27 1387.62 928.327 1267.21 937.065Z" fill="url(#paint33_linear_618_870)" fill-opacity="0.2"/>
<path d="M1630.73 1224.48C1642.8 1188.83 1626.93 1156.39 1604.87 1157.27L1617.03 1098.91C1651.86 1095.74 1675.06 1081.63 1687.35 1092.54C1702.71 1106.19 1707.29 1127.84 1703.76 1142.68C1699.15 1162 1691.06 1171.44 1702.17 1190.47C1708.8 1201.85 1698.41 1231.97 1638.64 1266.84C1625.26 1274.65 1618.65 1260.13 1630.73 1224.48Z" fill="url(#paint34_linear_618_870)"/>
<path d="M1452.2 370.539C1451.16 347.281 1457.58 324.298 1470.52 304.945C1483.46 285.593 1502.25 270.884 1524.15 262.967C1546.04 255.05 1569.89 254.339 1592.22 260.938C1614.54 267.537 1634.18 281.101 1648.25 299.648C1662.32 318.195 1670.1 340.755 1670.44 364.034C1670.78 387.313 1663.67 410.092 1650.15 429.045C1636.63 447.998 1617.41 462.132 1595.28 469.384C1573.16 476.637 1549.3 476.627 1527.18 469.357L1561.27 365.639L1452.2 370.539Z" fill="#FACDC7"/>
<path d="M1705.13 555.282C1683.16 548.993 1658.08 550.101 1619.05 510.719L1552.44 515.512C1544.97 522.967 1547.55 532.876 1527.45 546.878C1502.33 564.381 1497.8 549.65 1479.4 560.346C1461.01 571.042 1454.66 590.166 1458.25 618.851C1461.12 641.799 1481.85 633.548 1490.97 640.841L1591.13 603.833L1693.46 672.455C1704.82 663.865 1731.75 649.356 1734.26 631.853C1737.4 609.974 1739.52 565.13 1705.13 555.282Z" fill="#FACDC7"/>
<path d="M1622.61 510.624C1606.49 470.978 1608.21 471.104 1606.34 425.585L1522.99 466.181C1532.51 489.64 1550.75 540.649 1547.48 557.008C1544.21 573.367 1545.09 577.869 1545.94 578.075L1655.15 539.589C1644.22 531.646 1627.32 522.204 1622.61 510.624Z" fill="url(#paint35_linear_618_870)"/>
<path d="M1469.18 465.387C1458.69 436.655 1472.73 436.653 1452.06 369.529L1648.25 408.993C1646.08 419.787 1644.38 428.256 1639.17 436.739C1631.18 449.758 1606.72 481.307 1589.71 492.317C1576.09 501.126 1545.57 515.222 1528.47 518.073C1509.56 510.723 1476.68 485.913 1469.18 465.387Z" fill="#FACDC7"/>
<path d="M1728.72 695.096C1697.51 609.812 1667.67 549.958 1576.81 539.48C1532.34 580.954 1487.89 680.359 1502.12 748.82C1516.34 817.28 1541.6 887.764 1664.44 879.8C1768.62 873.045 1764.16 791.968 1728.72 695.096Z" fill="#FACDC7"/>
<path d="M1399.05 652.105C1422.48 620.9 1503.45 528.671 1537.68 562.484L1524.34 636.408C1509.83 643.134 1476.68 662.501 1460.18 686.155C1439.54 715.724 1407.75 738.303 1360.88 783.056L1322.03 759.691C1339.9 734.231 1380.31 677.069 1399.05 652.105Z" fill="url(#paint36_linear_618_870)"/>
<path d="M1607.13 331.864L1455.34 369.45L1544.36 452.807L1607.13 331.864Z" fill="#FACDC7"/>
<path d="M1473.44 558.12C1480.88 552.425 1502.67 550.915 1524.55 552.899C1519.16 570.433 1538.51 606.494 1525.59 634.211C1522 641.894 1512.18 645.089 1499.89 653.304C1491.08 668.465 1461 692.606 1451.33 699.693C1467.97 679.257 1414.99 640.107 1392.39 659.727C1407.79 637.478 1446.06 579.083 1473.44 558.12Z" fill="#FFBDE6"/>
<path d="M1499.07 552.293C1516.06 554.112 1530.89 540.065 1535.28 537.055C1518.35 554.938 1523.41 612.698 1556.84 612.698C1609.61 612.698 1665.22 542.864 1657.26 534.05C1656.83 533.8 1656.39 533.544 1655.95 533.281C1656.5 533.428 1656.93 533.687 1657.26 534.05C1674.2 543.783 1687.9 543.397 1695.61 546.097C1682.7 546.097 1679.44 556.916 1664.76 578.508C1649.72 600.628 1654.52 634.339 1654.32 655.643L1703.24 684.917C1707.09 665.401 1724.82 595.829 1732.16 618.377C1739.51 640.924 1750.17 705.191 1755.62 754.551C1760.9 802.293 1790.38 923.655 1792.31 931.554C1792.38 931.703 1792.41 931.839 1792.4 931.959C1792.4 931.959 1792.37 931.822 1792.31 931.554C1790.01 926.657 1748.41 906.569 1713.31 894.282C1690.99 886.471 1624.4 903.806 1581.95 876.161C1555.87 859.179 1514.02 865.244 1512.2 865.851C1499.56 852.199 1522.33 842.572 1513.29 801.692C1501.98 750.593 1487.14 684.605 1484.48 652.498C1482.35 626.813 1483.6 594.12 1499.07 552.293Z" fill="#F9AEDC"/>
<g filter="url(#filter11_d_618_870)">
<rect width="43.1887" height="62.6933" rx="4" transform="matrix(0.830055 -0.694385 0.531606 0.739076 1362.76 585.772)" fill="url(#paint37_linear_618_870)"/>
<rect x="1.36166" y="0.0446904" width="41.1887" height="60.6933" rx="3" transform="matrix(0.830055 -0.694385 0.531606 0.739076 1362.96 586.73)" stroke="url(#paint38_linear_618_870)" stroke-width="2"/>
</g>
<g filter="url(#filter12_d_618_870)">
<rect width="43.1887" height="62.6933" rx="4" transform="matrix(0.957984 -0.415625 0.232083 0.925019 1389.3 566.196)" fill="url(#paint39_linear_618_870)"/>
<rect x="1.19007" y="0.509394" width="41.1887" height="60.6933" rx="3" transform="matrix(0.957984 -0.415625 0.232083 0.925019 1389.23 566.728)" stroke="url(#paint40_linear_618_870)" stroke-width="2"/>
</g>
<g filter="url(#filter13_d_618_870)">
<rect width="43.1887" height="62.6933" rx="4" transform="matrix(0.985556 -0.16935 -0.0165799 0.999863 1413.93 554.539)" fill="url(#paint41_linear_618_870)"/>
<rect x="0.968976" y="0.830513" width="41.1887" height="60.6933" rx="3" transform="matrix(0.985556 -0.16935 -0.0165799 0.999863 1413.96 554.703)" stroke="url(#paint42_linear_618_870)" stroke-width="2"/>
</g>
<g filter="url(#filter14_d_618_870)">
<rect width="43.1887" height="62.6933" rx="4" transform="matrix(0.868662 0.307097 -0.465857 0.966486 1451.78 550.812)" fill="url(#paint43_linear_618_870)"/>
<rect x="0.402805" y="1.27358" width="41.1887" height="60.6933" rx="3" transform="matrix(0.868662 0.307097 -0.465857 0.966486 1452.43 550.731)" stroke="url(#paint44_linear_618_870)" stroke-width="2"/>
</g>
<g filter="url(#filter15_d_618_870)">
<rect width="43.1887" height="62.6933" rx="4" transform="matrix(0.493085 0.770061 -0.8535 0.659856 1488.5 563.948)" fill="url(#paint45_linear_618_870)"/>
<rect x="-0.360415" y="1.42992" width="41.1887" height="60.6933" rx="3" transform="matrix(0.493085 0.770061 -0.8535 0.659856 1489.54 564.712)" stroke="url(#paint46_linear_618_870)" stroke-width="2"/>
</g>
<path d="M1383.99 753.169C1370.85 779.345 1347.18 798.157 1330.25 789.357C1309.39 774.217 1322.39 753.922 1338.16 731.253C1355.16 706.805 1364.39 705.07 1384.22 677.361L1417.59 672.828C1412.95 689.718 1397.13 726.992 1383.99 753.169Z" fill="url(#paint47_linear_618_870)"/>
<path d="M1395.55 616.035C1389.95 628.04 1379.81 657.769 1384.01 680.652L1411.76 691.298C1413.7 682.489 1433.67 667.223 1440.88 659.345C1449.9 649.496 1462.7 643.076 1458.84 623.535C1454.98 603.994 1444.39 588.507 1438.4 590.56C1432.41 592.613 1413.57 608.529 1406.32 618.702C1400.53 626.841 1397.9 638.371 1397.3 643.118L1395.55 616.035Z" fill="url(#paint48_linear_618_870)"/>
<path d="M1697.07 743.573C1692.55 711.46 1684.52 689.881 1654.42 632.174L1735.39 588.682C1737.26 602.515 1746.45 668.624 1751.39 703.535C1757 743.16 1785.78 850.435 1793.01 932.565C1761.47 918.009 1739.64 904.666 1711.74 893.749C1710.24 858.123 1701.58 775.685 1697.07 743.573Z" fill="url(#paint49_linear_618_870)"/>
<path d="M1702.35 657.156C1728.6 627.427 1742.99 578.167 1709.61 558.693C1677.7 540.076 1639.17 579.844 1632.83 594.1C1626.49 608.356 1589.75 662.478 1570.68 687.319C1537.23 730.861 1543.61 730.659 1527.22 754.312C1514.1 773.235 1515.41 776.226 1505.41 788.135L1562.52 800.375C1589.58 776.394 1608.28 757.417 1627.75 733.393C1652.1 703.363 1676.09 686.886 1702.35 657.156Z" fill="#FACDC7"/>
<path d="M1446.78 611.624C1456.06 621.068 1475.56 645.696 1479.25 668.666L1456.66 687.977C1451.89 680.323 1427.96 672.612 1418.53 667.598C1406.74 661.33 1392.53 659.559 1389.64 639.851C1386.74 620.144 1391.54 602.01 1397.87 601.941C1404.21 601.872 1427.29 610.573 1437.52 617.74C1445.7 623.473 1452.03 633.46 1454.18 637.736L1446.78 611.624Z" fill="#FACDC7"/>
<path d="M1708.71 653.093C1751.27 612.123 1740.56 576.4 1710.47 549.91C1705.11 544.87 1689.67 543.388 1660.3 554.643C1630.93 565.898 1603 622.1 1575.16 668.821C1588.69 647.471 1658.4 698.172 1643.38 720.964C1662.63 703.271 1666.14 694.062 1708.71 653.093Z" fill="#FFBDE6"/>
<path d="M1522.93 714.199C1540.5 731.91 1558.76 739.599 1566.65 778.796L1568.88 791.839C1551.74 819.417 1531.61 813.117 1518.16 807.253C1501.34 799.923 1468.07 709.709 1453.21 681.166L1473.34 658.317C1484.01 671.041 1508.87 700.031 1522.93 714.199Z" fill="#FACDC7"/>
<path d="M1590.61 479.957C1576.5 494.071 1560.93 503.402 1527.87 518.106C1558.55 510.451 1572.13 502.468 1587.25 493.396C1602.37 484.323 1603.42 482.68 1621.86 466.292C1637.48 452.411 1655.26 429.135 1660.52 418.495L1621.86 412.752C1616.15 430.449 1601.9 468.666 1590.61 479.957Z" fill="url(#paint50_linear_618_870)"/>
<path d="M1632.59 438.681C1627.65 456.65 1621.92 466.065 1611.99 474.149C1645.43 446.917 1652.23 437.813 1656.86 427.257C1674.53 394.824 1683.69 363.961 1674.53 326.952C1669.44 306.469 1649.36 293.756 1642.91 292.459C1635.81 282.003 1633.79 269.839 1611.06 258.467C1571.59 238.689 1510.53 246.343 1475.16 270.645C1446.81 290.027 1441.66 302.916 1442.83 328.828C1443.32 339.686 1447.06 349.884 1450.52 355.27C1459.29 346.719 1471.41 332.044 1492.73 328.948C1536.07 322.663 1591.56 341.667 1592.71 368.742C1593.03 377.363 1591.93 389.971 1592.94 403.289C1594.75 426.912 1611.84 422.846 1620.11 422.421C1626.25 424.125 1635.8 426.988 1632.59 438.681Z" fill="#482F38"/>
<path d="M1654.15 407.068C1660.67 380.81 1660.2 330.298 1642.77 293.314C1652.01 298.597 1663.9 306.259 1676.05 327.92C1688.2 349.582 1671.56 401.093 1659.14 426.717C1649.21 447.216 1618.67 474.231 1603.26 482.772C1618.06 462.695 1648.98 427.906 1654.15 407.068Z" fill="url(#paint51_linear_618_870)"/>
<path d="M1643.6 436.159C1646.09 422.313 1633.98 416.451 1618.09 422.811L1600.67 463.652L1600.68 463.651C1603.76 463.593 1610.09 463.473 1621.32 459.845C1631.83 456.449 1641.12 450.006 1643.6 436.159Z" fill="url(#paint52_linear_618_870)"/>
<path d="M1714.92 624.681C1730.14 603.717 1731.65 581.671 1720.16 559.556C1731.25 573.193 1739.38 582.561 1736.33 606.052C1731.48 643.396 1680.15 686.899 1643.32 720.935C1647.8 714.675 1643.57 705.381 1640.62 699.536C1666.19 677.193 1699.7 645.645 1714.92 624.681Z" fill="url(#paint53_linear_618_870)"/>
<rect width="54.036" height="54.036" rx="12.6" transform="matrix(-0.798499 0.866811 0.574927 0.529618 1542.8 626.905)" fill="#FF82AF"/>
<path fill-rule="evenodd" clip-rule="evenodd" d="M1549.8 656.752C1550.45 656.592 1550.92 656.951 1550.88 657.594C1550.79 658.99 1550.59 661.456 1550.24 663.642C1549.88 665.905 1549.32 668.074 1549.01 669.229C1548.86 669.755 1548.43 670.256 1547.92 670.511L1540.9 674.026C1540.27 674.341 1539.69 674.2 1539.46 673.728C1538.88 672.534 1537.62 670.545 1535.75 671.005L1535.75 671.006C1533.87 671.467 1531.84 674.264 1530.82 675.849C1530.42 676.476 1529.74 676.929 1529.16 676.91L1522.73 676.696C1522.27 676.681 1521.97 676.357 1521.99 675.863C1522.03 674.775 1522.15 672.712 1522.52 670.45C1522.87 668.263 1523.48 665.695 1523.85 664.232C1524.01 663.557 1524.64 662.93 1525.29 662.77L1537.54 659.762L1537.54 659.761L1549.8 656.752Z" fill="white"/>
<path fill-rule="evenodd" clip-rule="evenodd" d="M1551.76 659.243C1551.79 658.801 1552.33 658.408 1552.58 658.666C1553.42 659.535 1553.81 660.883 1553.55 662.535C1553.29 664.123 1552.48 665.717 1551.34 667.058C1550.99 667.478 1550.53 667.328 1550.64 666.858C1550.88 665.896 1551.1 664.845 1551.27 663.766C1551.51 662.286 1551.66 660.68 1551.76 659.243Z" fill="white"/>
<path fill-rule="evenodd" clip-rule="evenodd" d="M1522.33 666.469C1522.45 666.007 1522 665.855 1521.64 666.262C1520.44 667.634 1519.57 669.29 1519.31 670.942C1519.05 672.531 1519.4 673.839 1520.18 674.71C1520.43 674.982 1520.97 674.586 1521.01 674.136C1521.08 673.213 1521.19 672.189 1521.36 671.11C1521.6 669.629 1521.97 667.972 1522.33 666.469Z" fill="white"/>
<path d="M1541.28 651.38C1541.35 650.948 1541.06 650.682 1540.64 650.786L1537.19 651.632C1536.77 651.736 1536.37 652.172 1536.3 652.604L1535.2 659.423L1540.19 658.199L1541.28 651.38Z" fill="white"/>
<circle cx="1.60395" cy="1.60395" r="1.60395" transform="matrix(-0.971159 0.238432 -0.158089 0.987425 1529.92 664.37)" fill="#FF82AF"/>
<circle cx="1.60395" cy="1.60395" r="1.60395" transform="matrix(-0.971159 0.238432 -0.158089 0.987425 1532.28 668.357)" fill="#FF82AF"/>
<rect width="2.29255" height="7.25975" rx="0.63" transform="matrix(-0.971159 0.238432 -0.158089 0.987425 1545.58 660.81)" fill="#FF82AF"/>
<rect width="2.29255" height="7.25975" rx="0.63" transform="matrix(-0.158089 0.987425 0.971159 -0.238432 1540.54 664.401)" fill="#FF82AF"/>
<g filter="url(#filter16_d_618_870)">
<rect width="78.2031" height="113.521" rx="4" transform="matrix(1.10136 -0.212813 0.548618 0.564631 1060.82 1136.95)" fill="url(#paint54_linear_618_870)"/>
<rect x="3.29995" y="0.703637" width="74.2031" height="109.521" rx="2" transform="matrix(1.10136 -0.212813 0.548618 0.564631 1060.1 1137.96)" stroke="url(#paint55_linear_618_870)" stroke-width="4"/>
</g>
<path d="M1123.95 1149.11C1123.07 1148.84 1121.98 1149.05 1121.84 1149.52C1119.91 1156.01 1111.77 1160.39 1117.13 1165.81C1119.39 1168.09 1126.27 1169.46 1130.89 1168.56C1132.6 1168.22 1134.31 1167.89 1135.56 1167.09C1136.18 1166.7 1137.41 1166.72 1137.72 1167.24C1138.24 1168.11 1138.66 1169.46 1138.19 1171.33C1138.05 1171.87 1139.22 1172.37 1140.23 1172.17L1149.29 1170.4C1150.26 1170.21 1150.27 1169.53 1149.35 1169.2C1146.42 1168.16 1144.46 1167.19 1143.22 1166.47C1142.42 1166 1143.24 1165.48 1144.42 1165.5C1146.3 1165.54 1147.84 1165.23 1149.39 1164.93C1154.01 1164.03 1156.38 1160.84 1154.12 1158.56C1148.75 1153.14 1136 1152.86 1123.95 1149.11Z" fill="url(#paint56_linear_618_870)"/>
<g filter="url(#filter17_d_618_870)">
<rect width="78.2031" height="113.521" rx="4" transform="matrix(-1.10494 0.366496 -0.716814 -0.430705 1203.46 1146.34)" fill="url(#paint57_linear_618_870)"/>
<rect x="-3.64352" y="-0.128418" width="74.2031" height="109.521" rx="2" transform="matrix(-1.10494 0.366496 -0.716814 -0.430705 1195.7 1147.49)" stroke="url(#paint58_linear_618_870)" stroke-width="4"/>
</g>
<path d="M1105.05 1127.37C1104.06 1127.26 1102.96 1127.63 1102.93 1128.08C1102.52 1134.31 1095.04 1139.58 1102.03 1143.7C1104.96 1145.44 1112.54 1145.62 1117.17 1144.07C1118.88 1143.5 1120.59 1142.93 1121.71 1142.01C1122.27 1141.55 1123.57 1141.37 1124.02 1141.8C1124.78 1142.52 1125.57 1143.69 1125.53 1145.47C1125.52 1145.98 1126.88 1146.26 1127.88 1145.92L1136.97 1142.88C1137.94 1142.56 1137.79 1141.94 1136.73 1141.78C1133.39 1141.28 1131.1 1140.71 1129.61 1140.24C1128.65 1139.94 1129.39 1139.33 1130.63 1139.17C1132.62 1138.91 1134.17 1138.39 1135.72 1137.87C1140.35 1136.32 1142.05 1133.04 1139.11 1131.31C1132.13 1127.19 1118.65 1128.92 1105.05 1127.37Z" fill="url(#paint59_linear_618_870)"/>
<g filter="url(#filter18_d_618_870)">
<rect width="78.2031" height="113.521" rx="4" transform="matrix(-0.821474 -0.326572 1.10375 -0.377329 1127.73 1176.41)" fill="url(#paint60_linear_618_870)"/>
<rect x="0.564549" y="-1.4078" width="74.2031" height="109.521" rx="2" transform="matrix(-0.821474 -0.326572 1.10375 -0.377329 1130.31 1174.66)" stroke="url(#paint61_linear_618_870)" stroke-width="4"/>
</g>
<path d="M1135.6 1149.9C1135.25 1150.3 1136.08 1150.62 1137.18 1150.52C1152.41 1149.13 1164.81 1150.65 1175.37 1146.99C1179.82 1145.46 1180.79 1142.55 1177.31 1141.18C1176.03 1140.68 1174.74 1140.17 1172.57 1139.98C1171.48 1139.88 1171.15 1139.44 1172.23 1139.16C1174.03 1138.7 1176.95 1138.11 1181.3 1137.68C1182.56 1137.56 1183.33 1136.98 1182.57 1136.68L1175.76 1134C1175.03 1133.71 1173.49 1133.93 1173.04 1134.37C1171.6 1135.75 1170.03 1136.76 1168.79 1137.43C1167.98 1137.87 1166.54 1137.74 1166.22 1137.32C1165.73 1136.63 1164.56 1136.17 1163.4 1135.72C1159.93 1134.35 1152 1134.52 1147.56 1136.06C1136.99 1139.72 1140.31 1144.38 1135.6 1149.9Z" fill="url(#paint62_linear_618_870)"/>
<g filter="url(#filter19_d_618_870)">
<rect width="78.2031" height="113.521" rx="4" transform="matrix(0.8215 0.326507 -1.10372 0.377416 1156.31 1106.53)" fill="url(#paint63_linear_618_870)"/>
<rect x="-0.564438" y="1.40785" width="74.2031" height="109.521" rx="2" transform="matrix(0.8215 0.326507 -1.10372 0.377416 1157.77 1107.59)" stroke="url(#paint64_linear_618_870)" stroke-width="4"/>
</g>
<path d="M1148.45 1133.05C1148.79 1132.64 1147.97 1132.32 1146.86 1132.42C1131.63 1133.81 1119.23 1132.29 1108.67 1135.95C1104.22 1137.49 1103.26 1140.4 1106.73 1141.76C1108.02 1142.27 1109.3 1142.77 1111.48 1142.97C1112.56 1143.06 1112.9 1143.51 1111.82 1143.79C1110.02 1144.25 1107.09 1144.84 1102.75 1145.26C1101.48 1145.39 1100.71 1145.97 1101.47 1146.27L1108.29 1148.94C1109.01 1149.23 1110.55 1149.02 1111.01 1148.58C1112.45 1147.2 1114.01 1146.19 1115.26 1145.51C1116.06 1145.07 1117.51 1145.2 1117.82 1145.63C1118.32 1146.32 1119.48 1146.77 1120.64 1147.23C1124.12 1148.6 1132.04 1148.42 1136.49 1146.88C1147.05 1143.22 1143.73 1138.56 1148.45 1133.05Z" fill="url(#paint65_linear_618_870)"/>
<g filter="url(#filter20_d_618_870)">
<rect width="78.2031" height="113.521" rx="4" transform="matrix(0.8215 0.326507 -1.10372 0.377416 1145.32 1129.03)" fill="url(#paint66_linear_618_870)"/>
<rect x="-0.564438" y="1.40785" width="74.2031" height="109.521" rx="2" transform="matrix(0.8215 0.326507 -1.10372 0.377416 1146.77 1130.09)" stroke="url(#paint67_linear_618_870)" stroke-width="4"/>
</g>
<path d="M1137.45 1155.54C1137.79 1155.14 1136.97 1154.82 1135.86 1154.92C1120.63 1156.31 1108.24 1154.79 1097.67 1158.45C1093.23 1159.99 1092.26 1162.89 1095.74 1164.26C1097.02 1164.77 1098.3 1165.27 1100.48 1165.46C1101.56 1165.56 1101.9 1166.01 1100.82 1166.28C1099.02 1166.75 1096.1 1167.34 1091.75 1167.76C1090.48 1167.89 1089.72 1168.47 1090.47 1168.76L1097.29 1171.44C1098.02 1171.73 1099.56 1171.52 1100.01 1171.08C1101.45 1169.7 1103.01 1168.69 1104.26 1168.01C1105.07 1167.57 1106.51 1167.7 1106.82 1168.13C1107.32 1168.81 1108.48 1169.27 1109.64 1169.73C1113.12 1171.09 1121.04 1170.92 1125.49 1169.38C1136.05 1165.72 1132.73 1161.06 1137.45 1155.54Z" fill="url(#paint68_linear_618_870)"/>
<g filter="url(#filter21_d_618_870)">
<rect width="78.1871" height="113.727" rx="4" transform="matrix(1.10395 -0.233067 0.667514 0.47366 1077.77 1131.94)" fill="url(#paint69_linear_618_870)"/>
<rect x="3.54294" y="0.481187" width="74.1871" height="109.727" rx="2" transform="matrix(1.10395 -0.233067 0.667514 0.47366 1077.08 1133.02)" stroke="url(#paint70_linear_618_870)" stroke-width="4"/>
</g>
<path d="M1145.98 1137.68C1151.27 1136.65 1158.46 1137.74 1161.31 1139.9C1162.28 1140.67 1162.77 1141.52 1162.72 1142.35C1162.67 1143.18 1162.08 1143.98 1161.02 1144.65C1162.68 1143.72 1166.04 1143.07 1166.04 1143.07C1166.04 1143.07 1166.04 1143.07 1166.04 1143.07C1171.8 1141.95 1178.73 1142.84 1181.96 1145.3C1185.2 1147.77 1182.79 1150.33 1177.03 1151.44C1177.03 1151.44 1177.03 1151.44 1177.03 1151.44C1177.03 1151.44 1174.35 1151.96 1169.68 1152.02C1168.7 1152.03 1168.12 1152.41 1168.71 1152.75C1169.82 1153.4 1172.02 1154.41 1176.1 1155.44C1177.16 1155.71 1177.24 1156.35 1176.19 1156.55L1167.51 1158.23C1166.46 1158.43 1165.17 1158.03 1165.24 1157.54C1165.51 1155.67 1164.71 1154.39 1164 1153.66C1163.63 1153.27 1162.51 1153.23 1161.9 1153.52C1158.99 1154.93 1156.31 1155.45 1156.31 1155.45C1156.31 1155.45 1156.31 1155.45 1156.31 1155.45C1150.56 1156.56 1143.75 1155.78 1140.52 1153.31C1137.28 1150.85 1139.56 1148.18 1145.32 1147.07C1145.32 1147.07 1145.32 1147.07 1145.32 1147.07C1145.32 1147.07 1148.68 1146.42 1151.63 1146.47C1150.72 1146.44 1145.04 1146.22 1141.51 1143.73C1138.66 1141.56 1140.68 1138.7 1145.98 1137.68Z" fill="url(#paint71_linear_618_870)"/>
<path d="M350.008 727.228C349.676 728.908 348.009 729.97 346.347 729.56L339.363 727.84C303.773 719.145 280.256 713.371 268.78 695.358C259.375 680.595 262.083 662.681 274.867 654.537C281.003 650.628 288.708 649.646 296.033 651.393C297.985 651.859 300.025 650.559 300.428 648.593C301.94 641.217 306.086 634.648 312.222 630.739C325.006 622.595 342.386 627.711 351.791 642.475C363.267 660.487 358.56 684.241 351.4 720.172L350.008 727.228Z" fill="url(#paint72_linear_618_870)"/>
<path d="M846.071 325.197C850.745 320.329 858.799 321.392 862.049 327.307L893.898 385.265C896.004 389.097 895.376 393.852 892.349 397.006L846.55 444.715C841.877 449.584 833.822 448.52 830.572 442.606L798.723 384.647C796.618 380.815 797.246 376.06 800.273 372.906L846.071 325.197Z" fill="url(#paint73_linear_618_870)"/>
<defs>
<filter id="filter0_d_618_870" x="1626.75" y="419.358" width="417.601" height="448.599" filterUnits="userSpaceOnUse" color-interpolation-filters="sRGB">
<feFlood flood-opacity="0" result="BackgroundImageFix"/>
<feColorMatrix in="SourceAlpha" type="matrix" values="0 0 0 0 0 0 0 0 0 0 0 0 0 0 0 0 0 0 127 0" result="hardAlpha"/>
<feOffset dy="6"/>
<feComposite in2="hardAlpha" operator="out"/>
<feColorMatrix type="matrix" values="0 0 0 0 0.904167 0 0 0 0 0.286319 0 0 0 0 0.843485 0 0 0 1 0"/>
<feBlend mode="normal" in2="BackgroundImageFix" result="effect1_dropShadow_618_870"/>
<feBlend mode="normal" in="SourceGraphic" in2="effect1_dropShadow_618_870" result="shape"/>
</filter>
<filter id="filter1_f_618_870" x="1190.15" y="181.695" width="391.905" height="467.111" filterUnits="userSpaceOnUse" color-interpolation-filters="sRGB">
<feFlood flood-opacity="0" result="BackgroundImageFix"/>
<feBlend mode="normal" in="SourceGraphic" in2="BackgroundImageFix" result="shape"/>
<feGaussianBlur stdDeviation="15" result="effect1_foregroundBlur_618_870"/>
</filter>
<filter id="filter2_d_618_870" x="1196.42" y="189.146" width="364.232" height="439.438" filterUnits="userSpaceOnUse" color-interpolation-filters="sRGB">
<feFlood flood-opacity="0" result="BackgroundImageFix"/>
<feColorMatrix in="SourceAlpha" type="matrix" values="0 0 0 0 0 0 0 0 0 0 0 0 0 0 0 0 0 0 127 0" result="hardAlpha"/>
<feOffset dx="-5" dy="5"/>
<feComposite in2="hardAlpha" operator="out"/>
<feColorMatrix type="matrix" values="0 0 0 0 0.9 0 0 0 0 0.33 0 0 0 0 0.844018 0 0 0 1 0"/>
<feBlend mode="normal" in2="BackgroundImageFix" result="effect1_dropShadow_618_870"/>
<feBlend mode="normal" in="SourceGraphic" in2="effect1_dropShadow_618_870" result="shape"/>
</filter>
<filter id="filter3_d_618_870" x="693.561" y="182.661" width="309.213" height="415.453" filterUnits="userSpaceOnUse" color-interpolation-filters="sRGB">
<feFlood flood-opacity="0" result="BackgroundImageFix"/>
<feColorMatrix in="SourceAlpha" type="matrix" values="0 0 0 0 0 0 0 0 0 0 0 0 0 0 0 0 0 0 127 0" result="hardAlpha"/>
<feOffset dx="5" dy="6"/>
<feComposite in2="hardAlpha" operator="out"/>
<feColorMatrix type="matrix" values="0 0 0 0 0.904167 0 0 0 0 0.286319 0 0 0 0 0.843485 0 0 0 1 0"/>
<feBlend mode="normal" in2="BackgroundImageFix" result="effect1_dropShadow_618_870"/>
<feBlend mode="normal" in="SourceGraphic" in2="effect1_dropShadow_618_870" result="shape"/>
</filter>
<filter id="filter4_f_618_870" x="114.303" y="455.524" width="428.395" height="465.826" filterUnits="userSpaceOnUse" color-interpolation-filters="sRGB">
<feFlood flood-opacity="0" result="BackgroundImageFix"/>
<feBlend mode="normal" in="SourceGraphic" in2="BackgroundImageFix" result="shape"/>
<feGaussianBlur stdDeviation="15" result="effect1_foregroundBlur_618_870"/>
</filter>
<filter id="filter5_d_618_870" x="110.163" y="464.965" width="411.452" height="448.884" filterUnits="userSpaceOnUse" color-interpolation-filters="sRGB">
<feFlood flood-opacity="0" result="BackgroundImageFix"/>
<feColorMatrix in="SourceAlpha" type="matrix" values="0 0 0 0 0 0 0 0 0 0 0 0 0 0 0 0 0 0 127 0" result="hardAlpha"/>
<feOffset dx="-5" dy="5"/>
<feComposite in2="hardAlpha" operator="out"/>
<feColorMatrix type="matrix" values="0 0 0 0 0.9 0 0 0 0 0.33 0 0 0 0 0.844018 0 0 0 1 0"/>
<feBlend mode="normal" in2="BackgroundImageFix" result="effect1_dropShadow_618_870"/>
<feBlend mode="normal" in="SourceGraphic" in2="effect1_dropShadow_618_870" result="shape"/>
</filter>
<filter id="filter6_d_618_870" x="654.584" y="448.742" width="70.3877" height="77.0563" filterUnits="userSpaceOnUse" color-interpolation-filters="sRGB">
<feFlood flood-opacity="0" result="BackgroundImageFix"/>
<feColorMatrix in="SourceAlpha" type="matrix" values="0 0 0 0 0 0 0 0 0 0 0 0 0 0 0 0 0 0 127 0" result="hardAlpha"/>
<feOffset dy="-1"/>
<feComposite in2="hardAlpha" operator="out"/>
<feColorMatrix type="matrix" values="0 0 0 0 0.713726 0 0 0 0 0.27451 0 0 0 0 0.670588 0 0 0 1 0"/>
<feBlend mode="normal" in2="BackgroundImageFix" result="effect1_dropShadow_618_870"/>
<feBlend mode="normal" in="SourceGraphic" in2="effect1_dropShadow_618_870" result="shape"/>
</filter>
<filter id="filter7_d_618_870" x="637.927" y="446.678" width="58.6167" height="73.6381" filterUnits="userSpaceOnUse" color-interpolation-filters="sRGB">
<feFlood flood-opacity="0" result="BackgroundImageFix"/>
<feColorMatrix in="SourceAlpha" type="matrix" values="0 0 0 0 0 0 0 0 0 0 0 0 0 0 0 0 0 0 127 0" result="hardAlpha"/>
<feOffset dx="-0.5" dy="-1"/>
<feComposite in2="hardAlpha" operator="out"/>
<feColorMatrix type="matrix" values="0 0 0 0 0.713726 0 0 0 0 0.27451 0 0 0 0 0.670588 0 0 0 1 0"/>
<feBlend mode="normal" in2="BackgroundImageFix" result="effect1_dropShadow_618_870"/>
<feBlend mode="normal" in="SourceGraphic" in2="effect1_dropShadow_618_870" result="shape"/>
</filter>
<filter id="filter8_d_618_870" x="625.661" y="449.863" width="45.9062" height="65.6864" filterUnits="userSpaceOnUse" color-interpolation-filters="sRGB">
<feFlood flood-opacity="0" result="BackgroundImageFix"/>
<feColorMatrix in="SourceAlpha" type="matrix" values="0 0 0 0 0 0 0 0 0 0 0 0 0 0 0 0 0 0 127 0" result="hardAlpha"/>
<feOffset dx="-1" dy="-0.5"/>
<feComposite in2="hardAlpha" operator="out"/>
<feColorMatrix type="matrix" values="0 0 0 0 0.713726 0 0 0 0 0.27451 0 0 0 0 0.670588 0 0 0 1 0"/>
<feBlend mode="normal" in2="BackgroundImageFix" result="effect1_dropShadow_618_870"/>
<feBlend mode="normal" in="SourceGraphic" in2="effect1_dropShadow_618_870" result="shape"/>
</filter>
<filter id="filter9_d_618_870" x="591.05" y="454.646" width="68.9907" height="75.7386" filterUnits="userSpaceOnUse" color-interpolation-filters="sRGB">
<feFlood flood-opacity="0" result="BackgroundImageFix"/>
<feColorMatrix in="SourceAlpha" type="matrix" values="0 0 0 0 0 0 0 0 0 0 0 0 0 0 0 0 0 0 127 0" result="hardAlpha"/>
<feOffset dx="-2"/>
<feComposite in2="hardAlpha" operator="out"/>
<feColorMatrix type="matrix" values="0 0 0 0 0.713726 0 0 0 0 0.27451 0 0 0 0 0.670588 0 0 0 1 0"/>
<feBlend mode="normal" in2="BackgroundImageFix" result="effect1_dropShadow_618_870"/>
<feBlend mode="normal" in="SourceGraphic" in2="effect1_dropShadow_618_870" result="shape"/>
</filter>
<filter id="filter10_d_618_870" x="569.375" y="475.028" width="77.5269" height="69.0785" filterUnits="userSpaceOnUse" color-interpolation-filters="sRGB">
<feFlood flood-opacity="0" result="BackgroundImageFix"/>
<feColorMatrix in="SourceAlpha" type="matrix" values="0 0 0 0 0 0 0 0 0 0 0 0 0 0 0 0 0 0 127 0" result="hardAlpha"/>
<feOffset dx="-1.5"/>
<feComposite in2="hardAlpha" operator="out"/>
<feColorMatrix type="matrix" values="0 0 0 0 0.713726 0 0 0 0 0.27451 0 0 0 0 0.670588 0 0 0 1 0"/>
<feBlend mode="normal" in2="BackgroundImageFix" result="effect1_dropShadow_618_870"/>
<feBlend mode="normal" in="SourceGraphic" in2="effect1_dropShadow_618_870" result="shape"/>
</filter>
<filter id="filter11_d_618_870" x="1364.26" y="556.46" width="66.1704" height="73.9698" filterUnits="userSpaceOnUse" color-interpolation-filters="sRGB">
<feFlood flood-opacity="0" result="BackgroundImageFix"/>
<feColorMatrix in="SourceAlpha" type="matrix" values="0 0 0 0 0 0 0 0 0 0 0 0 0 0 0 0 0 0 127 0" result="hardAlpha"/>
<feOffset dy="-1"/>
<feComposite in2="hardAlpha" operator="out"/>
<feColorMatrix type="matrix" values="0 0 0 0 0.713726 0 0 0 0 0.27451 0 0 0 0 0.670588 0 0 0 1 0"/>
<feBlend mode="normal" in2="BackgroundImageFix" result="effect1_dropShadow_618_870"/>
<feBlend mode="normal" in="SourceGraphic" in2="effect1_dropShadow_618_870" result="shape"/>
</filter>
<filter id="filter12_d_618_870" x="1390.12" y="548.55" width="54.291" height="74.3324" filterUnits="userSpaceOnUse" color-interpolation-filters="sRGB">
<feFlood flood-opacity="0" result="BackgroundImageFix"/>
<feColorMatrix in="SourceAlpha" type="matrix" values="0 0 0 0 0 0 0 0 0 0 0 0 0 0 0 0 0 0 127 0" result="hardAlpha"/>
<feOffset dy="-1"/>
<feComposite in2="hardAlpha" operator="out"/>
<feColorMatrix type="matrix" values="0 0 0 0 0.713726 0 0 0 0 0.27451 0 0 0 0 0.670588 0 0 0 1 0"/>
<feBlend mode="normal" in2="BackgroundImageFix" result="effect1_dropShadow_618_870"/>
<feBlend mode="normal" in="SourceGraphic" in2="effect1_dropShadow_618_870" result="shape"/>
</filter>
<filter id="filter13_d_618_870" x="1412.96" y="546.844" width="44.4727" height="69.759" filterUnits="userSpaceOnUse" color-interpolation-filters="sRGB">
<feFlood flood-opacity="0" result="BackgroundImageFix"/>
<feColorMatrix in="SourceAlpha" type="matrix" values="0 0 0 0 0 0 0 0 0 0 0 0 0 0 0 0 0 0 127 0" result="hardAlpha"/>
<feOffset dx="1" dy="-1"/>
<feComposite in2="hardAlpha" operator="out"/>
<feColorMatrix type="matrix" values="0 0 0 0 0.713726 0 0 0 0 0.27451 0 0 0 0 0.670588 0 0 0 1 0"/>
<feBlend mode="normal" in2="BackgroundImageFix" result="effect1_dropShadow_618_870"/>
<feBlend mode="normal" in="SourceGraphic" in2="effect1_dropShadow_618_870" result="shape"/>
</filter>
<filter id="filter14_d_618_870" x="1423.97" y="551.849" width="64.9336" height="71.7816" filterUnits="userSpaceOnUse" color-interpolation-filters="sRGB">
<feFlood flood-opacity="0" result="BackgroundImageFix"/>
<feColorMatrix in="SourceAlpha" type="matrix" values="0 0 0 0 0 0 0 0 0 0 0 0 0 0 0 0 0 0 127 0" result="hardAlpha"/>
<feOffset dx="1"/>
<feComposite in2="hardAlpha" operator="out"/>
<feColorMatrix type="matrix" values="0 0 0 0 0.607843 0 0 0 0 0.164706 0 0 0 0 0.564706 0 0 0 1 0"/>
<feBlend mode="normal" in2="BackgroundImageFix" result="effect1_dropShadow_618_870"/>
<feBlend mode="normal" in="SourceGraphic" in2="effect1_dropShadow_618_870" result="shape"/>
</filter>
<filter id="filter15_d_618_870" x="1436.44" y="565.612" width="73.4189" height="71.3" filterUnits="userSpaceOnUse" color-interpolation-filters="sRGB">
<feFlood flood-opacity="0" result="BackgroundImageFix"/>
<feColorMatrix in="SourceAlpha" type="matrix" values="0 0 0 0 0 0 0 0 0 0 0 0 0 0 0 0 0 0 127 0" result="hardAlpha"/>
<feOffset dx="1.5"/>
<feComposite in2="hardAlpha" operator="out"/>
<feColorMatrix type="matrix" values="0 0 0 0 0.7125 0 0 0 0 0.276094 0 0 0 0 0.668859 0 0 0 1 0"/>
<feBlend mode="normal" in2="BackgroundImageFix" result="effect1_dropShadow_618_870"/>
<feBlend mode="normal" in="SourceGraphic" in2="effect1_dropShadow_618_870" result="shape"/>
</filter>
<filter id="filter16_d_618_870" x="1062.5" y="1121" width="145.055" height="80.8488" filterUnits="userSpaceOnUse" color-interpolation-filters="sRGB">
<feFlood flood-opacity="0" result="BackgroundImageFix"/>
<feColorMatrix in="SourceAlpha" type="matrix" values="0 0 0 0 0 0 0 0 0 0 0 0 0 0 0 0 0 0 127 0" result="hardAlpha"/>
<feOffset dy="1.5"/>
<feComposite in2="hardAlpha" operator="out"/>
<feColorMatrix type="matrix" values="0 0 0 0 0.713726 0 0 0 0 0.27451 0 0 0 0 0.670588 0 0 0 1 0"/>
<feBlend mode="normal" in2="BackgroundImageFix" result="effect1_dropShadow_618_870"/>
<feBlend mode="normal" in="SourceGraphic" in2="effect1_dropShadow_618_870" result="shape"/>
</filter>
<filter id="filter17_d_618_870" x="1037.69" y="1098.37" width="163.747" height="77.2017" filterUnits="userSpaceOnUse" color-interpolation-filters="sRGB">
<feFlood flood-opacity="0" result="BackgroundImageFix"/>
<feColorMatrix in="SourceAlpha" type="matrix" values="0 0 0 0 0 0 0 0 0 0 0 0 0 0 0 0 0 0 127 0" result="hardAlpha"/>
<feOffset dy="1.5"/>
<feComposite in2="hardAlpha" operator="out"/>
<feColorMatrix type="matrix" values="0 0 0 0 0.713726 0 0 0 0 0.27451 0 0 0 0 0.670588 0 0 0 1 0"/>
<feBlend mode="normal" in2="BackgroundImageFix" result="effect1_dropShadow_618_870"/>
<feBlend mode="normal" in="SourceGraphic" in2="effect1_dropShadow_618_870" result="shape"/>
</filter>
<filter id="filter18_d_618_870" x="1065.68" y="1108.86" width="185.146" height="68.2346" filterUnits="userSpaceOnUse" color-interpolation-filters="sRGB">
<feFlood flood-opacity="0" result="BackgroundImageFix"/>
<feColorMatrix in="SourceAlpha" type="matrix" values="0 0 0 0 0 0 0 0 0 0 0 0 0 0 0 0 0 0 127 0" result="hardAlpha"/>
<feOffset dy="1.5"/>
<feComposite in2="hardAlpha" operator="out"/>
<feColorMatrix type="matrix" values="0 0 0 0 0.713726 0 0 0 0 0.27451 0 0 0 0 0.670588 0 0 0 1 0"/>
<feBlend mode="normal" in2="BackgroundImageFix" result="effect1_dropShadow_618_870"/>
<feBlend mode="normal" in="SourceGraphic" in2="effect1_dropShadow_618_870" result="shape"/>
</filter>
<filter id="filter19_d_618_870" x="1033.21" y="1107.35" width="185.145" height="68.2395" filterUnits="userSpaceOnUse" color-interpolation-filters="sRGB">
<feFlood flood-opacity="0" result="BackgroundImageFix"/>
<feColorMatrix in="SourceAlpha" type="matrix" values="0 0 0 0 0 0 0 0 0 0 0 0 0 0 0 0 0 0 127 0" result="hardAlpha"/>
<feOffset dy="1.5"/>
<feComposite in2="hardAlpha" operator="out"/>
<feColorMatrix type="matrix" values="0 0 0 0 0.713726 0 0 0 0 0.27451 0 0 0 0 0.670588 0 0 0 1 0"/>
<feBlend mode="normal" in2="BackgroundImageFix" result="effect1_dropShadow_618_870"/>
<feBlend mode="normal" in="SourceGraphic" in2="effect1_dropShadow_618_870" result="shape"/>
</filter>
<filter id="filter20_d_618_870" x="1022.22" y="1129.85" width="185.145" height="68.7395" filterUnits="userSpaceOnUse" color-interpolation-filters="sRGB">
<feFlood flood-opacity="0" result="BackgroundImageFix"/>
<feColorMatrix in="SourceAlpha" type="matrix" values="0 0 0 0 0 0 0 0 0 0 0 0 0 0 0 0 0 0 127 0" result="hardAlpha"/>
<feOffset dy="2"/>
<feComposite in2="hardAlpha" operator="out"/>
<feColorMatrix type="matrix" values="0 0 0 0 0.713726 0 0 0 0 0.27451 0 0 0 0 0.670588 0 0 0 1 0"/>
<feBlend mode="normal" in2="BackgroundImageFix" result="effect1_dropShadow_618_870"/>
<feBlend mode="normal" in="SourceGraphic" in2="effect1_dropShadow_618_870" result="shape"/>
</filter>
<filter id="filter21_d_618_870" x="1079.7" y="1114.43" width="158.379" height="72.6609" filterUnits="userSpaceOnUse" color-interpolation-filters="sRGB">
<feFlood flood-opacity="0" result="BackgroundImageFix"/>
<feColorMatrix in="SourceAlpha" type="matrix" values="0 0 0 0 0 0 0 0 0 0 0 0 0 0 0 0 0 0 127 0" result="hardAlpha"/>
<feOffset dy="2"/>
<feComposite in2="hardAlpha" operator="out"/>
<feColorMatrix type="matrix" values="0 0 0 0 0.713726 0 0 0 0 0.27451 0 0 0 0 0.670588 0 0 0 1 0"/>
<feBlend mode="normal" in2="BackgroundImageFix" result="effect1_dropShadow_618_870"/>
<feBlend mode="normal" in="SourceGraphic" in2="effect1_dropShadow_618_870" result="shape"/>
</filter>
<linearGradient id="paint0_linear_618_870" x1="1746.44" y1="564.711" x2="1746.44" y2="950.338" gradientUnits="userSpaceOnUse">
<stop stop-color="#FF5584"/>
<stop offset="1" stop-color="#FF70D6"/>
</linearGradient>
<linearGradient id="paint1_linear_618_870" x1="1794.8" y1="586.495" x2="1876.02" y2="695.496" gradientUnits="userSpaceOnUse">
<stop stop-color="#FD6795"/>
<stop offset="1" stop-color="#F874B6"/>
</linearGradient>
<linearGradient id="paint2_linear_618_870" x1="1451.88" y1="180.948" x2="1451.88" y2="566.575" gradientUnits="userSpaceOnUse">
<stop stop-color="#FF5584"/>
<stop offset="1" stop-color="#FF70D6"/>
</linearGradient>
<linearGradient id="paint3_linear_618_870" x1="1403.61" y1="341.315" x2="1358.26" y2="471.301" gradientUnits="userSpaceOnUse">
<stop stop-color="#FF6994"/>
<stop offset="1" stop-color="#FF8FDE"/>
</linearGradient>
<linearGradient id="paint4_linear_618_870" x1="872.046" y1="178.995" x2="872.046" y2="564.623" gradientUnits="userSpaceOnUse">
<stop stop-color="#FF5584"/>
<stop offset="1" stop-color="#FF70D6"/>
</linearGradient>
<linearGradient id="paint5_linear_618_870" x1="235.406" y1="595.037" x2="235.406" y2="980.665" gradientUnits="userSpaceOnUse">
<stop stop-color="#FF5584"/>
<stop offset="1" stop-color="#FF70D6"/>
</linearGradient>
<linearGradient id="paint6_linear_618_870" x1="721.739" y1="859.039" x2="787.167" y2="1013.43" gradientUnits="userSpaceOnUse">
<stop offset="0.5" stop-color="#F4E1DD"/>
<stop offset="1" stop-color="#DECDC4"/>
</linearGradient>
<linearGradient id="paint7_linear_618_870" x1="721.739" y1="859.039" x2="787.167" y2="1013.43" gradientUnits="userSpaceOnUse">
<stop offset="0.5" stop-color="#F4E1DD"/>
<stop offset="1" stop-color="#DECDC4"/>
</linearGradient>
<linearGradient id="paint8_linear_618_870" x1="698.155" y1="1090.03" x2="595.001" y2="1089.27" gradientUnits="userSpaceOnUse">
<stop stop-color="#FFD1D1"/>
<stop offset="1" stop-color="#CE7C7C"/>
</linearGradient>
<linearGradient id="paint9_linear_618_870" x1="623.14" y1="1105.5" x2="732.333" y2="1112.91" gradientUnits="userSpaceOnUse">
<stop stop-color="#FFD1D1"/>
<stop offset="1" stop-color="#B56262"/>
</linearGradient>
<linearGradient id="paint10_linear_618_870" x1="596.968" y1="398.118" x2="582.949" y2="489.674" gradientUnits="userSpaceOnUse">
<stop stop-color="#956666"/>
<stop offset="1" stop-color="#916969"/>
</linearGradient>
<linearGradient id="paint11_linear_618_870" x1="468.942" y1="572.115" x2="485.682" y2="893.988" gradientUnits="userSpaceOnUse">
<stop stop-color="#F593A7"/>
<stop offset="1" stop-color="#F45C7A"/>
</linearGradient>
<linearGradient id="paint12_linear_618_870" x1="22.4531" y1="0" x2="22.4531" y2="65.1864" gradientUnits="userSpaceOnUse">
<stop stop-color="white"/>
<stop offset="1" stop-color="#FFECF0"/>
</linearGradient>
<linearGradient id="paint13_linear_618_870" x1="22.4531" y1="0" x2="22.4531" y2="65.1864" gradientUnits="userSpaceOnUse">
<stop stop-color="#FF6CCA"/>
<stop offset="1" stop-color="#FF404D" stop-opacity="0"/>
</linearGradient>
<linearGradient id="paint14_linear_618_870" x1="22.4531" y1="0" x2="22.4531" y2="65.1864" gradientUnits="userSpaceOnUse">
<stop stop-color="white"/>
<stop offset="1" stop-color="#FFECF0"/>
</linearGradient>
<linearGradient id="paint15_linear_618_870" x1="22.4531" y1="0" x2="22.4531" y2="65.1864" gradientUnits="userSpaceOnUse">
<stop stop-color="#FF6CCA"/>
<stop offset="1" stop-color="#FF404D" stop-opacity="0"/>
</linearGradient>
<linearGradient id="paint16_linear_618_870" x1="22.4531" y1="0" x2="22.4531" y2="65.1864" gradientUnits="userSpaceOnUse">
<stop stop-color="white"/>
<stop offset="1" stop-color="#FFECF0"/>
</linearGradient>
<linearGradient id="paint17_linear_618_870" x1="22.4531" y1="0" x2="22.4531" y2="65.1864" gradientUnits="userSpaceOnUse">
<stop stop-color="#FF6CCA"/>
<stop offset="1" stop-color="#FF404D" stop-opacity="0"/>
</linearGradient>
<linearGradient id="paint18_linear_618_870" x1="22.4531" y1="0" x2="22.4531" y2="65.1864" gradientUnits="userSpaceOnUse">
<stop stop-color="white"/>
<stop offset="1" stop-color="#FFECF0"/>
</linearGradient>
<linearGradient id="paint19_linear_618_870" x1="22.4531" y1="0" x2="22.4531" y2="65.1864" gradientUnits="userSpaceOnUse">
<stop stop-color="#FF6CCA"/>
<stop offset="1" stop-color="#FF404D" stop-opacity="0"/>
</linearGradient>
<linearGradient id="paint20_linear_618_870" x1="22.4531" y1="0" x2="22.4531" y2="65.1864" gradientUnits="userSpaceOnUse">
<stop stop-color="white"/>
<stop offset="1" stop-color="#FFECF0"/>
</linearGradient>
<linearGradient id="paint21_linear_618_870" x1="22.4531" y1="0" x2="22.4531" y2="65.1864" gradientUnits="userSpaceOnUse">
<stop stop-color="#FF6CCA"/>
<stop offset="1" stop-color="#FF404D" stop-opacity="0"/>
</linearGradient>
<linearGradient id="paint22_linear_618_870" x1="487.819" y1="467.995" x2="454.42" y2="615.183" gradientUnits="userSpaceOnUse">
<stop stop-color="#F597AA"/>
<stop offset="1" stop-color="#EB5573"/>
</linearGradient>
<linearGradient id="paint23_linear_618_870" x1="557.788" y1="598.606" x2="521.908" y2="525.701" gradientUnits="userSpaceOnUse">
<stop stop-color="#A41532"/>
<stop offset="1" stop-color="#DA5252" stop-opacity="0"/>
</linearGradient>
<linearGradient id="paint24_linear_618_870" x1="613.402" y1="212.124" x2="500.335" y2="557.359" gradientUnits="userSpaceOnUse">
<stop stop-color="#4C1938"/>
<stop offset="1" stop-color="#681332"/>
</linearGradient>
<linearGradient id="paint25_linear_618_870" x1="1271.43" y1="960.59" x2="1536.03" y2="946.039" gradientUnits="userSpaceOnUse">
<stop stop-color="#FACDC7"/>
<stop offset="0.494792" stop-color="#E9ABA3"/>
</linearGradient>
<linearGradient id="paint26_linear_618_870" x1="1354.44" y1="1000.23" x2="1413.15" y2="1010.15" gradientUnits="userSpaceOnUse">
<stop stop-color="#EAACA4"/>
<stop offset="1" stop-color="#775E59"/>
</linearGradient>
<linearGradient id="paint27_linear_618_870" x1="1936.04" y1="1034.86" x2="1866.38" y2="1016.36" gradientUnits="userSpaceOnUse">
<stop stop-color="#FACDC7"/>
<stop offset="1" stop-color="#EBBAB3"/>
</linearGradient>
<linearGradient id="paint28_linear_618_870" x1="1839.67" y1="1071.04" x2="1785.02" y2="1058.94" gradientUnits="userSpaceOnUse">
<stop stop-color="#EAACA4"/>
<stop offset="1" stop-color="#775E59"/>
</linearGradient>
<linearGradient id="paint29_linear_618_870" x1="1614.7" y1="852.297" x2="1614.7" y2="1077.12" gradientUnits="userSpaceOnUse">
<stop stop-color="white"/>
<stop offset="0.591724" stop-color="#686868" stop-opacity="0"/>
<stop offset="0.781909" stop-opacity="0.59"/>
</linearGradient>
<linearGradient id="paint30_linear_618_870" x1="1825.67" y1="984.814" x2="1704.37" y2="1184.35" gradientUnits="userSpaceOnUse">
<stop stop-color="#FACDC7"/>
<stop offset="0.881497" stop-color="#EBBAB3"/>
</linearGradient>
<linearGradient id="paint31_linear_618_870" x1="1574.29" y1="1099.59" x2="1470.48" y2="1021.42" gradientUnits="userSpaceOnUse">
<stop offset="0.216858" stop-color="#F5F4F4"/>
<stop offset="1" stop-color="#C0C0C0"/>
</linearGradient>
<linearGradient id="paint32_linear_618_870" x1="1320.59" y1="953.871" x2="1445.65" y2="1046.34" gradientUnits="userSpaceOnUse">
<stop offset="0.511956" stop-color="#FACDC7"/>
<stop offset="1" stop-color="#EBBAB3"/>
</linearGradient>
<linearGradient id="paint33_linear_618_870" x1="1430.54" y1="994.428" x2="1238.89" y2="998.674" gradientUnits="userSpaceOnUse">
<stop offset="0.364488" stop-color="#E9ABA3"/>
<stop offset="0.828311" stop-color="#E9ABA3" stop-opacity="0"/>
</linearGradient>
<linearGradient id="paint34_linear_618_870" x1="1586.84" y1="1136.23" x2="1703.66" y2="1205.61" gradientUnits="userSpaceOnUse">
<stop stop-color="#F5F4F4"/>
<stop offset="1" stop-color="#C0C0C0"/>
</linearGradient>
<linearGradient id="paint35_linear_618_870" x1="1567.14" y1="468.724" x2="1577.34" y2="616.85" gradientUnits="userSpaceOnUse">
<stop stop-color="#FACDC7"/>
<stop offset="1" stop-color="#E6ADA6"/>
</linearGradient>
<linearGradient id="paint36_linear_618_870" x1="1421.99" y1="688.754" x2="1335.22" y2="762.161" gradientUnits="userSpaceOnUse">
<stop stop-color="#FACDC7"/>
<stop offset="1" stop-color="#EDBEB8"/>
</linearGradient>
<linearGradient id="paint37_linear_618_870" x1="21.5943" y1="0" x2="21.5943" y2="62.6933" gradientUnits="userSpaceOnUse">
<stop stop-color="white"/>
<stop offset="1" stop-color="#FFECF0"/>
</linearGradient>
<linearGradient id="paint38_linear_618_870" x1="21.5943" y1="0" x2="21.5943" y2="62.6933" gradientUnits="userSpaceOnUse">
<stop stop-color="#FF6CCA"/>
<stop offset="1" stop-color="#FF404D" stop-opacity="0"/>
</linearGradient>
<linearGradient id="paint39_linear_618_870" x1="21.5943" y1="0" x2="21.5943" y2="62.6933" gradientUnits="userSpaceOnUse">
<stop stop-color="white"/>
<stop offset="1" stop-color="#FFECF0"/>
</linearGradient>
<linearGradient id="paint40_linear_618_870" x1="21.5943" y1="0" x2="21.5943" y2="62.6933" gradientUnits="userSpaceOnUse">
<stop stop-color="#FF6CCA"/>
<stop offset="1" stop-color="#FF404D" stop-opacity="0"/>
</linearGradient>
<linearGradient id="paint41_linear_618_870" x1="21.5943" y1="0" x2="21.5943" y2="62.6933" gradientUnits="userSpaceOnUse">
<stop stop-color="white"/>
<stop offset="1" stop-color="#FFECF0"/>
</linearGradient>
<linearGradient id="paint42_linear_618_870" x1="21.5943" y1="0" x2="21.5943" y2="62.6933" gradientUnits="userSpaceOnUse">
<stop stop-color="#FF6CCA"/>
<stop offset="1" stop-color="#FF404D" stop-opacity="0"/>
</linearGradient>
<linearGradient id="paint43_linear_618_870" x1="21.5943" y1="0" x2="21.5943" y2="62.6933" gradientUnits="userSpaceOnUse">
<stop stop-color="white"/>
<stop offset="1" stop-color="#FFECF0"/>
</linearGradient>
<linearGradient id="paint44_linear_618_870" x1="21.5943" y1="0" x2="21.5943" y2="62.6933" gradientUnits="userSpaceOnUse">
<stop stop-color="#FF6CCA"/>
<stop offset="1" stop-color="#FF404D" stop-opacity="0"/>
</linearGradient>
<linearGradient id="paint45_linear_618_870" x1="21.5943" y1="0" x2="21.5943" y2="62.6933" gradientUnits="userSpaceOnUse">
<stop stop-color="white"/>
<stop offset="1" stop-color="#FFECF0"/>
</linearGradient>
<linearGradient id="paint46_linear_618_870" x1="21.5943" y1="0" x2="21.5943" y2="62.6933" gradientUnits="userSpaceOnUse">
<stop stop-color="#FF6CCA"/>
<stop offset="1" stop-color="#FF404D" stop-opacity="0"/>
</linearGradient>
<linearGradient id="paint47_linear_618_870" x1="1333.51" y1="769.823" x2="1386.43" y2="718.129" gradientUnits="userSpaceOnUse">
<stop offset="0.26099" stop-color="#EDBEB8"/>
<stop offset="1" stop-color="#F0C2BC"/>
</linearGradient>
<linearGradient id="paint48_linear_618_870" x1="1376.32" y1="673.841" x2="1471.42" y2="599.799" gradientUnits="userSpaceOnUse">
<stop stop-color="#F0C2BC"/>
<stop offset="0.338542" stop-color="#F0C2BC"/>
<stop offset="1" stop-color="#F3ABA0"/>
</linearGradient>
<linearGradient id="paint49_linear_618_870" x1="1743.83" y1="748.674" x2="1685.87" y2="866.862" gradientUnits="userSpaceOnUse">
<stop stop-color="#EF9ACF"/>
<stop offset="1" stop-color="#EB7ACB"/>
</linearGradient>
<linearGradient id="paint50_linear_618_870" x1="1636.31" y1="425.184" x2="1527.44" y2="527.333" gradientUnits="userSpaceOnUse">
<stop stop-color="#FACDC7"/>
<stop offset="1" stop-color="#EA988D"/>
</linearGradient>
<linearGradient id="paint51_linear_618_870" x1="1634.59" y1="293.314" x2="1640.4" y2="477.964" gradientUnits="userSpaceOnUse">
<stop stop-color="#452832"/>
<stop offset="1" stop-color="#30121D"/>
</linearGradient>
<linearGradient id="paint52_linear_618_870" x1="1614.85" y1="440.705" x2="1617.69" y2="466.842" gradientUnits="userSpaceOnUse">
<stop stop-color="#FCCCC5"/>
<stop offset="1" stop-color="#FCCCC5"/>
</linearGradient>
<linearGradient id="paint53_linear_618_870" x1="1696.3" y1="613.18" x2="1730.85" y2="636.561" gradientUnits="userSpaceOnUse">
<stop stop-color="#F0AED7"/>
<stop offset="1" stop-color="#F8AFDC"/>
</linearGradient>
<linearGradient id="paint54_linear_618_870" x1="39.1016" y1="0" x2="39.1016" y2="113.521" gradientUnits="userSpaceOnUse">
<stop stop-color="white"/>
<stop offset="1" stop-color="#FFECF0"/>
</linearGradient>
<linearGradient id="paint55_linear_618_870" x1="39.1016" y1="0" x2="39.1016" y2="113.521" gradientUnits="userSpaceOnUse">
<stop stop-color="#FF404C"/>
<stop offset="1" stop-color="#FF6DCD"/>
</linearGradient>
<linearGradient id="paint56_linear_618_870" x1="1122.08" y1="1148.5" x2="1127.22" y2="1174.72" gradientUnits="userSpaceOnUse">
<stop stop-color="#FF6994"/>
<stop offset="1" stop-color="#FF8FDE"/>
</linearGradient>
<linearGradient id="paint57_linear_618_870" x1="39.1015" y1="0" x2="39.1015" y2="113.521" gradientUnits="userSpaceOnUse">
<stop stop-color="white"/>
<stop offset="1" stop-color="#FFECF0"/>
</linearGradient>
<linearGradient id="paint58_linear_618_870" x1="39.1015" y1="0" x2="39.1015" y2="113.521" gradientUnits="userSpaceOnUse">
<stop stop-color="#FF404C"/>
<stop offset="1" stop-color="#FF6DCD"/>
</linearGradient>
<linearGradient id="paint59_linear_618_870" x1="1102.94" y1="1127.11" x2="1111.1" y2="1151.53" gradientUnits="userSpaceOnUse">
<stop stop-color="#FF6994"/>
<stop offset="1" stop-color="#FF8FDE"/>
</linearGradient>
<linearGradient id="paint60_linear_618_870" x1="39.1016" y1="0" x2="39.1016" y2="113.521" gradientUnits="userSpaceOnUse">
<stop stop-color="white"/>
<stop offset="1" stop-color="#FFECF0"/>
</linearGradient>
<linearGradient id="paint61_linear_618_870" x1="39.1016" y1="0" x2="39.1016" y2="113.521" gradientUnits="userSpaceOnUse">
<stop stop-color="#FF404C"/>
<stop offset="1" stop-color="#FF6DCD"/>
</linearGradient>
<linearGradient id="paint62_linear_618_870" x1="1134.8" y1="1150.76" x2="1145.99" y2="1122.3" gradientUnits="userSpaceOnUse">
<stop stop-color="#FF6994"/>
<stop offset="1" stop-color="#FF8FDE"/>
</linearGradient>
<linearGradient id="paint63_linear_618_870" x1="39.1016" y1="0" x2="39.1016" y2="113.521" gradientUnits="userSpaceOnUse">
<stop stop-color="white"/>
<stop offset="1" stop-color="#FFECF0"/>
</linearGradient>
<linearGradient id="paint64_linear_618_870" x1="39.1016" y1="0" x2="39.1016" y2="113.521" gradientUnits="userSpaceOnUse">
<stop stop-color="#FF404C"/>
<stop offset="1" stop-color="#FF6DCD"/>
</linearGradient>
<linearGradient id="paint65_linear_618_870" x1="1149.25" y1="1132.18" x2="1138.06" y2="1160.65" gradientUnits="userSpaceOnUse">
<stop stop-color="#FF6994"/>
<stop offset="1" stop-color="#FF8FDE"/>
</linearGradient>
<linearGradient id="paint66_linear_618_870" x1="39.1016" y1="0" x2="39.1016" y2="113.521" gradientUnits="userSpaceOnUse">
<stop stop-color="white"/>
<stop offset="1" stop-color="#FFECF0"/>
</linearGradient>
<linearGradient id="paint67_linear_618_870" x1="39.1016" y1="0" x2="39.1016" y2="113.521" gradientUnits="userSpaceOnUse">
<stop stop-color="#FF404C"/>
<stop offset="1" stop-color="#FF6DCD"/>
</linearGradient>
<linearGradient id="paint68_linear_618_870" x1="1138.25" y1="1154.68" x2="1127.06" y2="1183.15" gradientUnits="userSpaceOnUse">
<stop stop-color="#FF6994"/>
<stop offset="1" stop-color="#FF8FDE"/>
</linearGradient>
<linearGradient id="paint69_linear_618_870" x1="39.0936" y1="0" x2="39.0936" y2="113.727" gradientUnits="userSpaceOnUse">
<stop stop-color="white"/>
<stop offset="1" stop-color="#FFECF0"/>
</linearGradient>
<linearGradient id="paint70_linear_618_870" x1="39.0936" y1="0" x2="39.0936" y2="113.727" gradientUnits="userSpaceOnUse">
<stop stop-color="#FF404C"/>
<stop offset="1" stop-color="#FF6DCD"/>
</linearGradient>
<linearGradient id="paint71_linear_618_870" x1="1145.98" y1="1137.68" x2="1150.58" y2="1161.5" gradientUnits="userSpaceOnUse">
<stop stop-color="#FD6795"/>
<stop offset="1" stop-color="#F874B6"/>
</linearGradient>
<linearGradient id="paint72_linear_618_870" x1="293.545" y1="642.638" x2="349.399" y2="730.312" gradientUnits="userSpaceOnUse">
<stop stop-color="#FF6B97"/>
<stop offset="1" stop-color="#FF8EDC"/>
</linearGradient>
<linearGradient id="paint73_linear_618_870" x1="855.496" y1="315.38" x2="837.126" y2="454.533" gradientUnits="userSpaceOnUse">
<stop stop-color="#FF6B97"/>
<stop offset="1" stop-color="#FF8EDC"/>
</linearGradient>
</defs>
</svg>
