<svg width="89" height="89" viewBox="0 0 89 89" fill="none" xmlns="http://www.w3.org/2000/svg">
<g id="Iconsax">
<path id="Vector" d="M61.7436 21.2078H27.2561C16.3165 21.2078 7.4165 30.1078 7.4165 41.0473V61.7398C7.4165 72.6794 16.3165 81.5794 27.2561 81.5794H61.7436C72.6832 81.5794 81.5832 72.6794 81.5832 61.7398V41.0473C81.5832 30.1078 72.6832 21.2078 61.7436 21.2078ZM53.7707 44.5703C53.7707 42.5307 55.4394 40.8619 57.479 40.8619C59.5186 40.8619 61.1873 42.5307 61.1873 44.5703C61.1873 46.6098 59.5186 48.3157 57.479 48.3157C55.4394 48.3157 53.7707 46.684 53.7707 44.6444V44.5703ZM37.5653 59.589C37.009 60.1453 36.3044 60.4048 35.5998 60.4048C34.8953 60.4048 34.1907 60.1453 33.6344 59.589L29.8148 55.7694L26.1436 59.4407C25.5873 59.9969 24.8828 60.2565 24.1782 60.2565C23.4736 60.2565 22.769 59.9969 22.2128 59.4407C21.6955 58.9173 21.4054 58.2111 21.4054 57.4753C21.4054 56.7394 21.6955 56.0332 22.2128 55.5098L25.884 51.8386L22.324 48.2786C21.8068 47.7552 21.5167 47.049 21.5167 46.3132C21.5167 45.5773 21.8068 44.8711 22.324 44.3478C23.3994 43.2723 25.1794 43.2723 26.2548 44.3478L29.8148 47.9078L33.4861 44.2365C34.5615 43.1611 36.3415 43.1611 37.4169 44.2365C38.4923 45.3119 38.4923 47.0919 37.4169 48.1673L33.7457 51.8386L37.5653 55.6582C38.6407 56.7336 38.6407 58.5136 37.5653 59.589ZM50.2107 55.6211C48.1711 55.6211 46.4653 53.9523 46.4653 51.9128C46.4653 49.8732 48.0969 48.2044 50.1365 48.2044H50.2107C52.2503 48.2044 53.919 49.8732 53.919 51.9128C53.919 53.9523 52.2873 55.6211 50.2107 55.6211ZM57.479 62.9265C55.4394 62.9265 53.7707 61.2948 53.7707 59.2553V59.1811C53.7707 57.1415 55.4394 55.4728 57.479 55.4728C59.5186 55.4728 61.1873 57.1415 61.1873 59.1811C61.1873 61.2207 59.5557 62.9265 57.479 62.9265ZM64.8215 55.6211C62.7819 55.6211 61.0761 53.9523 61.0761 51.9128C61.0761 49.8732 62.7078 48.2044 64.7473 48.2044H64.8215C66.8611 48.2044 68.5298 49.8732 68.5298 51.9128C68.5298 53.9523 66.8982 55.6211 64.8215 55.6211Z" fill="white"/>
<path id="Vector_2" d="M50.5818 10.0494L50.5447 13.5353C50.5157 15.1225 49.8672 16.6354 48.7378 17.751C47.6084 18.8665 46.0876 19.4963 44.5001 19.5057C43.9439 19.5057 43.6101 19.8765 43.6101 20.3586C43.6101 20.8407 43.981 21.2115 44.463 21.2115H38.4926C38.4555 20.9519 38.4185 20.6553 38.4185 20.3586C38.4185 17.0211 41.1255 14.314 44.426 14.314C44.9822 14.314 45.353 13.9432 45.353 13.4611L45.3901 9.97525C45.4272 8.56609 46.5768 7.4165 47.986 7.4165H48.023C49.4693 7.4165 50.5818 8.60317 50.5818 10.0494Z" fill="white"/>
</g>
</svg>
