<svg width="89" height="89" viewBox="0 0 89 89" fill="none" xmlns="http://www.w3.org/2000/svg">
<g id="Iconsax">
<path id="Vector" d="M77.2445 29.7037L52.9549 10.272C48.2083 6.48949 40.7916 6.45241 36.082 10.2349L11.7924 29.7037C8.30661 32.4849 6.19286 38.0474 6.93453 42.4232L11.607 70.3841C12.6824 76.6512 18.5045 81.5832 24.8458 81.5832H64.1541C70.4212 81.5832 76.3545 76.5399 77.4299 70.347L82.1024 42.3862C82.77 38.0474 80.6562 32.4849 77.2445 29.7037ZM47.2812 66.7499C47.2812 68.2703 46.0204 69.5312 44.4999 69.5312C42.9795 69.5312 41.7187 68.2703 41.7187 66.7499V55.6249C41.7187 54.1045 42.9795 52.8437 44.4999 52.8437C46.0204 52.8437 47.2812 54.1045 47.2812 55.6249V66.7499Z" fill="black"/>
</g>
</svg>
