<svg width="89" height="89" viewBox="0 0 89 89" fill="none" xmlns="http://www.w3.org/2000/svg">
<g id="Iconsax">
<path id="Vector" d="M44.4998 7.41675C24.0669 7.41675 7.4165 24.0672 7.4165 44.5001C7.4165 64.933 24.0669 81.5834 44.4998 81.5834C64.9328 81.5834 81.5832 64.933 81.5832 44.5001C81.5832 24.0672 64.9328 7.41675 44.4998 7.41675ZM41.7186 29.6667C41.7186 28.1463 42.9794 26.8855 44.4998 26.8855C46.0203 26.8855 47.2811 28.1463 47.2811 29.6667V48.2084C47.2811 49.7288 46.0203 50.9897 44.4998 50.9897C42.9794 50.9897 41.7186 49.7288 41.7186 48.2084V29.6667ZM47.9115 60.7426C47.7261 61.2247 47.4665 61.5955 47.1328 61.9663C46.7619 62.3001 46.354 62.5597 45.909 62.7451C45.464 62.9305 44.9819 63.0418 44.4998 63.0418C44.0178 63.0418 43.5357 62.9305 43.0907 62.7451C42.6457 62.5597 42.2378 62.3001 41.8669 61.9663C41.5332 61.5955 41.2736 61.2247 41.0882 60.7426C40.8977 60.2969 40.7969 59.8181 40.7915 59.3334C40.7915 58.8513 40.9028 58.3693 41.0882 57.9243C41.2736 57.4792 41.5332 57.0713 41.8669 56.7005C42.2378 56.3667 42.6457 56.1072 43.0907 55.9217C43.9935 55.5508 45.0062 55.5508 45.909 55.9217C46.354 56.1072 46.7619 56.3667 47.1328 56.7005C47.4665 57.0713 47.7261 57.4792 47.9115 57.9243C48.0969 58.3693 48.2082 58.8513 48.2082 59.3334C48.2082 59.8155 48.0969 60.2976 47.9115 60.7426Z" fill="black"/>
</g>
</svg>
