<svg width="61" height="60" viewBox="0 0 61 60" fill="none" xmlns="http://www.w3.org/2000/svg">
<path d="M19.8505 4.2339C25.4663 -1.37843 34.5712 -1.37842 40.187 4.23391L55.8008 19.838C61.4166 25.4503 61.4165 34.5497 55.8008 40.162L40.187 55.7662C34.5712 61.3785 25.4663 61.3785 19.8505 55.7661L4.23674 40.162C-1.37905 34.5497 -1.37904 25.4503 4.23674 19.838L19.8505 4.2339Z" fill="#ED3266"/>
<path fill-rule="evenodd" clip-rule="evenodd" d="M41.6562 25.3606C42.421 25.3606 43.0636 25.9315 43.1364 26.6924C43.2695 28.0828 43.4499 30.3309 43.4498 32.2983C43.4498 34.3433 43.2611 36.2626 43.1273 37.3659C43.0559 37.9551 42.6286 38.4315 42.0557 38.5877L35.9237 40.259C35.2149 40.4522 34.4686 40.1079 34.0896 39.4789C33.2823 38.1392 31.7541 36.0688 30.0186 36.0688V36.0688C28.2832 36.0688 26.7549 38.1392 25.9476 39.4789C25.5686 40.108 24.8223 40.4522 24.1135 40.259L17.9815 38.5877C17.4086 38.4315 16.9813 37.9551 16.9099 37.366C16.7762 36.2627 16.5874 34.3434 16.5874 32.2983C16.5873 30.3309 16.7677 28.0828 16.9008 26.6924C16.9736 25.9315 17.6162 25.3606 18.381 25.3606H30.0186V25.3606H41.6562Z" fill="white"/>
<path fill-rule="evenodd" clip-rule="evenodd" d="M15.7411 28.5469C15.7876 28.0245 15.2148 27.7156 14.8729 28.1136C13.9748 29.1592 13.4321 30.5187 13.4321 32.0048C13.4321 33.428 13.9298 34.735 14.7607 35.7615C15.0962 36.1759 15.6829 35.8664 15.6406 35.335C15.5746 34.5051 15.5311 33.6046 15.5311 32.6715C15.531 31.3415 15.6222 29.8834 15.7411 28.5469Z" fill="white"/>
<path fill-rule="evenodd" clip-rule="evenodd" d="M44.296 28.5469C44.2495 28.0245 44.8224 27.7156 45.1642 28.1136C46.0623 29.1592 46.605 30.5187 46.605 32.0048C46.605 33.428 46.1073 34.735 45.2764 35.7615C44.9409 36.1759 44.3542 35.8664 44.3965 35.335C44.4626 34.5051 44.506 33.6046 44.506 32.6715C44.5061 31.3415 44.4149 29.8834 44.296 28.5469Z" fill="white"/>
<path d="M27.604 18.1212C27.604 17.6215 28.0094 17.2163 28.5095 17.2163H31.5277C32.0278 17.2163 32.4332 17.6215 32.4332 18.1212V24.4556H27.604V18.1212Z" fill="white"/>
<path d="M39.9787 29.5835C39.9787 30.4165 39.303 31.0917 38.4696 31.0917C37.6361 31.0917 36.9604 30.4165 36.9604 29.5835C36.9604 28.7506 37.6361 28.0753 38.4696 28.0753C39.303 28.0753 39.9787 28.7506 39.9787 29.5835Z" fill="#ED3266"/>
<path d="M36.9606 34.108C36.9606 34.941 36.285 35.6162 35.4515 35.6162C34.618 35.6162 33.9424 34.941 33.9424 34.108C33.9424 33.2751 34.618 32.5999 35.4515 32.5999C36.285 32.5999 36.9606 33.2751 36.9606 34.108Z" fill="#ED3266"/>
<path d="M21.75 29.0726C21.75 28.6757 22.0719 28.354 22.469 28.354H23.188C23.5851 28.354 23.907 28.6757 23.907 29.0726V34.4618C23.907 34.8586 23.5851 35.1804 23.188 35.1804H22.469C22.0719 35.1804 21.75 34.8586 21.75 34.4618V29.0726Z" fill="#ED3266"/>
<path d="M25.5246 30.6893C25.9217 30.6893 26.2437 31.011 26.2437 31.4079L26.2437 32.1265C26.2437 32.5233 25.9217 32.845 25.5246 32.845L20.1321 32.845C19.735 32.845 19.4131 32.5233 19.4131 32.1265L19.4131 31.4079C19.4131 31.011 19.735 30.6893 20.1321 30.6893L25.5246 30.6893Z" fill="#ED3266"/>
</svg>
