<?xml version="1.0" encoding="UTF-8"?>
<svg id="Layer_2" data-name="Layer 2" xmlns="http://www.w3.org/2000/svg" viewBox="0 0 19.99 20">
  <g id="Layer_1-2" data-name="Layer 1">
    <path d="m14.19,0H5.81C2.17,0,0,2.17,0,5.81v8.37c0,3.65,2.17,5.82,5.81,5.82h8.37c3.64,0,5.81-2.17,5.81-5.81V5.81c.01-3.64-2.16-5.81-5.8-5.81Zm.81,15.25H5c-.41,0-.75-.34-.75-.75s.34-.75.75-.75h10c.41,0,.75.34.75.75s-.34.75-.75.75Zm0-4.5H5c-.41,0-.75-.34-.75-.75s.34-.75.75-.75h10c.41,0,.75.34.75.75s-.34.75-.75.75Zm0-4.5H5c-.41,0-.75-.34-.75-.75s.34-.75.75-.75h10c.41,0,.75.34.75.75s-.34.75-.75.75Z"/>
  </g>
</svg>