<svg width="866" height="614" viewBox="0 0 866 614" fill="none" xmlns="http://www.w3.org/2000/svg">
<g opacity="0.2" filter="url(#filter0_d_206_1198)">
<path d="M689.547 50.0968C714.654 46.2735 764.755 54.2903 764.305 116.943L689.547 50.0968Z" fill="url(#paint0_linear_206_1198)"/>
<path d="M466.1 196.654C483.538 196.587 515.679 207.553 529.57 213.045C550.01 206.986 550.539 190.266 548.249 182.663L363.636 127.624C361.4 142.485 359.882 171.468 371.701 168.511C383.52 165.553 397.238 171.736 402.62 175.197C416.514 182.377 448.661 196.721 466.1 196.654Z" fill="url(#paint1_linear_206_1198)"/>
<path d="M466.1 196.654C483.538 196.587 515.679 207.553 529.57 213.045C550.01 206.986 550.539 190.266 548.249 182.663L363.636 127.624C361.4 142.485 359.882 171.468 371.701 168.511C383.52 165.553 397.238 171.736 402.62 175.197C416.514 182.377 448.661 196.721 466.1 196.654Z" fill="#492349" fill-opacity="0.1"/>
<path d="M209.904 245.849C210.849 233.168 204.253 221.21 200.837 216.816C210.104 215.657 194.874 166.474 205.955 165.681C279.781 160.398 408.682 214.237 396.879 269.186C379.91 348.181 314.403 364.096 263.569 344.383C212.735 324.671 208.723 261.7 209.904 245.849Z" fill="url(#paint2_linear_206_1198)"/>
<path d="M209.904 245.849C210.849 233.168 204.253 221.21 200.837 216.816C210.104 215.657 194.874 166.474 205.955 165.681C279.781 160.398 408.682 214.237 396.879 269.186C379.91 348.181 314.403 364.096 263.569 344.383C212.735 324.671 208.723 261.7 209.904 245.849Z" fill="#492349" fill-opacity="0.1"/>
<path d="M619.571 367.984C625.725 356.856 637.792 350.461 643.056 348.655C635.936 342.611 675.613 309.797 666.775 303.066C607.894 258.219 470.555 232.684 450.342 285.125C421.283 360.515 467.381 409.703 520.711 421.045C574.04 432.387 611.88 381.894 619.571 367.984Z" fill="url(#paint3_linear_206_1198)"/>
<path d="M619.571 367.984C625.725 356.856 637.792 350.461 643.056 348.655C635.936 342.611 675.613 309.797 666.775 303.066C607.894 258.219 470.555 232.684 450.342 285.125C421.283 360.515 467.381 409.703 520.711 421.045C574.04 432.387 611.88 381.894 619.571 367.984Z" fill="#492349" fill-opacity="0.1"/>
<path d="M585.881 255.15C549.25 208.177 482.245 179.863 453.322 171.578C424.583 162.672 353.012 149.673 296.639 168.918C240.267 188.164 208.701 213.084 199.965 223.138C179.931 267.125 137.2 358.255 126.551 370.879C113.238 386.657 94.4126 412.439 70.0034 407.693C50.4761 403.897 41.8298 394.061 39.9475 389.618C36.8609 387.517 30.6783 372.474 30.6412 329.12C30.604 285.765 103.943 97.9669 140.618 9.48723C172.133 -33.9464 290.034 -105.468 509.516 -44.084L524.396 -39.6476C741.66 29.1763 801.148 153.583 803.735 207.183C785.971 301.301 744.501 498.6 720.729 534.857C696.957 571.113 683.547 580.314 679.813 580.382C675.805 583.069 663.185 586.565 644.767 579.048C621.744 569.653 620.109 537.771 617.61 517.279C615.612 500.885 629.759 401.233 637.083 353.457C635.278 340.26 622.512 302.123 585.881 255.15Z" fill="url(#paint4_linear_206_1198)"/>
<path d="M585.881 255.15C549.25 208.177 482.245 179.863 453.322 171.578C424.583 162.672 353.012 149.673 296.639 168.918C240.267 188.164 208.701 213.084 199.965 223.138C179.931 267.125 137.2 358.255 126.551 370.879C113.238 386.657 94.4126 412.439 70.0034 407.693C50.4761 403.897 41.8298 394.061 39.9475 389.618C36.8609 387.517 30.6783 372.474 30.6412 329.12C30.604 285.765 103.943 97.9669 140.618 9.48723C172.133 -33.9464 290.034 -105.468 509.516 -44.084L524.396 -39.6476C741.66 29.1763 801.148 153.583 803.735 207.183C785.971 301.301 744.501 498.6 720.729 534.857C696.957 571.113 683.547 580.314 679.813 580.382C675.805 583.069 663.185 586.565 644.767 579.048C621.744 569.653 620.109 537.771 617.61 517.279C615.612 500.885 629.759 401.233 637.083 353.457C635.278 340.26 622.512 302.123 585.881 255.15Z" fill="#492349" fill-opacity="0.1"/>
<path d="M291.37 -57.9786C360.712 -37.3056 400.166 35.6662 379.493 105.008C375.791 121.215 368.656 161.17 377.456 184.873C397.714 207.643 406.067 240.064 396.72 271.417C382.364 319.571 331.689 346.97 283.534 332.613C239.081 319.361 212.316 275.157 219.758 230.558C216.735 202.583 201.76 188.191 194.28 184.248C194.149 184.179 194.021 184.113 193.896 184.051C138.913 155.786 110.078 91.5424 128.383 30.1445C149.056 -39.1977 222.028 -78.6517 291.37 -57.9786Z" fill="url(#paint5_linear_206_1198)"/>
<path d="M291.37 -57.9786C360.712 -37.3056 400.166 35.6662 379.493 105.008C375.791 121.215 368.656 161.17 377.456 184.873C397.714 207.643 406.067 240.064 396.72 271.417C382.364 319.571 331.689 346.97 283.534 332.613C239.081 319.361 212.316 275.157 219.758 230.558C216.735 202.583 201.76 188.191 194.28 184.248C194.149 184.179 194.021 184.113 193.896 184.051C138.913 155.786 110.078 91.5424 128.383 30.1445C149.056 -39.1977 222.028 -78.6517 291.37 -57.9786Z" fill="#492349" fill-opacity="0.1"/>
<path d="M716.397 68.7353C647.055 48.0622 574.083 87.5163 553.41 156.858C547.633 172.447 531.724 209.786 511.381 224.801C481.962 232.76 457.219 255.314 447.872 286.667C433.516 334.821 460.914 385.496 509.069 399.852C553.522 413.105 600.123 390.775 618.318 349.381C636.167 327.629 656.577 323.786 664.996 324.583C665.143 324.597 665.286 324.612 665.425 324.629C726.909 331.086 786.216 293.12 804.52 231.722C825.193 162.38 785.739 89.4084 716.397 68.7353Z" fill="url(#paint6_linear_206_1198)"/>
<path d="M716.397 68.7353C647.055 48.0622 574.083 87.5163 553.41 156.858C547.633 172.447 531.724 209.786 511.381 224.801C481.962 232.76 457.219 255.314 447.872 286.667C433.516 334.821 460.914 385.496 509.069 399.852C553.522 413.105 600.123 390.775 618.318 349.381C636.167 327.629 656.577 323.786 664.996 324.583C665.143 324.597 665.286 324.612 665.425 324.629C726.909 331.086 786.216 293.12 804.52 231.722C825.193 162.38 785.739 89.4084 716.397 68.7353Z" fill="#492349" fill-opacity="0.1"/>
<path d="M447.872 286.667C457.219 255.314 481.962 232.76 511.381 224.801C516.123 221.301 520.624 216.588 524.812 211.221C526.563 211.874 528.161 212.488 529.57 213.045C531.94 212.342 534.043 211.496 535.904 210.538C554.417 222.779 572.252 237.673 585.881 255.15C589.545 259.849 592.971 264.46 596.171 268.966C534.721 249.891 464.361 248.753 450.342 285.125C447.85 291.589 445.911 297.86 444.482 303.932C445.042 298.185 446.16 292.408 447.872 286.667Z" fill="url(#paint7_linear_206_1198)"/>
<path d="M447.872 286.667C457.219 255.314 481.962 232.76 511.381 224.801C516.123 221.301 520.624 216.588 524.812 211.221C526.563 211.874 528.161 212.488 529.57 213.045C531.94 212.342 534.043 211.496 535.904 210.538C554.417 222.779 572.252 237.673 585.881 255.15C589.545 259.849 592.971 264.46 596.171 268.966C534.721 249.891 464.361 248.753 450.342 285.125C447.85 291.589 445.911 297.86 444.482 303.932C445.042 298.185 446.16 292.408 447.872 286.667Z" fill="#400040" fill-opacity="0.31"/>
<path d="M618.318 349.381C600.123 390.775 553.522 413.105 509.069 399.852C466.655 387.208 440.344 346.388 444.482 303.932C445.911 297.86 447.85 291.589 450.342 285.125C464.361 248.753 534.721 249.891 596.171 268.966C615.613 296.346 626.715 319.866 632.374 335.909C627.684 339.362 622.916 343.777 618.318 349.381Z" fill="url(#paint8_linear_206_1198)"/>
<path d="M618.318 349.381C600.123 390.775 553.522 413.105 509.069 399.852C466.655 387.208 440.344 346.388 444.482 303.932C445.911 297.86 447.85 291.589 450.342 285.125C464.361 248.753 534.721 249.891 596.171 268.966C615.613 296.346 626.715 319.866 632.374 335.909C627.684 339.362 622.916 343.777 618.318 349.381Z" fill="#400040" fill-opacity="0.31"/>
<path fill-rule="evenodd" clip-rule="evenodd" d="M803.735 207.183C800.997 221.688 797.696 238.644 793.984 257.084C798.292 249.174 801.844 240.699 804.52 231.722C823.971 166.479 790.193 98.0223 728.374 72.9378C783.048 125.094 802.288 177.209 803.735 207.183ZM664.996 324.583C665.143 324.597 665.286 324.612 665.425 324.629C665.282 324.614 665.139 324.598 664.996 324.583ZM656.371 325.114C659.874 324.48 662.831 324.378 664.996 324.583C662.537 324.316 660.074 323.979 657.611 323.569C657.2 324.083 656.786 324.598 656.371 325.114ZM529.57 213.045C531.94 212.342 534.043 211.496 535.904 210.538C550.095 203.231 550.274 189.384 548.249 182.663L543.009 181.1C538.997 189.314 534.167 198.07 528.704 205.928C499.67 187.921 470.093 176.382 453.322 171.578C436.958 166.507 406.707 160.109 373.283 159.092C373.054 149.68 373.801 139.899 374.922 130.988L363.636 127.624C362.329 136.309 361.268 149.818 362.97 158.956C364.181 165.453 366.789 169.74 371.701 168.511C372.405 168.334 373.116 168.191 373.832 168.077C385.125 166.28 397.559 171.942 402.62 175.197C416.514 182.377 448.661 196.721 466.1 196.654C481.768 196.594 509.307 205.441 524.812 211.221C526.563 211.874 528.161 212.488 529.57 213.045ZM280.377 174.878C250.124 186.755 228.396 199.881 214.789 210.07C211.402 201.593 206.917 195.273 202.693 190.891C199.559 187.639 196.568 185.454 194.28 184.248C194.152 184.182 194.024 184.117 193.896 184.051C194.021 184.113 194.149 184.179 194.28 184.248C196.932 185.6 199.644 186.868 202.414 188.049C201.326 176.613 200.866 166.045 205.955 165.681C227.66 164.128 254.126 167.685 280.377 174.878Z" fill="url(#paint9_linear_206_1198)"/>
<path fill-rule="evenodd" clip-rule="evenodd" d="M803.735 207.183C800.997 221.688 797.696 238.644 793.984 257.084C798.292 249.174 801.844 240.699 804.52 231.722C823.971 166.479 790.193 98.0223 728.374 72.9378C783.048 125.094 802.288 177.209 803.735 207.183ZM664.996 324.583C665.143 324.597 665.286 324.612 665.425 324.629C665.282 324.614 665.139 324.598 664.996 324.583ZM656.371 325.114C659.874 324.48 662.831 324.378 664.996 324.583C662.537 324.316 660.074 323.979 657.611 323.569C657.2 324.083 656.786 324.598 656.371 325.114ZM529.57 213.045C531.94 212.342 534.043 211.496 535.904 210.538C550.095 203.231 550.274 189.384 548.249 182.663L543.009 181.1C538.997 189.314 534.167 198.07 528.704 205.928C499.67 187.921 470.093 176.382 453.322 171.578C436.958 166.507 406.707 160.109 373.283 159.092C373.054 149.68 373.801 139.899 374.922 130.988L363.636 127.624C362.329 136.309 361.268 149.818 362.97 158.956C364.181 165.453 366.789 169.74 371.701 168.511C372.405 168.334 373.116 168.191 373.832 168.077C385.125 166.28 397.559 171.942 402.62 175.197C416.514 182.377 448.661 196.721 466.1 196.654C481.768 196.594 509.307 205.441 524.812 211.221C526.563 211.874 528.161 212.488 529.57 213.045ZM280.377 174.878C250.124 186.755 228.396 199.881 214.789 210.07C211.402 201.593 206.917 195.273 202.693 190.891C199.559 187.639 196.568 185.454 194.28 184.248C194.152 184.182 194.024 184.117 193.896 184.051C194.021 184.113 194.149 184.179 194.28 184.248C196.932 185.6 199.644 186.868 202.414 188.049C201.326 176.613 200.866 166.045 205.955 165.681C227.66 164.128 254.126 167.685 280.377 174.878Z" fill="#400040" fill-opacity="0.31"/>
<path d="M619.571 367.984C611.88 381.894 574.04 432.387 520.711 421.045C471.953 410.676 429.241 368.672 444.482 303.932C440.344 346.388 466.655 387.208 509.069 399.852C553.522 413.105 600.123 390.775 618.318 349.381C622.916 343.777 627.684 339.362 632.374 335.909C634.679 342.446 636.081 347.741 636.776 351.551C631.043 354.755 623.866 360.216 619.571 367.984Z" fill="url(#paint10_linear_206_1198)"/>
<path d="M619.571 367.984C611.88 381.894 574.04 432.387 520.711 421.045C471.953 410.676 429.241 368.672 444.482 303.932C440.344 346.388 466.655 387.208 509.069 399.852C553.522 413.105 600.123 390.775 618.318 349.381C622.916 343.777 627.684 339.362 632.374 335.909C634.679 342.446 636.081 347.741 636.776 351.551C631.043 354.755 623.866 360.216 619.571 367.984Z" fill="#400040" fill-opacity="0.31"/>
<path d="M263.569 344.383C212.735 324.671 208.723 261.7 209.904 245.849C210.675 235.507 206.429 225.645 202.984 219.976C205.817 217.22 209.745 213.847 214.789 210.07C217.104 215.867 218.906 222.673 219.758 230.558C212.316 275.157 239.081 319.361 283.534 332.613C330.261 346.544 379.36 321.16 395.348 275.646C376.269 349.041 312.986 363.546 263.569 344.383Z" fill="url(#paint11_linear_206_1198)"/>
<path d="M263.569 344.383C212.735 324.671 208.723 261.7 209.904 245.849C210.675 235.507 206.429 225.645 202.984 219.976C205.817 217.22 209.745 213.847 214.789 210.07C217.104 215.867 218.906 222.673 219.758 230.558C212.316 275.157 239.081 319.361 283.534 332.613C330.261 346.544 379.36 321.16 395.348 275.646C376.269 349.041 312.986 363.546 263.569 344.383Z" fill="#400040" fill-opacity="0.31"/>
<path d="M291.37 -57.9786C360.712 -37.3056 400.166 35.6662 379.493 105.008C378.112 111.055 376.253 120.408 374.922 130.988C373.801 139.899 373.054 149.68 373.283 159.092C373.357 162.14 373.533 165.149 373.832 168.077C374.452 174.149 375.599 179.873 377.456 184.873C397.714 207.643 406.067 240.064 396.72 271.417C396.294 272.845 395.836 274.255 395.348 275.646C379.36 321.16 330.261 346.544 283.534 332.613C239.081 319.361 212.316 275.157 219.758 230.558C218.906 222.673 217.104 215.867 214.789 210.07C211.402 201.593 206.917 195.273 202.694 190.891C199.559 187.639 196.568 185.454 194.28 184.248C194.149 184.179 194.021 184.113 193.896 184.051C144.83 158.828 116.587 104.953 124.085 50.0169C124.989 43.3921 126.413 36.7518 128.383 30.1445C147.595 -34.2961 211.973 -72.9246 276.631 -61.472C281.549 -60.6009 286.468 -59.44 291.37 -57.9786Z" fill="url(#paint12_linear_206_1198)"/>
<path d="M291.37 -57.9786C360.712 -37.3056 400.166 35.6662 379.493 105.008C378.112 111.055 376.253 120.408 374.922 130.988C373.801 139.899 373.054 149.68 373.283 159.092C373.357 162.14 373.533 165.149 373.832 168.077C374.452 174.149 375.599 179.873 377.456 184.873C397.714 207.643 406.067 240.064 396.72 271.417C396.294 272.845 395.836 274.255 395.348 275.646C379.36 321.16 330.261 346.544 283.534 332.613C239.081 319.361 212.316 275.157 219.758 230.558C218.906 222.673 217.104 215.867 214.789 210.07C211.402 201.593 206.917 195.273 202.694 190.891C199.559 187.639 196.568 185.454 194.28 184.248C194.149 184.179 194.021 184.113 193.896 184.051C144.83 158.828 116.587 104.953 124.085 50.0169C124.989 43.3921 126.413 36.7518 128.383 30.1445C147.595 -34.2961 211.973 -72.9246 276.631 -61.472C281.549 -60.6009 286.468 -59.44 291.37 -57.9786Z" fill="#FFA6FF" fill-opacity="0.25"/>
<path d="M716.397 68.7353C647.055 48.0622 574.083 87.5163 553.41 156.858C551.255 162.674 547.689 171.518 543.009 181.1C538.997 189.314 534.167 198.07 528.704 205.928C527.44 207.746 526.141 209.517 524.812 211.221C520.624 216.588 516.123 221.301 511.381 224.801C481.962 232.76 457.219 255.314 447.872 286.667C446.16 292.408 445.042 298.185 444.482 303.932C440.344 346.388 466.655 387.208 509.069 399.852C553.522 413.105 600.123 390.775 618.318 349.381C622.916 343.777 627.684 339.362 632.374 335.909C641.206 329.404 649.76 326.311 656.371 325.114C659.874 324.48 662.831 324.378 664.996 324.583C665.143 324.597 665.286 324.612 665.425 324.629C717.92 330.142 768.828 303.272 793.984 257.084C798.292 249.174 801.844 240.699 804.52 231.722C823.971 166.479 790.193 98.0223 728.374 72.9378C724.49 71.362 720.496 69.9573 716.397 68.7353Z" fill="url(#paint13_linear_206_1198)"/>
<path d="M716.397 68.7353C647.055 48.0622 574.083 87.5163 553.41 156.858C551.255 162.674 547.689 171.518 543.009 181.1C538.997 189.314 534.167 198.07 528.704 205.928C527.44 207.746 526.141 209.517 524.812 211.221C520.624 216.588 516.123 221.301 511.381 224.801C481.962 232.76 457.219 255.314 447.872 286.667C446.16 292.408 445.042 298.185 444.482 303.932C440.344 346.388 466.655 387.208 509.069 399.852C553.522 413.105 600.123 390.775 618.318 349.381C622.916 343.777 627.684 339.362 632.374 335.909C641.206 329.404 649.76 326.311 656.371 325.114C659.874 324.48 662.831 324.378 664.996 324.583C665.143 324.597 665.286 324.612 665.425 324.629C717.92 330.142 768.828 303.272 793.984 257.084C798.292 249.174 801.844 240.699 804.52 231.722C823.971 166.479 790.193 98.0223 728.374 72.9378C724.49 71.362 720.496 69.9573 716.397 68.7353Z" fill="#FFA6FF" fill-opacity="0.25"/>
<path fill-rule="evenodd" clip-rule="evenodd" d="M371.701 168.511C366.789 169.74 364.181 165.453 362.97 158.956C340.751 159.054 317.641 161.749 296.639 168.918C290.968 170.855 285.548 172.848 280.377 174.878C343.413 192.152 405.212 230.392 396.879 269.186C396.406 271.388 395.895 273.541 395.348 275.646C379.36 321.16 330.261 346.544 283.534 332.613C239.081 319.361 212.316 275.157 219.758 230.558C218.906 222.673 217.104 215.867 214.789 210.07C211.402 201.593 206.917 195.273 202.694 190.891C199.559 187.639 196.568 185.454 194.28 184.248C194.152 184.182 194.024 184.117 193.896 184.051C144.83 158.828 116.587 104.953 124.085 50.0169C130.081 35.1041 135.682 21.396 140.618 9.48723C158.197 -14.7405 202.656 -47.7077 276.631 -61.472C281.549 -60.6009 286.468 -59.44 291.37 -57.9786C360.712 -37.3056 400.166 35.6662 379.493 105.008C378.112 111.055 376.253 120.408 374.922 130.988C373.801 139.899 373.054 149.68 373.283 159.092C373.357 162.14 373.533 165.149 373.832 168.077C373.116 168.191 372.405 168.334 371.701 168.511ZM524.812 211.221C526.141 209.517 527.44 207.746 528.704 205.928C534.167 198.07 538.997 189.314 543.009 181.1C547.689 171.518 551.255 162.674 553.41 156.858C574.083 87.5163 647.055 48.0622 716.397 68.7353C720.496 69.9573 724.49 71.362 728.374 72.9378C783.048 125.094 802.288 177.209 803.735 207.183C800.997 221.688 797.696 238.644 793.984 257.084C768.828 303.272 717.92 330.142 665.425 324.629C665.282 324.614 665.139 324.598 664.996 324.583C662.831 324.378 659.874 324.48 656.371 325.114C649.76 326.311 641.206 329.404 632.374 335.909C627.684 339.362 622.916 343.777 618.318 349.381C600.123 390.775 553.522 413.105 509.069 399.852C466.655 387.208 440.344 346.388 444.482 303.932C445.911 297.86 447.85 291.589 450.342 285.125C464.361 248.753 534.721 249.891 596.171 268.966C592.971 264.46 589.545 259.849 585.881 255.15C572.252 237.673 554.417 222.779 535.904 210.538C534.043 211.496 531.94 212.342 529.57 213.045C528.161 212.488 526.563 211.874 524.812 211.221Z" fill="url(#paint14_linear_206_1198)"/>
<path fill-rule="evenodd" clip-rule="evenodd" d="M371.701 168.511C366.789 169.74 364.181 165.453 362.97 158.956C340.751 159.054 317.641 161.749 296.639 168.918C290.968 170.855 285.548 172.848 280.377 174.878C343.413 192.152 405.212 230.392 396.879 269.186C396.406 271.388 395.895 273.541 395.348 275.646C379.36 321.16 330.261 346.544 283.534 332.613C239.081 319.361 212.316 275.157 219.758 230.558C218.906 222.673 217.104 215.867 214.789 210.07C211.402 201.593 206.917 195.273 202.694 190.891C199.559 187.639 196.568 185.454 194.28 184.248C194.152 184.182 194.024 184.117 193.896 184.051C144.83 158.828 116.587 104.953 124.085 50.0169C130.081 35.1041 135.682 21.396 140.618 9.48723C158.197 -14.7405 202.656 -47.7077 276.631 -61.472C281.549 -60.6009 286.468 -59.44 291.37 -57.9786C360.712 -37.3056 400.166 35.6662 379.493 105.008C378.112 111.055 376.253 120.408 374.922 130.988C373.801 139.899 373.054 149.68 373.283 159.092C373.357 162.14 373.533 165.149 373.832 168.077C373.116 168.191 372.405 168.334 371.701 168.511ZM524.812 211.221C526.141 209.517 527.44 207.746 528.704 205.928C534.167 198.07 538.997 189.314 543.009 181.1C547.689 171.518 551.255 162.674 553.41 156.858C574.083 87.5163 647.055 48.0622 716.397 68.7353C720.496 69.9573 724.49 71.362 728.374 72.9378C783.048 125.094 802.288 177.209 803.735 207.183C800.997 221.688 797.696 238.644 793.984 257.084C768.828 303.272 717.92 330.142 665.425 324.629C665.282 324.614 665.139 324.598 664.996 324.583C662.831 324.378 659.874 324.48 656.371 325.114C649.76 326.311 641.206 329.404 632.374 335.909C627.684 339.362 622.916 343.777 618.318 349.381C600.123 390.775 553.522 413.105 509.069 399.852C466.655 387.208 440.344 346.388 444.482 303.932C445.911 297.86 447.85 291.589 450.342 285.125C464.361 248.753 534.721 249.891 596.171 268.966C592.971 264.46 589.545 259.849 585.881 255.15C572.252 237.673 554.417 222.779 535.904 210.538C534.043 211.496 531.94 212.342 529.57 213.045C528.161 212.488 526.563 211.874 524.812 211.221Z" fill="#FFA6FF" fill-opacity="0.25"/>
<circle cx="69.1474" cy="69.1474" r="69.1474" transform="matrix(-0.958318 -0.285705 -0.285705 0.958318 620.618 266.013)" fill="url(#paint15_radial_206_1198)"/>
<path d="M502.252 350.182L527.942 264.01C528.968 260.569 532.589 258.611 536.03 259.637L561.387 267.197C564.828 268.223 566.786 271.843 565.76 275.284L540.069 361.457C539.043 364.898 535.422 366.856 531.982 365.83L506.624 358.27C503.184 357.244 501.226 353.623 502.252 350.182Z" fill="#571727" stroke="#422641" stroke-width="6.98564"/>
<path d="M491.367 281.286L586.903 309.769C590.344 310.795 592.302 314.416 591.276 317.856L584.731 339.808C583.706 343.249 580.085 345.207 576.644 344.181L481.107 315.698C477.667 314.672 475.709 311.052 476.735 307.611L483.279 285.659C484.305 282.218 487.926 280.261 491.367 281.286Z" fill="url(#paint16_linear_206_1198)" stroke="#422641" stroke-width="6.98564"/>
<path d="M492.479 277.554L588.016 306.037C590.662 306.826 592.168 309.611 591.379 312.258L584.835 334.21C584.046 336.856 581.26 338.362 578.614 337.573L483.077 309.091C480.43 308.302 478.924 305.516 479.713 302.87L486.258 280.918C487.047 278.271 489.832 276.765 492.479 277.554Z" fill="url(#paint17_linear_206_1198)"/>
<path d="M505.229 345.446L530.919 259.273C531.708 256.626 534.494 255.12 537.141 255.909L562.498 263.469C565.145 264.258 566.651 267.043 565.862 269.69L540.171 355.863C539.382 358.51 536.596 360.016 533.95 359.227L508.592 351.667C505.945 350.878 504.44 348.092 505.229 345.446Z" fill="#862F63"/>
<path d="M574.441 318.624L567.58 316.579" stroke="#FFD8D8" stroke-width="13.9713" stroke-linecap="round"/>
<path d="M502.99 297.323L496.129 295.277" stroke="#FFD8D8" stroke-width="13.9713" stroke-linecap="round"/>
<path d="M545.948 271.786L543.903 278.648" stroke="#FFD8D8" stroke-width="13.9713" stroke-linecap="round"/>
<path d="M526.595 336.699L524.549 343.561" stroke="#FFD8D8" stroke-width="13.9713" stroke-linecap="round"/>
<path d="M241.524 109.214C215.585 101.481 200.408 75.5855 207.626 51.3753C214.844 27.1651 241.723 13.8079 267.662 21.5411C293.601 29.2744 308.778 55.1697 301.56 79.3799C294.342 103.59 267.463 116.947 241.524 109.214Z" fill="#422641"/>
<path d="M243.972 100.997C220.464 93.9883 206.709 70.5194 213.251 48.5777C219.792 26.636 244.153 14.5303 267.661 21.5389C291.17 28.5475 304.924 52.0164 298.383 73.9582C291.841 95.8999 267.481 108.006 243.972 100.997Z" fill="#95326D"/>
<path fill-rule="evenodd" clip-rule="evenodd" d="M298.257 51.1736C298.736 54.5333 298.715 57.8413 298.298 60.9547C296.377 75.3043 286.199 88.3678 263.501 93.381C249.999 96.3628 234.994 91.3992 220.596 85.1814C226.234 92.4132 234.273 98.1057 243.972 100.997C267.481 108.006 291.841 95.9005 298.383 73.9584C300.668 66.2946 300.476 58.443 298.257 51.1736Z" fill="#62284B"/>
<path d="M242.218 34.4587C240.664 33.9955 239.78 32.3605 240.243 30.8069C240.707 29.2532 242.342 28.3692 243.895 28.8324C245.449 29.2956 246.333 30.9306 245.87 32.4843C245.407 34.0379 243.772 34.9219 242.218 34.4587Z" fill="#FFDEDE"/>
<path d="M315.224 154.984C298.916 150.122 289.374 133.841 293.912 118.62C298.45 103.399 315.349 95.0008 331.657 99.8628C347.966 104.725 357.507 121.006 352.969 136.227C348.431 151.448 331.532 159.846 315.224 154.984Z" fill="#422641"/>
<path d="M316.763 149.817C301.983 145.411 293.335 130.656 297.448 116.86C301.56 103.065 316.876 95.4544 331.656 99.8608C346.436 104.267 355.084 119.022 350.971 132.818C346.858 146.613 331.543 154.224 316.763 149.817Z" fill="#95326D"/>
<path fill-rule="evenodd" clip-rule="evenodd" d="M350.892 118.492C351.193 120.605 351.18 122.684 350.918 124.642C349.71 133.664 343.311 141.877 329.04 145.029C320.552 146.903 311.118 143.783 302.066 139.874C305.61 144.42 310.665 147.999 316.763 149.817C331.543 154.224 346.858 146.613 350.971 132.818C352.408 127.999 352.287 123.063 350.892 118.492Z" fill="#62284B"/>
<path d="M315.661 107.984C314.684 107.693 314.128 106.665 314.419 105.688C314.71 104.711 315.738 104.155 316.715 104.446C317.692 104.738 318.248 105.766 317.957 106.742C317.665 107.719 316.637 108.275 315.661 107.984Z" fill="#FFDEDE"/>
<path d="M460.605 153.092C449.433 149.761 442.896 138.608 446.005 128.181C449.114 117.754 460.69 112.001 471.862 115.331C483.034 118.662 489.57 129.815 486.462 140.242C483.353 150.669 471.776 156.422 460.605 153.092Z" fill="#422641"/>
<path d="M461.659 149.553C451.534 146.534 445.61 136.426 448.428 126.976C451.245 117.526 461.737 112.312 471.862 115.331C481.987 118.349 487.911 128.457 485.093 137.907C482.276 147.357 471.784 152.571 461.659 149.553Z" fill="#95326D"/>
<path fill-rule="evenodd" clip-rule="evenodd" d="M485.039 128.094C485.246 129.541 485.237 130.966 485.057 132.307C484.229 138.487 479.846 144.113 470.07 146.272C464.255 147.557 457.792 145.419 451.591 142.741C454.02 145.856 457.482 148.307 461.659 149.553C471.784 152.571 482.276 147.358 485.093 137.907C486.078 134.606 485.995 131.225 485.039 128.094Z" fill="#62284B"/>
<path d="M460.905 120.896C460.236 120.696 459.855 119.992 460.055 119.323C460.254 118.654 460.959 118.273 461.628 118.472C462.297 118.672 462.678 119.376 462.478 120.045C462.279 120.714 461.574 121.095 460.905 120.896Z" fill="#FFDEDE"/>
<path d="M324.68 28.1577C328.535 26.2687 335.816 17.2999 331.335 5.83683C325.733 -8.49205 300.922 -30.5731 278.109 -26.2347C255.295 -21.8964 259.084 2.94586 268.681 5.38655C279.373 8.10552 294.207 17.4271 305.089 27.6336C309.046 31.3451 317.268 31.7903 324.68 28.1577Z" fill="#6A1A4A"/>
<path d="M325.928 23.9727C329.782 22.0837 337.064 13.1149 332.582 1.65177C326.98 -12.6771 302.17 -34.7581 279.356 -30.4198C256.543 -26.0814 260.331 -1.23919 269.929 1.20149C280.621 3.92046 295.454 13.242 306.336 23.4485C310.293 27.16 318.515 27.6053 325.928 23.9727Z" fill="#95326D"/>
<path d="M212.085 -0.0933874C210.134 -3.91673 200.721 -5.27478 188.422 -4.82184C173.323 -4.26583 151.86 22.2014 157.216 48.9165C161.782 71.6854 186.701 67.4663 188.986 57.8304C191.531 47.096 200.612 32.1133 210.641 21.0677C214.287 17.0511 215.837 7.25917 212.085 -0.0933874Z" fill="#6A1A4A"/>
<path d="M211.097 -4.45784C209.146 -8.28119 200.06 -15.4167 188.671 -10.75C174.435 -4.91678 152.759 20.2483 157.466 42.9883C162.173 65.7283 186.951 61.5381 189.236 51.9022C191.781 41.1678 200.861 26.1851 210.89 15.1395C214.537 11.1229 214.849 2.89472 211.097 -4.45784Z" fill="#95326D"/>
<ellipse cx="57.9868" cy="38.8196" rx="57.9868" ry="38.8196" transform="matrix(-0.958318 -0.285705 -0.285705 0.958318 749.717 174.369)" fill="url(#paint18_radial_206_1198)"/>
<path d="M624.59 169.471C615.862 198.749 635.955 230.583 669.471 240.575C702.986 250.567 737.231 234.933 745.96 205.655C754.689 176.378 734.595 144.543 701.08 134.551C667.564 124.559 633.319 140.193 624.59 169.471ZM738.958 203.568C731.493 228.607 700.373 241.611 671.71 233.065C643.046 224.52 624.794 196.797 632.259 171.758C639.724 146.718 670.704 131.749 699.368 140.294C728.031 148.84 746.423 178.528 738.958 203.568Z" fill="#ED5164"/>
<path fill-rule="evenodd" clip-rule="evenodd" d="M740.843 175.432C747.719 151.629 732.188 126.103 706.001 118.296C679.814 110.489 652.841 123.343 645.56 147.025L645.531 147.016L639.445 167.429L639.447 167.429C639.411 167.546 639.375 167.663 639.34 167.781C632.213 191.688 647.772 217.431 674.093 225.278C700.414 233.125 727.529 220.105 734.657 196.198C734.692 196.08 734.726 195.963 734.76 195.845L734.762 195.846L740.848 175.433L740.843 175.432Z" fill="url(#paint19_linear_206_1198)"/>
<ellipse cx="49.9802" cy="45.1278" rx="49.9802" ry="45.1278" transform="matrix(-0.958318 -0.285705 -0.285705 0.958318 754.061 132.624)" fill="url(#paint20_radial_206_1198)"/>
<ellipse cx="33.7245" cy="29.1147" rx="33.7245" ry="29.1147" transform="matrix(-0.958318 -0.285705 -0.285705 0.958318 734.555 142)" fill="url(#paint21_radial_206_1198)"/>
<ellipse cx="57.9868" cy="38.8196" rx="57.9868" ry="38.8196" transform="matrix(-0.958318 -0.285705 -0.285705 0.958318 749.717 174.369)" fill="url(#paint22_radial_206_1198)"/>
<path d="M624.59 169.471C615.862 198.749 635.955 230.583 669.471 240.575C702.986 250.567 737.231 234.933 745.96 205.655C754.689 176.378 734.595 144.543 701.08 134.551C667.564 124.559 633.319 140.193 624.59 169.471ZM738.958 203.568C731.493 228.607 700.373 241.611 671.71 233.065C643.046 224.52 624.794 196.797 632.259 171.758C639.724 146.718 670.704 131.749 699.368 140.294C728.031 148.84 746.423 178.528 738.958 203.568Z" fill="#973357"/>
<path fill-rule="evenodd" clip-rule="evenodd" d="M740.843 175.432C747.719 151.629 732.188 126.103 706.001 118.296C679.814 110.489 652.841 123.343 645.56 147.025L645.531 147.016L639.445 167.429L639.447 167.429C639.411 167.546 639.375 167.663 639.34 167.781C632.213 191.688 647.772 217.431 674.093 225.278C700.414 233.125 727.529 220.105 734.657 196.198C734.692 196.08 734.726 195.963 734.76 195.845L734.762 195.846L740.848 175.433L740.843 175.432Z" fill="url(#paint23_linear_206_1198)"/>
<ellipse cx="49.9802" cy="45.1278" rx="49.9802" ry="45.1278" transform="matrix(-0.958318 -0.285705 -0.285705 0.958318 754.061 132.624)" fill="url(#paint24_radial_206_1198)"/>
<ellipse cx="33.7245" cy="29.1147" rx="33.7245" ry="29.1147" transform="matrix(-0.958318 -0.285705 -0.285705 0.958318 734.555 142)" fill="url(#paint25_radial_206_1198)"/>
<ellipse cx="57.9868" cy="38.8196" rx="57.9868" ry="38.8196" transform="matrix(-0.958318 -0.285705 -0.285705 0.958318 372.279 234.509)" fill="url(#paint26_radial_206_1198)"/>
<path d="M247.151 229.611C238.423 258.889 258.516 290.723 292.032 300.715C325.547 310.707 359.792 295.073 368.521 265.795C377.25 236.518 357.156 204.683 323.641 194.691C290.125 184.699 255.88 200.333 247.151 229.611ZM361.519 263.708C354.054 288.747 322.934 301.751 294.271 293.205C265.607 284.66 247.355 256.937 254.82 231.898C262.285 206.858 293.265 191.889 321.929 200.434C350.592 208.98 368.984 238.668 361.519 263.708Z" fill="#973357"/>
<path fill-rule="evenodd" clip-rule="evenodd" d="M363.405 235.572C370.281 211.769 354.75 186.243 328.563 178.436C302.377 170.629 275.404 183.483 268.123 207.165L268.093 207.156L262.007 227.568L262.009 227.569C261.973 227.686 261.937 227.803 261.902 227.92C254.775 251.828 270.334 277.57 296.655 285.417C322.976 293.265 350.092 280.245 357.219 256.337C357.254 256.22 357.289 256.102 357.323 255.985L357.324 255.985L363.41 235.573L363.405 235.572Z" fill="url(#paint27_linear_206_1198)"/>
<ellipse cx="49.9802" cy="45.1278" rx="49.9802" ry="45.1278" transform="matrix(-0.958318 -0.285705 -0.285705 0.958318 376.623 192.764)" fill="url(#paint28_radial_206_1198)"/>
<ellipse cx="33.7245" cy="29.1147" rx="33.7245" ry="29.1147" transform="matrix(-0.958318 -0.285705 -0.285705 0.958318 357.119 202.14)" fill="url(#paint29_radial_206_1198)"/>
<rect width="127.353" height="30.757" rx="15.3785" transform="matrix(-0.958318 -0.285705 -0.285705 0.958318 566.515 19.4933)" fill="#6A12DA" fill-opacity="0.2"/>
</g>
<defs>
<filter id="filter0_d_206_1198" x="0.243209" y="-78.0153" width="809.772" height="691.996" filterUnits="userSpaceOnUse" color-interpolation-filters="sRGB">
<feFlood flood-opacity="0" result="BackgroundImageFix"/>
<feColorMatrix in="SourceAlpha" type="matrix" values="0 0 0 0 0 0 0 0 0 0 0 0 0 0 0 0 0 0 127 0" result="hardAlpha"/>
<feOffset dx="-24.3183" dy="24.3183"/>
<feGaussianBlur stdDeviation="3.03979"/>
<feComposite in2="hardAlpha" operator="out"/>
<feColorMatrix type="matrix" values="0 0 0 0 0.4125 0 0 0 0 0.152969 0 0 0 0 0.356523 0 0 0 0.25 0"/>
<feBlend mode="normal" in2="BackgroundImageFix" result="effect1_dropShadow_206_1198"/>
<feBlend mode="normal" in="SourceGraphic" in2="effect1_dropShadow_206_1198" result="shape"/>
</filter>
<linearGradient id="paint0_linear_206_1198" x1="724.59" y1="22.5681" x2="720.826" y2="103.981" gradientUnits="userSpaceOnUse">
<stop stop-color="#801A32"/>
<stop offset="1" stop-color="#D840A4"/>
</linearGradient>
<linearGradient id="paint1_linear_206_1198" x1="595.529" y1="-162.751" x2="391.178" y2="522.687" gradientUnits="userSpaceOnUse">
<stop stop-color="#FF8080"/>
<stop offset="0.5" stop-color="#F6535D"/>
<stop offset="1" stop-color="#F0538C"/>
</linearGradient>
<linearGradient id="paint2_linear_206_1198" x1="595.529" y1="-162.751" x2="391.178" y2="522.687" gradientUnits="userSpaceOnUse">
<stop stop-color="#FF8080"/>
<stop offset="0.5" stop-color="#F6535D"/>
<stop offset="1" stop-color="#F0538C"/>
</linearGradient>
<linearGradient id="paint3_linear_206_1198" x1="595.529" y1="-162.751" x2="391.178" y2="522.687" gradientUnits="userSpaceOnUse">
<stop stop-color="#FF8080"/>
<stop offset="0.5" stop-color="#F6535D"/>
<stop offset="1" stop-color="#F0538C"/>
</linearGradient>
<linearGradient id="paint4_linear_206_1198" x1="595.529" y1="-162.751" x2="391.178" y2="522.687" gradientUnits="userSpaceOnUse">
<stop stop-color="#FF8080"/>
<stop offset="0.5" stop-color="#F6535D"/>
<stop offset="1" stop-color="#F0538C"/>
</linearGradient>
<linearGradient id="paint5_linear_206_1198" x1="595.529" y1="-162.751" x2="391.178" y2="522.687" gradientUnits="userSpaceOnUse">
<stop stop-color="#FF8080"/>
<stop offset="0.5" stop-color="#F6535D"/>
<stop offset="1" stop-color="#F0538C"/>
</linearGradient>
<linearGradient id="paint6_linear_206_1198" x1="595.529" y1="-162.751" x2="391.178" y2="522.687" gradientUnits="userSpaceOnUse">
<stop stop-color="#FF8080"/>
<stop offset="0.5" stop-color="#F6535D"/>
<stop offset="1" stop-color="#F0538C"/>
</linearGradient>
<linearGradient id="paint7_linear_206_1198" x1="595.529" y1="-162.751" x2="391.178" y2="522.687" gradientUnits="userSpaceOnUse">
<stop stop-color="#FF8080"/>
<stop offset="0.5" stop-color="#F6535D"/>
<stop offset="1" stop-color="#F0538C"/>
</linearGradient>
<linearGradient id="paint8_linear_206_1198" x1="595.529" y1="-162.751" x2="391.178" y2="522.687" gradientUnits="userSpaceOnUse">
<stop stop-color="#FF8080"/>
<stop offset="0.5" stop-color="#F6535D"/>
<stop offset="1" stop-color="#F0538C"/>
</linearGradient>
<linearGradient id="paint9_linear_206_1198" x1="595.529" y1="-162.751" x2="391.178" y2="522.687" gradientUnits="userSpaceOnUse">
<stop stop-color="#FF8080"/>
<stop offset="0.5" stop-color="#F6535D"/>
<stop offset="1" stop-color="#F0538C"/>
</linearGradient>
<linearGradient id="paint10_linear_206_1198" x1="595.529" y1="-162.751" x2="391.178" y2="522.687" gradientUnits="userSpaceOnUse">
<stop stop-color="#FF8080"/>
<stop offset="0.5" stop-color="#F6535D"/>
<stop offset="1" stop-color="#F0538C"/>
</linearGradient>
<linearGradient id="paint11_linear_206_1198" x1="595.529" y1="-162.751" x2="391.178" y2="522.687" gradientUnits="userSpaceOnUse">
<stop stop-color="#FF8080"/>
<stop offset="0.5" stop-color="#F6535D"/>
<stop offset="1" stop-color="#F0538C"/>
</linearGradient>
<linearGradient id="paint12_linear_206_1198" x1="595.529" y1="-162.751" x2="391.178" y2="522.687" gradientUnits="userSpaceOnUse">
<stop stop-color="#FF8080"/>
<stop offset="0.5" stop-color="#F6535D"/>
<stop offset="1" stop-color="#F0538C"/>
</linearGradient>
<linearGradient id="paint13_linear_206_1198" x1="595.529" y1="-162.751" x2="391.178" y2="522.687" gradientUnits="userSpaceOnUse">
<stop stop-color="#FF8080"/>
<stop offset="0.5" stop-color="#F6535D"/>
<stop offset="1" stop-color="#F0538C"/>
</linearGradient>
<linearGradient id="paint14_linear_206_1198" x1="595.529" y1="-162.751" x2="391.178" y2="522.687" gradientUnits="userSpaceOnUse">
<stop stop-color="#FF8080"/>
<stop offset="0.5" stop-color="#F6535D"/>
<stop offset="1" stop-color="#F0538C"/>
</linearGradient>
<radialGradient id="paint15_radial_206_1198" cx="0" cy="0" r="1" gradientUnits="userSpaceOnUse" gradientTransform="translate(69.1474 69.1474) rotate(90) scale(69.1474)">
<stop offset="0.458333" stop-color="#E04F7B" stop-opacity="0.949219"/>
<stop offset="1" stop-color="#CE406B" stop-opacity="0.949219"/>
</radialGradient>
<linearGradient id="paint16_linear_206_1198" x1="476.744" y1="312.832" x2="581.865" y2="344.172" gradientUnits="userSpaceOnUse">
<stop stop-color="#7C3939"/>
<stop offset="0.078125" stop-color="#571726"/>
<stop offset="1" stop-color="#571727"/>
</linearGradient>
<linearGradient id="paint17_linear_206_1198" x1="588.107" y1="323.234" x2="482.986" y2="291.894" gradientUnits="userSpaceOnUse">
<stop stop-color="#87374A"/>
<stop offset="0.286458" stop-color="#862F63"/>
<stop offset="0.744792" stop-color="#862F63"/>
<stop offset="1" stop-color="#5A1123"/>
</linearGradient>
<radialGradient id="paint18_radial_206_1198" cx="0" cy="0" r="1" gradientUnits="userSpaceOnUse" gradientTransform="translate(60.8165 14.6777) rotate(90) scale(65.645 74.5765)">
<stop stop-color="#201226"/>
<stop offset="1" stop-color="#573D5E"/>
</radialGradient>
<linearGradient id="paint19_linear_206_1198" x1="735.652" y1="192.861" x2="640.335" y2="164.444" gradientUnits="userSpaceOnUse">
<stop stop-color="#5B162F"/>
<stop offset="1" stop-color="#782548"/>
</linearGradient>
<radialGradient id="paint20_radial_206_1198" cx="0" cy="0" r="1" gradientUnits="userSpaceOnUse" gradientTransform="translate(49.9802 45.1278) rotate(90) scale(45.1278 49.9802)">
<stop offset="0.946948" stop-color="#7E3252"/>
<stop offset="1" stop-color="#6F476D" stop-opacity="0"/>
</radialGradient>
<radialGradient id="paint21_radial_206_1198" cx="0" cy="0" r="1" gradientUnits="userSpaceOnUse" gradientTransform="translate(50.3678 23.7773) rotate(112.468) scale(61.3977 72.8038)">
<stop stop-color="#451234" stop-opacity="0.86"/>
<stop offset="0.58085" stop-color="#6B1F4B" stop-opacity="0.420491"/>
<stop offset="1" stop-color="#F794C9" stop-opacity="0"/>
</radialGradient>
<radialGradient id="paint22_radial_206_1198" cx="0" cy="0" r="1" gradientUnits="userSpaceOnUse" gradientTransform="translate(60.8165 14.6777) rotate(90) scale(65.645 74.5765)">
<stop stop-color="#201226"/>
<stop offset="1" stop-color="#573D5E"/>
</radialGradient>
<linearGradient id="paint23_linear_206_1198" x1="735.652" y1="192.861" x2="640.335" y2="164.444" gradientUnits="userSpaceOnUse">
<stop stop-color="#5B162F"/>
<stop offset="1" stop-color="#782548"/>
</linearGradient>
<radialGradient id="paint24_radial_206_1198" cx="0" cy="0" r="1" gradientUnits="userSpaceOnUse" gradientTransform="translate(49.9802 45.1278) rotate(90) scale(45.1278 49.9802)">
<stop offset="0.946948" stop-color="#7E3252"/>
<stop offset="1" stop-color="#6F476D" stop-opacity="0"/>
</radialGradient>
<radialGradient id="paint25_radial_206_1198" cx="0" cy="0" r="1" gradientUnits="userSpaceOnUse" gradientTransform="translate(50.3678 23.7773) rotate(112.468) scale(61.3977 72.8038)">
<stop stop-color="#451234" stop-opacity="0.86"/>
<stop offset="0.58085" stop-color="#6B1F4B" stop-opacity="0.420491"/>
<stop offset="1" stop-color="#F794C9" stop-opacity="0"/>
</radialGradient>
<radialGradient id="paint26_radial_206_1198" cx="0" cy="0" r="1" gradientUnits="userSpaceOnUse" gradientTransform="translate(60.8165 14.6777) rotate(90) scale(65.645 74.5765)">
<stop stop-color="#201226"/>
<stop offset="1" stop-color="#573D5E"/>
</radialGradient>
<linearGradient id="paint27_linear_206_1198" x1="358.214" y1="253.001" x2="262.897" y2="224.584" gradientUnits="userSpaceOnUse">
<stop stop-color="#5B162F"/>
<stop offset="1" stop-color="#782548"/>
</linearGradient>
<radialGradient id="paint28_radial_206_1198" cx="0" cy="0" r="1" gradientUnits="userSpaceOnUse" gradientTransform="translate(49.9802 45.1278) rotate(90) scale(45.1278 49.9802)">
<stop offset="0.946948" stop-color="#7E3252"/>
<stop offset="1" stop-color="#6F476D" stop-opacity="0"/>
</radialGradient>
<radialGradient id="paint29_radial_206_1198" cx="0" cy="0" r="1" gradientUnits="userSpaceOnUse" gradientTransform="translate(50.3678 23.7773) rotate(112.468) scale(61.3977 72.8038)">
<stop stop-color="#451234" stop-opacity="0.86"/>
<stop offset="0.58085" stop-color="#6B1F4B" stop-opacity="0.420491"/>
<stop offset="1" stop-color="#F794C9" stop-opacity="0"/>
</radialGradient>
</defs>
</svg>
