<svg width="956" height="710" viewBox="0 0 956 710" fill="none" xmlns="http://www.w3.org/2000/svg">
<g opacity="0.2">
<path d="M885.626 205.189L892.575 182.83C892.575 182.83 894.192 170.44 856.885 140.623C819.578 110.806 802.424 119.422 802.424 119.422L791.378 135.723L885.626 205.189Z" fill="url(#paint0_linear_206_1106)"/>
<path d="M661.56 659.792C654.229 665.141 644.253 634.858 663.007 470.936C681.761 307.014 669.857 528.539 661.56 659.792Z" fill="#E16E97"/>
<path d="M103.271 399.912C103.898 408.966 133.492 397.102 246.848 277.217C360.204 157.332 198.361 309.062 103.271 399.912Z" fill="#E16E97"/>
<path fill-rule="evenodd" clip-rule="evenodd" d="M661.335 661.762L701.465 672.142L885.921 275.881L261.085 -5.98339L63.1456 374.663C74.6142 383.46 98.4227 401.114 101.908 401.353C105.394 401.592 111.166 396.324 111.166 396.324C124.149 384.037 219.384 298.326 236.307 286.49C253.229 274.654 276.622 273.438 276.622 273.438C276.622 273.438 294.525 274.024 311.502 282.708C318.848 292.136 328.431 299.976 339.939 305.332C348.721 309.42 357.888 311.72 367.046 312.38C414.647 333.671 499.187 373.557 539.847 392.74L539.85 392.741L539.852 392.742L539.853 392.743C549.666 397.373 556.923 400.796 560.486 402.461C566.875 409.015 574.514 414.526 583.267 418.6C594.832 423.983 607.066 426.265 619.067 425.786C643.497 438.584 650.622 450.399 653.484 456.473C656.616 463.119 659.43 473.421 661.988 494.672C663.951 510.97 660.123 592.571 658.221 633.109L658.221 633.111L658.221 633.112L658.221 633.116L658.22 633.125C657.643 645.434 657.243 653.953 657.238 655.704C657.228 658.812 659.63 660.968 661.335 661.762Z" fill="url(#paint1_linear_206_1106)"/>
<path d="M426.611 -36.1474C582.915 3.13201 730.138 91.1927 784.212 130.313L747.004 164.18L414.987 9.62829L426.611 -36.1474Z" fill="#ECA2F9"/>
<path d="M428.743 159.908L632.738 254.866C657.348 266.322 674.702 249.191 674.702 249.191C717.069 201.575 751.113 149.277 752.588 146.971C762.967 130.738 752.547 120.708 752.547 120.708C713.36 85.5457 507.222 -8.68351 455.747 -17.4503C444.145 -19.4262 437.345 -7.36861 435.328 -0.710427C427.626 33.9199 411.583 107.649 409.034 125.525C406.485 143.4 421.112 155.895 428.743 159.908Z" fill="url(#paint2_linear_206_1106)"/>
<path fill-rule="evenodd" clip-rule="evenodd" d="M634.165 242.387L438.593 151.35C431.284 147.487 417.354 135.308 420.11 117.499C422.866 99.6908 439.577 26.1471 447.588 -8.39866C449.646 -15.0494 456.415 -27.1451 467.593 -25.3713C517.192 -17.5013 714.847 72.7764 752.139 107.083C752.139 107.083 762.044 116.881 751.748 133.185C750.285 135.501 716.53 188.038 674.809 236.059C674.809 236.059 657.758 253.37 634.165 242.387ZM899.681 206.198C898.858 200.834 828.345 153.393 793.191 130.342C780.492 121.958 766.486 130.254 761.07 135.45C761.07 135.45 716.903 181.295 692.438 229.394C679.939 253.966 682.386 263.11 689.013 287.875C695.357 311.586 705.534 349.616 710.095 429.218C715.211 518.5 706.295 577.101 700.535 614.963C695.795 646.115 693.192 663.228 702.298 671.838C718.436 687.097 744.848 678.502 764.834 660.829C896.473 532.576 900.711 212.902 899.681 206.198ZM296.021 -73.8351C300.655 -76.6582 382.354 -53.246 422.624 -41.1871C437.215 -36.8679 439.885 -20.8095 439.396 -13.3203C439.396 -13.3203 432.752 49.9912 411.698 99.6781C400.942 125.062 392.37 129.077 369.154 139.95C346.926 150.36 311.274 167.058 247.428 214.816C175.817 268.383 136.717 312.933 111.454 341.717C90.668 365.4 79.2502 378.409 66.7994 376.985C44.7331 374.46 34.3051 348.716 34.9613 322.045C48.3472 138.747 290.228 -70.3062 296.021 -73.8351Z" fill="url(#paint3_linear_206_1106)"/>
<circle cx="52.6764" cy="52.6764" r="52.6764" transform="matrix(-0.906591 -0.422011 -0.422011 0.906591 691.648 311.332)" fill="url(#paint4_linear_206_1106)"/>
<circle cx="52.6764" cy="52.6764" r="52.6764" transform="matrix(-0.906591 -0.422011 -0.422011 0.906591 695.086 303.948)" fill="#791457"/>
<circle cx="38.4715" cy="38.4715" r="38.4715" transform="matrix(-0.906591 -0.422011 -0.422011 0.906591 676.214 310.831)" fill="url(#paint5_linear_206_1106)"/>
<circle cx="52.6764" cy="52.6764" r="52.6764" transform="matrix(-0.906591 -0.422011 -0.422011 0.906591 447.183 197.536)" fill="url(#paint6_linear_206_1106)"/>
<circle cx="52.6764" cy="52.6764" r="52.6764" transform="matrix(-0.906591 -0.422011 -0.422011 0.906591 450.621 190.151)" fill="#791457"/>
<circle cx="38.4715" cy="38.4715" r="38.4715" transform="matrix(-0.906591 -0.422011 -0.422011 0.906591 431.749 197.035)" fill="url(#paint7_linear_206_1106)"/>
<rect width="41.3886" height="10.0336" rx="4.3897" transform="matrix(-0.906591 -0.422011 -0.422011 0.906591 502.271 321.409)" fill="url(#paint8_linear_206_1106)"/>
<circle cx="4.3897" cy="4.3897" r="4.3897" transform="matrix(-0.906591 -0.422011 -0.422011 0.906591 559.807 231.984)" fill="url(#paint9_linear_206_1106)"/>
<circle cx="4.3897" cy="4.3897" r="4.3897" transform="matrix(-0.906591 -0.422011 -0.422011 0.906591 546.162 225.633)" fill="url(#paint10_linear_206_1106)"/>
<circle cx="4.3897" cy="4.3897" r="4.3897" transform="matrix(-0.906591 -0.422011 -0.422011 0.906591 547.427 240.748)" fill="url(#paint11_linear_206_1106)"/>
<circle cx="4.3897" cy="4.3897" r="4.3897" transform="matrix(-0.906591 -0.422011 -0.422011 0.906591 532.518 219.281)" fill="url(#paint12_linear_206_1106)"/>
<circle cx="4.3897" cy="4.3897" r="4.3897" transform="matrix(-0.906591 -0.422011 -0.422011 0.906591 533.782 234.396)" fill="url(#paint13_linear_206_1106)"/>
<circle cx="4.3897" cy="4.3897" r="4.3897" transform="matrix(-0.906591 -0.422011 -0.422011 0.906591 518.873 212.93)" fill="url(#paint14_linear_206_1106)"/>
<circle cx="4.3897" cy="4.3897" r="4.3897" transform="matrix(-0.906591 -0.422011 -0.422011 0.906591 520.138 228.045)" fill="url(#paint15_linear_206_1106)"/>
<circle cx="4.3897" cy="4.3897" r="4.3897" transform="matrix(-0.906591 -0.422011 -0.422011 0.906591 505.229 206.579)" fill="url(#paint16_linear_206_1106)"/>
<circle cx="4.3897" cy="4.3897" r="4.3897" transform="matrix(-0.906591 -0.422011 -0.422011 0.906591 506.493 221.693)" fill="url(#paint17_linear_206_1106)"/>
<path d="M325.792 39.5037C310.407 30.6182 303.354 8.97212 310.038 -8.84409C316.722 -26.6603 334.613 -33.9 349.999 -25.0145C365.384 -16.1289 372.438 5.51711 365.753 23.3333C359.069 41.1495 341.178 48.3893 325.792 39.5037Z" fill="#422641"/>
<path d="M328.06 33.4571C314.116 25.4041 307.723 5.78635 313.781 -10.3605C319.84 -26.5073 336.054 -33.0688 349.998 -25.0158C363.942 -16.9629 370.334 2.65493 364.276 18.8018C358.218 34.9486 342.003 41.51 328.06 33.4571Z" fill="url(#paint18_linear_206_1106)"/>
<path fill-rule="evenodd" clip-rule="evenodd" d="M366.276 1.25111C366.267 3.89096 365.952 6.43447 365.409 8.78348C362.909 19.6098 355.405 28.5125 340.868 29.8035C332.221 30.5711 323.365 25.0539 315.001 18.6401C317.839 24.8435 322.307 30.1338 328.06 33.4563C342.004 41.5092 358.218 34.948 364.276 18.8009C366.392 13.1611 366.989 7.09673 366.276 1.25111Z" fill="#62284B" fill-opacity="0.63"/>
<path d="M355.181 140.008C339.795 131.122 332.742 109.476 339.426 91.6602C346.111 73.844 364.002 66.6042 379.387 75.4898C394.772 84.3753 401.826 106.021 395.141 123.838C388.457 141.654 370.566 148.894 355.181 140.008Z" fill="#422641"/>
<path d="M357.448 133.962C343.504 125.909 337.112 106.291 343.17 90.1441C349.228 73.9973 365.442 67.4359 379.386 75.4888C393.33 83.5417 399.722 103.16 393.664 119.306C387.606 135.453 371.391 142.015 357.448 133.962Z" fill="url(#paint19_linear_206_1106)"/>
<path fill-rule="evenodd" clip-rule="evenodd" d="M395.664 101.756C395.655 104.395 395.34 106.939 394.798 109.288C392.297 120.114 384.793 129.017 370.256 130.308C361.609 131.076 352.754 125.558 344.389 119.144C347.227 125.348 351.695 130.638 357.448 133.961C371.392 142.014 387.606 135.452 393.665 119.305C395.78 113.665 396.378 107.601 395.664 101.756Z" fill="#62284B" fill-opacity="0.63"/>
<path d="M244.319 75.9811C228.933 67.0956 221.88 45.4495 228.564 27.6333C235.249 9.8171 253.14 2.57737 268.525 11.4629C283.91 20.3485 290.964 41.9945 284.279 59.8107C277.595 77.627 259.704 84.8667 244.319 75.9811Z" fill="#422641"/>
<path d="M246.585 69.9349C232.642 61.8819 226.249 42.2641 232.307 26.1173C238.365 9.97044 254.58 3.40902 268.524 11.462C282.467 19.5149 288.86 39.1327 282.802 55.2796C276.744 71.4264 260.529 77.9878 246.585 69.9349Z" fill="url(#paint20_linear_206_1106)"/>
<path fill-rule="evenodd" clip-rule="evenodd" d="M284.801 37.7289C284.792 40.3687 284.478 42.9123 283.935 45.2613C281.435 56.0876 273.931 64.9903 259.394 66.2813C250.747 67.0489 241.891 61.5317 233.527 55.1178C236.365 61.3213 240.833 66.6116 246.586 69.934C260.529 77.987 276.744 71.4258 282.802 55.2787C284.918 49.6389 285.515 43.5745 284.801 37.7289Z" fill="#62284B" fill-opacity="0.63"/>
<path d="M273.569 178.695C258.184 169.81 251.131 148.164 257.815 130.347C264.499 112.531 282.391 105.291 297.776 114.177C313.161 123.062 320.215 144.709 313.53 162.525C306.846 180.341 288.955 187.581 273.569 178.695Z" fill="#422641"/>
<path d="M275.837 172.649C261.893 164.596 255.5 144.978 261.559 128.831C267.617 112.684 283.831 106.123 297.775 114.176C311.719 122.229 318.111 141.846 312.053 157.993C305.995 174.14 289.78 180.702 275.837 172.649Z" fill="url(#paint21_linear_206_1106)"/>
<path fill-rule="evenodd" clip-rule="evenodd" d="M314.053 140.442C314.044 143.082 313.729 145.626 313.187 147.975C310.686 158.801 303.182 167.704 288.645 168.995C279.998 169.762 271.143 164.245 262.778 157.831C265.616 164.035 270.084 169.325 275.837 172.648C289.781 180.7 305.995 174.139 312.053 157.992C314.169 152.352 314.767 146.288 314.053 140.442Z" fill="#62284B" fill-opacity="0.63"/>
<rect x="-2.6534" y="0.195115" width="19.4401" height="35.1176" rx="8.7794" transform="matrix(-0.757059 -0.653346 -0.653346 0.757059 782.696 163.389)" fill="#942C71" stroke="#7C2358" stroke-width="3.7626"/>
<rect x="402.332" y="-12.6623" width="19.4401" height="35.1176" rx="8.7794" transform="rotate(9.12886 402.332 -12.6623)" fill="#942C71" stroke="#7C2358" stroke-width="3.7626"/>
<line y1="-0.94065" x2="8.7794" y2="-0.94065" transform="matrix(-0.422011 0.906591 0.906591 0.422011 783.997 142.664)" stroke="#620B44" stroke-width="1.8813"/>
<line y1="-0.94065" x2="8.7794" y2="-0.94065" transform="matrix(-0.803458 0.595361 0.595361 0.803458 790.827 147.813)" stroke="#620B44" stroke-width="1.8813"/>
<line x1="775.126" y1="139.904" x2="775.668" y2="148.667" stroke="#620B44" stroke-width="1.8813"/>
<mask id="path-41-outside-1_206_1106" maskUnits="userSpaceOnUse" x="767.856" y="203.798" width="72.6977" height="81.4201" fill="black">
<rect fill="white" x="767.856" y="203.798" width="72.6977" height="81.4201"/>
<path fill-rule="evenodd" clip-rule="evenodd" d="M817.501 217.055C837.968 226.582 833.344 232.8 833.344 232.8L831.775 236.172C831.647 236.571 831.492 236.779 831.492 236.779L818.683 264.296C817.106 267.684 797.882 274.805 791.912 272.027C785.943 269.248 778.006 249.149 779.455 246.036L781.299 242.075C781.302 242.069 781.305 242.062 781.307 242.056L792.267 218.511C792.269 218.508 792.271 218.503 792.274 218.496L794.116 214.54C794.116 214.54 797.034 207.528 817.501 217.055Z"/>
</mask>
<path d="M833.344 232.8L831.07 231.741L831.178 231.509L831.331 231.303L833.344 232.8ZM831.775 236.172L829.386 235.408L829.434 235.257L829.501 235.113L831.775 236.172ZM831.492 236.779L829.218 235.721L829.326 235.488L829.479 235.283L831.492 236.779ZM781.299 242.075L783.592 243.093L783.583 243.113L783.573 243.133L781.299 242.075ZM792.267 218.511L794.554 219.542L794.548 219.556L794.542 219.57L792.267 218.511ZM792.274 218.496L794.549 219.555L794.543 219.567L794.537 219.578L792.274 218.496ZM794.116 214.54L796.432 215.503L796.412 215.551L796.39 215.598L794.116 214.54ZM833.344 232.8C831.331 231.303 831.329 231.306 831.327 231.309C831.327 231.31 831.325 231.312 831.323 231.314C831.321 231.318 831.318 231.321 831.316 231.325C831.311 231.332 831.306 231.338 831.301 231.345C831.292 231.358 831.284 231.369 831.277 231.38C831.262 231.401 831.251 231.419 831.243 231.432C831.227 231.459 831.222 231.471 831.223 231.469C831.224 231.465 831.251 231.407 831.268 231.295C831.297 231.107 831.335 230.564 830.864 229.641C829.854 227.664 826.538 224.029 816.442 219.329L818.56 214.781C828.931 219.609 833.537 223.846 835.332 227.359C836.263 229.182 836.424 230.789 836.226 232.065C836.129 232.684 835.955 233.186 835.783 233.559C835.698 233.746 835.613 233.901 835.539 234.023C835.502 234.085 835.468 234.138 835.437 234.184C835.422 234.206 835.407 234.227 835.394 234.246C835.387 234.255 835.381 234.264 835.375 234.273C835.372 234.277 835.369 234.281 835.366 234.285C835.364 234.287 835.362 234.29 835.361 234.291C835.359 234.294 835.357 234.297 833.344 232.8ZM829.501 235.113L831.07 231.741L835.618 233.858L834.049 237.23L829.501 235.113ZM831.492 236.779C829.479 235.283 829.479 235.283 829.479 235.284C829.478 235.284 829.478 235.284 829.478 235.285C829.477 235.285 829.477 235.286 829.476 235.287C829.475 235.288 829.474 235.289 829.473 235.291C829.471 235.293 829.469 235.296 829.467 235.299C829.464 235.304 829.46 235.309 829.457 235.314C829.449 235.324 829.443 235.333 829.437 235.341C829.425 235.359 829.415 235.374 829.407 235.387C829.39 235.413 829.38 235.43 829.375 235.44C829.365 235.459 829.373 235.447 829.386 235.408L834.164 236.935C834.049 237.295 833.916 237.588 833.796 237.811C833.736 237.922 833.68 238.017 833.63 238.094C833.605 238.133 833.582 238.168 833.561 238.198C833.551 238.213 833.541 238.227 833.531 238.24C833.527 238.247 833.522 238.253 833.518 238.259C833.516 238.262 833.513 238.265 833.511 238.268C833.51 238.269 833.509 238.271 833.508 238.272C833.508 238.273 833.507 238.273 833.507 238.274C833.506 238.274 833.506 238.275 833.506 238.275C833.505 238.276 833.505 238.276 831.492 236.779ZM816.409 263.237L829.218 235.721L833.766 237.838L820.957 265.355L816.409 263.237ZM792.971 269.753C793.782 270.13 795.49 270.299 798.084 269.978C800.55 269.673 803.402 268.982 806.174 268.087C808.944 267.192 811.548 266.122 813.518 265.098C814.506 264.585 815.282 264.109 815.825 263.705C816.451 263.237 816.489 263.066 816.409 263.237L820.957 265.355C820.483 266.373 819.575 267.166 818.825 267.725C817.991 268.348 816.96 268.963 815.831 269.55C813.566 270.727 810.695 271.899 807.716 272.861C804.739 273.822 801.567 274.602 798.7 274.957C795.961 275.296 793.028 275.313 790.854 274.301L792.971 269.753ZM781.729 247.094C781.862 246.808 781.738 246.85 781.824 247.669C781.895 248.344 782.076 249.258 782.374 250.37C782.967 252.585 783.962 255.352 785.196 258.141C786.431 260.932 787.87 263.664 789.326 265.832C790.861 268.117 792.152 269.371 792.971 269.753L790.854 274.301C788.688 273.293 786.749 270.992 785.162 268.63C783.496 266.15 781.922 263.142 780.608 260.171C779.293 257.199 778.202 254.184 777.528 251.668C777.192 250.416 776.944 249.226 776.835 248.195C776.742 247.309 776.686 246.041 777.181 244.977L781.729 247.094ZM783.573 243.133L781.729 247.094L777.181 244.977L779.025 241.016L783.573 243.133ZM783.582 243.115C783.585 243.107 783.588 243.1 783.592 243.093L779.006 241.057C779.015 241.037 779.024 241.017 779.033 240.998L783.582 243.115ZM794.542 219.57L783.582 243.115L779.033 240.998L789.993 217.453L794.542 219.57ZM794.537 219.578C794.543 219.567 794.548 219.555 794.554 219.542L789.981 217.48C789.99 217.46 790 217.438 790.011 217.414L794.537 219.578ZM796.39 215.598L794.549 219.555L790 217.438L791.842 213.481L796.39 215.598ZM816.442 219.329C806.385 214.647 801.101 214.262 798.556 214.697C797.328 214.907 796.75 215.304 796.524 215.498C796.403 215.601 796.351 215.674 796.344 215.684C796.341 215.689 796.348 215.68 796.363 215.651C796.371 215.637 796.381 215.618 796.392 215.593C796.398 215.581 796.404 215.568 796.411 215.553C796.414 215.545 796.418 215.537 796.421 215.529C796.423 215.525 796.425 215.521 796.427 215.516C796.428 215.514 796.429 215.511 796.429 215.51C796.431 215.507 796.432 215.503 794.116 214.54C791.8 213.576 791.802 213.572 791.803 213.569C791.804 213.568 791.805 213.564 791.806 213.562C791.808 213.557 791.81 213.552 791.812 213.547C791.817 213.538 791.821 213.527 791.826 213.516C791.836 213.495 791.846 213.471 791.858 213.446C791.882 213.396 791.911 213.338 791.945 213.275C792.013 213.148 792.103 212.997 792.219 212.83C792.452 212.493 792.788 212.093 793.26 211.688C794.221 210.865 795.651 210.104 797.711 209.752C801.742 209.063 808.151 209.936 818.56 214.781L816.442 219.329Z" fill="#89188B" mask="url(#path-41-outside-1_206_1106)"/>
<path d="M831.492 236.779C831.492 236.779 836.116 230.562 815.649 221.035C795.182 211.508 792.264 218.519 792.264 218.519C792.264 218.519 780.905 242.923 779.456 246.036C778.007 249.149 785.943 269.248 791.913 272.027C797.882 274.805 817.107 267.684 818.684 264.296C820.261 260.908 831.492 236.779 831.492 236.779Z" fill="#620B44"/>
<path d="M833.345 232.8C833.345 232.8 837.969 226.582 817.502 217.055C797.035 207.528 794.117 214.54 794.117 214.54C794.117 214.54 782.757 238.943 781.308 242.056C779.859 245.169 787.796 265.268 793.765 268.047C799.735 270.826 818.959 263.705 820.536 260.317C822.113 256.928 833.345 232.8 833.345 232.8Z" fill="url(#paint22_linear_206_1106)"/>
<mask id="path-45-outside-2_206_1106" maskUnits="userSpaceOnUse" x="732.129" y="280.549" width="72.6977" height="81.4201" fill="black">
<rect fill="white" x="732.129" y="280.549" width="72.6977" height="81.4201"/>
<path fill-rule="evenodd" clip-rule="evenodd" d="M780.004 347.391C780.226 347.037 780.286 346.784 780.286 346.784L791.242 323.247L793.095 319.268C794.672 315.88 787.744 296.585 781.774 293.806C775.805 291.027 755.316 297.894 753.866 301.007L752.014 304.987L741.058 328.524C741.058 328.524 741.052 328.535 741.042 328.557L739.205 332.504C739.205 332.504 735.719 339.251 756.186 348.778C776.652 358.305 778.433 350.764 778.433 350.764L780.004 347.391Z"/>
</mask>
<path fill-rule="evenodd" clip-rule="evenodd" d="M780.004 347.391C780.226 347.037 780.286 346.784 780.286 346.784L791.242 323.247L793.095 319.268C794.672 315.88 787.744 296.585 781.774 293.806C775.805 291.027 755.316 297.894 753.866 301.007L752.014 304.987L741.058 328.524C741.058 328.524 741.052 328.535 741.042 328.557L739.205 332.504C739.205 332.504 735.719 339.251 756.186 348.778C776.652 358.305 778.433 350.764 778.433 350.764L780.004 347.391Z" fill="url(#paint23_linear_206_1106)"/>
<path d="M780.286 346.784L777.845 346.208L777.903 345.958L778.012 345.726L780.286 346.784ZM780.004 347.391L777.729 346.332L777.796 346.189L777.88 346.055L780.004 347.391ZM741.058 328.524L743.332 329.583L743.31 329.629L743.286 329.675L741.058 328.524ZM741.042 328.557L743.339 329.566L743.328 329.591L743.316 329.616L741.042 328.557ZM739.205 332.504L741.479 333.562L741.457 333.609L741.434 333.655L739.205 332.504ZM778.433 350.764L775.992 350.188L776.051 349.938L776.159 349.705L778.433 350.764ZM780.286 346.784C782.727 347.361 782.727 347.362 782.727 347.362C782.727 347.362 782.726 347.363 782.726 347.363C782.726 347.364 782.726 347.365 782.726 347.366C782.725 347.368 782.725 347.369 782.725 347.371C782.724 347.375 782.723 347.378 782.722 347.382C782.72 347.389 782.718 347.396 782.716 347.404C782.712 347.42 782.708 347.436 782.703 347.454C782.694 347.49 782.682 347.53 782.668 347.573C782.641 347.661 782.605 347.765 782.559 347.883C782.465 348.117 782.327 348.407 782.127 348.726L777.88 346.055C777.902 346.02 777.906 346.007 777.898 346.027C777.894 346.037 777.887 346.056 777.877 346.085C777.873 346.1 777.868 346.117 777.862 346.138C777.859 346.148 777.857 346.159 777.854 346.17C777.852 346.176 777.851 346.182 777.849 346.189C777.848 346.192 777.848 346.195 777.847 346.198C777.846 346.2 777.846 346.201 777.846 346.203C777.845 346.204 777.845 346.205 777.845 346.205C777.845 346.206 777.845 346.206 777.845 346.207C777.845 346.207 777.845 346.208 780.286 346.784ZM793.516 324.306L782.56 347.843L778.012 345.726L788.968 322.189L793.516 324.306ZM795.369 320.326L793.516 324.306L788.968 322.189L790.82 318.209L795.369 320.326ZM782.833 291.532C785.007 292.544 786.882 294.799 788.386 297.113C789.961 299.535 791.406 302.464 792.587 305.361C793.769 308.26 794.721 311.212 795.278 313.703C795.556 314.945 795.749 316.13 795.81 317.168C795.865 318.103 795.843 319.308 795.369 320.326L790.82 318.209C790.741 318.381 790.847 318.241 790.802 317.461C790.762 316.785 790.626 315.885 790.383 314.798C789.898 312.632 789.041 309.951 787.942 307.255C786.842 304.558 785.534 301.931 784.18 299.847C782.756 297.656 781.527 296.458 780.716 296.08L782.833 291.532ZM751.592 299.949C752.088 298.885 753.094 298.111 753.832 297.612C754.691 297.032 755.761 296.456 756.936 295.906C759.295 294.802 762.304 293.696 765.425 292.789C768.544 291.882 771.859 291.149 774.829 290.827C777.658 290.521 780.667 290.524 782.833 291.532L780.716 296.08C779.897 295.699 778.106 295.518 775.369 295.815C772.773 296.096 769.756 296.754 766.825 297.606C763.897 298.457 761.139 299.478 759.062 300.45C758.019 300.938 757.204 301.388 756.641 301.768C755.959 302.23 756.007 302.352 756.141 302.066L751.592 299.949ZM749.74 303.928L751.592 299.949L756.141 302.066L754.288 306.046L749.74 303.928ZM738.784 327.465L749.74 303.928L754.288 306.046L743.332 329.583L738.784 327.465ZM738.746 327.548C738.762 327.512 738.777 327.479 738.791 327.45C738.798 327.435 738.804 327.421 738.811 327.409C738.814 327.402 738.817 327.396 738.82 327.39C738.822 327.387 738.823 327.384 738.825 327.381C738.826 327.38 738.826 327.378 738.827 327.377C738.827 327.376 738.828 327.375 738.828 327.375C738.828 327.374 738.828 327.374 738.829 327.374C738.829 327.373 738.829 327.373 738.829 327.373C738.829 327.373 738.829 327.373 738.829 327.373C738.829 327.373 738.829 327.372 741.058 328.524C743.286 329.675 743.286 329.675 743.286 329.675C743.286 329.675 743.286 329.675 743.286 329.675C743.286 329.675 743.287 329.675 743.287 329.674C743.287 329.674 743.287 329.674 743.287 329.673C743.288 329.673 743.288 329.672 743.288 329.671C743.289 329.67 743.29 329.669 743.29 329.667C743.292 329.664 743.293 329.662 743.295 329.659C743.297 329.654 743.3 329.649 743.302 329.644C743.307 329.633 743.312 329.624 743.316 329.615C743.325 329.597 743.332 329.58 743.339 329.566L738.746 327.548ZM736.931 331.445L738.768 327.498L743.316 329.616L741.479 333.562L736.931 331.445ZM755.127 351.052C744.718 346.206 739.924 341.864 737.856 338.336C736.799 336.534 736.46 334.95 736.472 333.684C736.477 333.062 736.568 332.547 736.675 332.153C736.729 331.956 736.786 331.79 736.84 331.656C736.866 331.589 736.891 331.531 736.915 331.48C736.926 331.455 736.937 331.431 736.948 331.41C736.953 331.399 736.958 331.389 736.963 331.38C736.965 331.375 736.968 331.37 736.97 331.365C736.971 331.363 736.973 331.36 736.973 331.359C736.975 331.355 736.977 331.352 739.205 332.504C741.434 333.655 741.435 333.652 741.437 333.649C741.437 333.648 741.439 333.645 741.44 333.643C741.442 333.638 741.444 333.634 741.446 333.63C741.45 333.622 741.454 333.615 741.458 333.607C741.465 333.593 741.471 333.579 741.477 333.567C741.488 333.542 741.496 333.522 741.502 333.507C741.514 333.477 741.517 333.465 741.515 333.472C741.512 333.483 741.49 333.57 741.488 333.729C741.486 334.027 741.554 334.725 742.184 335.8C743.49 338.027 747.186 341.822 757.244 346.504L755.127 351.052ZM778.433 350.764C780.874 351.341 780.874 351.344 780.873 351.348C780.873 351.349 780.872 351.352 780.871 351.355C780.87 351.359 780.869 351.364 780.867 351.369C780.865 351.38 780.862 351.39 780.859 351.401C780.854 351.424 780.847 351.448 780.839 351.475C780.824 351.527 780.806 351.588 780.782 351.656C780.736 351.792 780.672 351.956 780.585 352.141C780.409 352.513 780.138 352.97 779.726 353.442C778.877 354.415 777.543 355.327 775.549 355.788C771.705 356.676 765.498 355.879 755.127 351.052L757.244 346.504C767.34 351.203 772.256 351.4 774.419 350.9C775.429 350.666 775.82 350.288 775.945 350.145C776.019 350.059 776.047 350.001 776.049 349.997C776.05 349.995 776.044 350.007 776.034 350.037C776.029 350.052 776.023 350.071 776.016 350.096C776.012 350.109 776.008 350.122 776.004 350.138C776.002 350.145 776 350.153 775.998 350.161C775.997 350.166 775.996 350.17 775.995 350.174C775.995 350.176 775.994 350.18 775.994 350.181C775.993 350.184 775.992 350.188 778.433 350.764ZM782.278 348.449L780.707 351.823L776.159 349.705L777.729 346.332L782.278 348.449Z" fill="#89188B" mask="url(#path-45-outside-2_206_1106)"/>
<path d="M778.433 350.764C778.433 350.764 776.652 358.305 756.186 348.778C735.719 339.251 739.205 332.504 739.205 332.504C739.205 332.504 750.565 308.1 752.014 304.987C753.463 301.874 773.952 295.007 779.922 297.786C785.891 300.564 792.819 319.859 791.242 323.247C789.665 326.636 778.433 350.764 778.433 350.764Z" fill="#620B44"/>
<path d="M780.286 346.784C780.286 346.784 778.505 354.325 758.038 344.798C737.571 335.271 741.058 328.524 741.058 328.524C741.058 328.524 752.417 304.12 753.866 301.007C755.316 297.894 775.805 291.027 781.774 293.806C787.744 296.585 794.672 315.88 793.095 319.268C791.517 322.656 780.286 346.784 780.286 346.784Z" fill="url(#paint24_linear_206_1106)"/>
<path d="M739.104 235.182C739.119 235.188 739.132 235.195 739.144 235.2L766.648 248.003C767.375 248.341 767.986 249.084 768.475 249.808C769.006 250.593 769.55 251.599 770.084 252.741C771.155 255.03 772.24 257.976 773.133 261.049C774.027 264.121 774.74 267.362 775.052 270.238C775.356 273.044 775.309 275.749 774.457 277.578L774.448 277.599L774.448 277.599L772.87 280.989C772.016 282.822 770.025 284.536 767.742 286.02C765.405 287.539 762.551 288.95 759.704 290.111C756.856 291.272 753.972 292.2 751.562 292.74C750.359 293.009 749.245 293.187 748.297 293.243C747.401 293.295 746.463 293.252 745.742 292.917L718.308 280.146C718.295 280.142 718.281 280.138 718.267 280.133C718.173 280.101 718.052 280.054 717.913 279.988C717.633 279.856 717.276 279.646 716.9 279.318C716.135 278.65 715.357 277.552 714.953 275.804C714.161 272.381 714.808 266.496 719.604 256.194C719.876 255.609 720.146 255.042 720.414 254.494C720.66 253.938 720.919 253.368 721.191 252.783C725.996 242.461 730.201 237.942 733.404 236.065C735.025 235.115 736.387 234.843 737.411 234.852C737.917 234.857 738.325 234.93 738.624 235.012C738.773 235.052 738.894 235.095 738.987 235.132C739.033 235.15 739.073 235.167 739.104 235.182Z" fill="url(#paint25_linear_206_1106)" stroke="#89188B" stroke-width="2.5084"/>
<path d="M718.754 278.971C718.754 278.971 711.213 277.19 720.74 256.723C730.267 236.256 737.014 239.743 737.014 239.743L773.31 277.069C773.31 277.069 774.511 274.49 771.732 280.459C768.953 286.429 749.659 293.357 746.27 291.779C742.882 290.202 718.754 278.971 718.754 278.971Z" fill="#620B44"/>
<path d="M720.342 275.559C720.342 275.559 712.801 273.779 722.328 253.312C731.855 232.845 738.602 236.331 738.602 236.331C738.602 236.331 763.006 247.691 766.119 249.14C769.232 250.589 776.099 271.079 773.32 277.048C770.541 283.018 751.246 289.945 747.858 288.368C744.47 286.791 720.342 275.559 720.342 275.559Z" fill="url(#paint26_linear_206_1106)"/>
<path d="M853.104 288.248C853.115 288.253 853.129 288.259 853.143 288.266C853.175 288.281 853.213 288.3 853.257 288.323C853.345 288.371 853.456 288.436 853.583 288.524C853.838 288.7 854.156 288.965 854.486 289.35C855.152 290.127 855.821 291.344 856.138 293.196C856.763 296.856 856.012 302.983 851.208 313.304C850.936 313.889 850.666 314.455 850.398 315.001C850.152 315.559 849.892 316.13 849.62 316.715C844.824 327.018 840.738 331.301 837.609 332.9C836.011 333.716 834.67 333.827 833.666 333.671C833.173 333.595 832.783 333.457 832.502 333.328C832.361 333.264 832.248 333.202 832.163 333.15C832.15 333.143 832.138 333.135 832.126 333.128L804.692 320.358C803.971 320.022 803.334 319.332 802.798 318.612C802.23 317.851 801.649 316.884 801.081 315.79C799.942 313.599 798.795 310.795 797.85 307.868C796.905 304.942 796.148 301.85 795.806 299.083C795.471 296.381 795.501 293.754 796.354 291.921L797.932 288.531L797.932 288.531L797.942 288.509C798.793 286.68 800.832 284.903 803.175 283.329C805.577 281.716 808.516 280.176 811.442 278.881C814.368 277.586 817.321 276.519 819.762 275.866C820.98 275.539 822.1 275.308 823.042 275.209C823.911 275.117 824.873 275.106 825.599 275.444L853.104 288.248Z" fill="url(#paint27_linear_206_1106)" stroke="#89188B" stroke-width="2.5084"/>
<path d="M832.739 332.03C832.739 332.03 838.956 336.653 848.483 316.186C858.01 295.719 850.999 292.801 850.999 292.801L799.069 289.06C799.069 289.06 800.27 286.48 797.491 292.45C794.713 298.419 801.834 317.644 805.222 319.221C808.61 320.798 832.739 332.03 832.739 332.03Z" fill="#620B44"/>
<path d="M834.326 328.618C834.326 328.618 840.544 333.242 850.071 312.775C859.598 292.308 852.587 289.39 852.587 289.39C852.587 289.39 828.183 278.031 825.07 276.582C821.957 275.132 801.858 283.069 799.079 289.039C796.3 295.008 803.422 314.233 806.81 315.81C810.198 317.387 834.326 328.618 834.326 328.618Z" fill="url(#paint28_linear_206_1106)"/>
</g>
<defs>
<linearGradient id="paint0_linear_206_1106" x1="854.961" y1="135.097" x2="833.606" y2="180.974" gradientUnits="userSpaceOnUse">
<stop stop-color="#622C8C"/>
<stop offset="1" stop-color="#95326D"/>
</linearGradient>
<linearGradient id="paint1_linear_206_1106" x1="566.695" y1="127.284" x2="378.991" y2="530.521" gradientUnits="userSpaceOnUse">
<stop stop-color="#E7B4FF"/>
<stop offset="1" stop-color="#F999EF"/>
</linearGradient>
<linearGradient id="paint2_linear_206_1106" x1="608.627" y1="41.6622" x2="531.351" y2="207.671" gradientUnits="userSpaceOnUse">
<stop offset="0.260274" stop-color="#AB79FD"/>
<stop offset="1" stop-color="#E839A1"/>
</linearGradient>
<linearGradient id="paint3_linear_206_1106" x1="619.174" y1="593.334" x2="342.488" y2="-146.185" gradientUnits="userSpaceOnUse">
<stop stop-color="#FF93B1"/>
<stop offset="0.528751" stop-color="#FC9BCA"/>
<stop offset="0.815711" stop-color="#FD83A5"/>
<stop offset="1" stop-color="#FF9797"/>
</linearGradient>
<linearGradient id="paint4_linear_206_1106" x1="0" y1="105.353" x2="105.353" y2="105.353" gradientUnits="userSpaceOnUse">
<stop stop-color="#451234"/>
<stop offset="1" stop-color="#8F246C"/>
</linearGradient>
<linearGradient id="paint5_linear_206_1106" x1="62.7382" y1="7.69431" x2="10.0618" y2="63.3301" gradientUnits="userSpaceOnUse">
<stop stop-color="#B5358A"/>
<stop offset="1" stop-color="#620B44"/>
</linearGradient>
<linearGradient id="paint6_linear_206_1106" x1="0" y1="105.353" x2="105.353" y2="105.353" gradientUnits="userSpaceOnUse">
<stop stop-color="#451234"/>
<stop offset="1" stop-color="#8F246C"/>
</linearGradient>
<linearGradient id="paint7_linear_206_1106" x1="62.7382" y1="7.69431" x2="10.0618" y2="63.3301" gradientUnits="userSpaceOnUse">
<stop stop-color="#B5358A"/>
<stop offset="1" stop-color="#620B44"/>
</linearGradient>
<linearGradient id="paint8_linear_206_1106" x1="20.6943" y1="0" x2="20.6943" y2="10.0336" gradientUnits="userSpaceOnUse">
<stop stop-color="#942C71"/>
<stop offset="1" stop-color="#621648"/>
</linearGradient>
<linearGradient id="paint9_linear_206_1106" x1="4.3897" y1="0" x2="4.3897" y2="8.7794" gradientUnits="userSpaceOnUse">
<stop stop-color="#E16E97"/>
<stop offset="1" stop-color="#BA3C69"/>
</linearGradient>
<linearGradient id="paint10_linear_206_1106" x1="4.3897" y1="0" x2="4.3897" y2="8.7794" gradientUnits="userSpaceOnUse">
<stop stop-color="#E16E97"/>
<stop offset="1" stop-color="#BA3C69"/>
</linearGradient>
<linearGradient id="paint11_linear_206_1106" x1="4.3897" y1="0" x2="4.3897" y2="8.7794" gradientUnits="userSpaceOnUse">
<stop stop-color="#E16E97"/>
<stop offset="1" stop-color="#BA3C69"/>
</linearGradient>
<linearGradient id="paint12_linear_206_1106" x1="4.3897" y1="0" x2="4.3897" y2="8.7794" gradientUnits="userSpaceOnUse">
<stop stop-color="#E16E97"/>
<stop offset="1" stop-color="#BA3C69"/>
</linearGradient>
<linearGradient id="paint13_linear_206_1106" x1="4.3897" y1="0" x2="4.3897" y2="8.7794" gradientUnits="userSpaceOnUse">
<stop stop-color="#E16E97"/>
<stop offset="1" stop-color="#BA3C69"/>
</linearGradient>
<linearGradient id="paint14_linear_206_1106" x1="4.3897" y1="0" x2="4.3897" y2="8.7794" gradientUnits="userSpaceOnUse">
<stop stop-color="#E16E97"/>
<stop offset="1" stop-color="#BA3C69"/>
</linearGradient>
<linearGradient id="paint15_linear_206_1106" x1="4.3897" y1="0" x2="4.3897" y2="8.7794" gradientUnits="userSpaceOnUse">
<stop stop-color="#E16E97"/>
<stop offset="1" stop-color="#BA3C69"/>
</linearGradient>
<linearGradient id="paint16_linear_206_1106" x1="4.3897" y1="0" x2="4.3897" y2="8.7794" gradientUnits="userSpaceOnUse">
<stop stop-color="#E16E97"/>
<stop offset="1" stop-color="#BA3C69"/>
</linearGradient>
<linearGradient id="paint17_linear_206_1106" x1="4.3897" y1="0" x2="4.3897" y2="8.7794" gradientUnits="userSpaceOnUse">
<stop stop-color="#E16E97"/>
<stop offset="1" stop-color="#BA3C69"/>
</linearGradient>
<linearGradient id="paint18_linear_206_1106" x1="331.149" y1="-35.6154" x2="326.401" y2="33.3429" gradientUnits="userSpaceOnUse">
<stop stop-color="#95326D"/>
<stop offset="1" stop-color="#933295"/>
</linearGradient>
<linearGradient id="paint19_linear_206_1106" x1="360.538" y1="64.8892" x2="355.789" y2="133.848" gradientUnits="userSpaceOnUse">
<stop stop-color="#95326D"/>
<stop offset="1" stop-color="#933295"/>
</linearGradient>
<linearGradient id="paint20_linear_206_1106" x1="249.675" y1="0.862385" x2="244.927" y2="69.8207" gradientUnits="userSpaceOnUse">
<stop stop-color="#95326D"/>
<stop offset="1" stop-color="#933295"/>
</linearGradient>
<linearGradient id="paint21_linear_206_1106" x1="278.927" y1="103.576" x2="274.178" y2="172.534" gradientUnits="userSpaceOnUse">
<stop stop-color="#95326D"/>
<stop offset="1" stop-color="#933295"/>
</linearGradient>
<linearGradient id="paint22_linear_206_1106" x1="791.944" y1="271.217" x2="802.296" y2="207.362" gradientUnits="userSpaceOnUse">
<stop stop-color="#95326D"/>
<stop offset="1" stop-color="#933295"/>
</linearGradient>
<linearGradient id="paint23_linear_206_1106" x1="778.363" y1="292.218" x2="760.771" y2="346.208" gradientUnits="userSpaceOnUse">
<stop stop-color="#95326D"/>
<stop offset="1" stop-color="#933295"/>
</linearGradient>
<linearGradient id="paint24_linear_206_1106" x1="778.363" y1="292.218" x2="760.771" y2="346.208" gradientUnits="userSpaceOnUse">
<stop stop-color="#95326D"/>
<stop offset="1" stop-color="#933295"/>
</linearGradient>
<linearGradient id="paint25_linear_206_1106" x1="774.908" y1="273.637" x2="720.919" y2="256.045" gradientUnits="userSpaceOnUse">
<stop stop-color="#95326D"/>
<stop offset="1" stop-color="#933295"/>
</linearGradient>
<linearGradient id="paint26_linear_206_1106" x1="774.908" y1="273.637" x2="720.918" y2="256.045" gradientUnits="userSpaceOnUse">
<stop stop-color="#95326D"/>
<stop offset="1" stop-color="#933295"/>
</linearGradient>
<linearGradient id="paint27_linear_206_1106" x1="800.667" y1="285.628" x2="848.887" y2="315.613" gradientUnits="userSpaceOnUse">
<stop stop-color="#95326D"/>
<stop offset="1" stop-color="#933295"/>
</linearGradient>
<linearGradient id="paint28_linear_206_1106" x1="800.667" y1="285.628" x2="848.888" y2="315.614" gradientUnits="userSpaceOnUse">
<stop stop-color="#95326D"/>
<stop offset="1" stop-color="#933295"/>
</linearGradient>
</defs>
</svg>
