<svg width="1920" height="1080" viewBox="0 0 1920 1080" fill="none" xmlns="http://www.w3.org/2000/svg">
<g clip-path="url(#clip0_206_2)">
<rect width="1920" height="1080" fill="white"/>
<g filter="url(#filter0_f_206_2)">
<path d="M-42.8961 767.586C-65.5972 767.586 -84 785.989 -84 808.69L-84 997.265C-84 1019.97 -65.5972 1038.37 -42.8961 1038.37L470.375 1038.37C480.233 1038.37 489.763 1034.83 497.227 1028.39L511.748 1015.86C520.798 1008.05 526 996.687 526 984.735L526 808.69C526 785.989 507.597 767.586 484.896 767.586L-42.8961 767.586Z" fill="#460839" fill-opacity="0.33"/>
</g>
<rect x="34.8105" y="758.073" width="488.499" height="259.069" rx="34.446" fill="url(#paint0_linear_206_2)"/>
<rect x="34.8105" y="743" width="488.499" height="259.069" rx="34.446" fill="url(#paint1_linear_206_2)"/>
<rect x="272.781" y="770.005" width="222.912" height="205.059" rx="13.0869" fill="#7D304C" stroke="#422641" stroke-width="3.4982"/>
<rect x="480.267" y="785.625" width="173.818" height="192.058" rx="9.06646" transform="rotate(90 480.267 785.625)" fill="#5F1731"/>
<rect x="197.969" y="777.28" width="73.8281" height="28.5105" rx="5.35745" transform="rotate(90 197.969 777.28)" fill="#571727" stroke="#422641" stroke-width="2.47267"/>
<rect x="143.311" y="801.208" width="80.8058" height="25.9727" rx="5.35745" fill="url(#paint2_linear_206_2)" stroke="#422641" stroke-width="2.47267"/>
<rect x="144.547" y="798.592" width="78.3331" height="23.5" rx="4.12112" fill="url(#paint3_linear_206_2)"/>
<rect x="196.732" y="774.665" width="71.3554" height="26.0378" rx="4.12112" transform="rotate(90 196.732 774.665)" fill="#862F63"/>
<line x1="155.17" y1="809.646" x2="159.623" y2="809.646" stroke="#FFD8D8" stroke-width="4.94534" stroke-linecap="round"/>
<line x1="208.413" y1="809.646" x2="212.866" y2="809.646" stroke="#FFD8D8" stroke-width="4.94534" stroke-linecap="round"/>
<line x1="184.226" y1="784.064" x2="184.226" y2="788.517" stroke="#FFD8D8" stroke-width="4.94534" stroke-linecap="round"/>
<line x1="184.226" y1="832.436" x2="184.226" y2="836.889" stroke="#FFD8D8" stroke-width="4.94534" stroke-linecap="round"/>
<ellipse cx="171.423" cy="901.045" rx="19.0807" ry="17.809" fill="#422641"/>
<ellipse cx="192.082" cy="949.336" rx="19.0807" ry="17.809" fill="#422641"/>
<ellipse cx="171.424" cy="899.376" rx="17.2928" ry="16.1402" fill="#95326D"/>
<path d="M156.71 890.891C156.158 892.09 155.799 893.326 155.608 894.533C154.729 900.1 157.074 906.106 164.984 910.501C169.691 913.116 175.843 912.929 181.907 912.21C178.999 914.283 175.366 915.515 171.424 915.515C161.873 915.515 154.131 908.289 154.131 899.375C154.131 896.263 155.075 893.356 156.71 890.891Z" fill="#62284B"/>
<ellipse cx="192.082" cy="947.667" rx="17.2928" ry="16.1402" fill="#95326D"/>
<path d="M177.367 939.182C176.816 940.381 176.456 941.616 176.266 942.824C175.387 948.39 177.731 954.397 185.642 958.792C190.348 961.406 196.5 961.219 202.564 960.5C199.656 962.573 196.023 963.806 192.081 963.806C182.531 963.806 174.788 956.58 174.788 947.666C174.788 944.553 175.732 941.647 177.367 939.182Z" fill="#62284B"/>
<circle cx="181.49" cy="891.481" r="1.14288" fill="#FFDEDE"/>
<circle cx="200.137" cy="938.037" r="1.14288" fill="#FFDEDE"/>
<rect x="319.848" y="904.898" width="3.84227" height="3.84227" fill="white"/>
<rect x="319.848" y="901.056" width="3.84227" height="3.84227" fill="white"/>
<rect x="319.848" y="916.426" width="3.84227" height="3.84227" fill="white"/>
<rect x="319.848" y="908.74" width="3.84227" height="3.84227" fill="white"/>
<rect x="312.164" y="908.74" width="3.84227" height="3.84227" fill="white"/>
<rect x="319.848" y="912.583" width="3.84227" height="3.84227" fill="white"/>
<rect x="323.689" y="904.898" width="3.84227" height="3.84227" fill="white"/>
<rect x="323.689" y="901.056" width="3.84227" height="3.84227" fill="white"/>
<rect x="323.689" y="916.426" width="3.84227" height="3.84227" fill="white"/>
<rect x="327.532" y="901.056" width="3.84227" height="3.84227" fill="white"/>
<rect x="327.532" y="916.426" width="3.84227" height="3.84227" fill="white"/>
<rect x="327.532" y="920.268" width="3.84227" height="3.84227" fill="white"/>
<rect x="323.689" y="912.583" width="3.84227" height="3.84227" fill="white"/>
<rect x="331.376" y="904.898" width="3.84227" height="3.84227" fill="white"/>
<rect x="331.376" y="901.056" width="3.84227" height="3.84227" fill="white"/>
<rect x="331.376" y="916.426" width="3.84227" height="3.84227" fill="white"/>
<rect x="331.376" y="920.268" width="3.84227" height="3.84227" fill="white"/>
<rect x="331.376" y="912.583" width="3.84227" height="3.84227" fill="white"/>
<rect x="335.218" y="904.898" width="3.84227" height="3.84227" fill="white"/>
<rect x="342.902" y="904.898" width="3.84227" height="3.84227" fill="white"/>
<rect x="354.429" y="904.898" width="3.84227" height="3.84227" fill="white"/>
<rect x="335.218" y="901.056" width="3.84227" height="3.84227" fill="white"/>
<rect x="342.902" y="901.056" width="3.84227" height="3.84227" fill="white"/>
<rect x="342.902" y="859.347" width="3.84227" height="3.84227" fill="white"/>
<rect x="342.902" y="841.489" width="3.84227" height="3.84227" fill="white"/>
<rect x="342.902" y="823.631" width="3.84227" height="3.84227" fill="white"/>
<rect x="342.902" y="805.774" width="3.84227" height="3.84227" fill="white"/>
<rect x="342.902" y="893.371" width="3.84227" height="3.84227" fill="white"/>
<rect x="342.902" y="889.529" width="3.84227" height="3.84227" fill="white"/>
<rect x="342.902" y="885.687" width="3.84227" height="3.84227" fill="white"/>
<rect x="354.429" y="901.056" width="3.84227" height="3.84227" fill="white"/>
<rect x="362.113" y="901.056" width="3.84227" height="3.84227" fill="white"/>
<rect x="335.218" y="916.426" width="3.84227" height="3.84227" fill="white"/>
<rect x="339.06" y="916.426" width="3.84227" height="3.84227" fill="white"/>
<rect x="335.218" y="920.268" width="3.84227" height="3.84227" fill="white"/>
<rect x="354.429" y="916.426" width="3.84227" height="3.84227" fill="white"/>
<rect x="354.429" y="920.268" width="3.84227" height="3.84227" fill="white"/>
<rect x="362.113" y="916.426" width="3.84227" height="3.84227" fill="white"/>
<rect x="335.218" y="908.74" width="3.84227" height="3.84227" fill="white"/>
<rect x="342.902" y="908.74" width="3.84227" height="3.84227" fill="white"/>
<rect x="354.429" y="908.74" width="3.84227" height="3.84227" fill="white"/>
<rect x="362.113" y="908.74" width="3.84227" height="3.84227" fill="white"/>
<rect x="335.218" y="912.583" width="3.84227" height="3.84227" fill="white"/>
<rect x="342.902" y="912.583" width="3.84227" height="3.84227" fill="white"/>
<rect x="362.113" y="912.583" width="3.84227" height="3.84227" fill="white"/>
<rect x="339.06" y="904.898" width="3.84227" height="3.84227" fill="white"/>
<rect x="346.744" y="904.898" width="3.84227" height="3.84227" fill="white"/>
<rect x="350.587" y="904.898" width="3.84227" height="3.84227" fill="white"/>
<rect x="358.271" y="904.898" width="3.84227" height="3.84227" fill="white"/>
<rect x="365.955" y="904.898" width="3.84227" height="3.84227" fill="white"/>
<rect x="339.06" y="901.056" width="3.84227" height="3.84227" fill="white"/>
<rect x="346.744" y="901.056" width="3.84227" height="3.84227" fill="white"/>
<rect x="350.587" y="901.056" width="3.84227" height="3.84227" fill="white"/>
<rect x="358.271" y="901.056" width="3.84227" height="3.84227" fill="white"/>
<rect x="365.955" y="901.056" width="3.84227" height="3.84227" fill="white"/>
<rect x="350.587" y="916.426" width="3.84227" height="3.84227" fill="white"/>
<rect x="346.744" y="916.426" width="3.84227" height="3.84227" fill="white"/>
<rect x="350.587" y="920.268" width="3.84227" height="3.84227" fill="white"/>
<rect x="358.271" y="916.426" width="3.84227" height="3.84227" fill="white"/>
<rect x="358.271" y="920.268" width="3.84227" height="3.84227" fill="white"/>
<rect x="365.955" y="916.426" width="3.84227" height="3.84227" fill="white"/>
<rect x="339.06" y="908.74" width="3.84227" height="3.84227" fill="white"/>
<rect x="346.744" y="908.74" width="3.84227" height="3.84227" fill="white"/>
<rect x="350.587" y="908.74" width="3.84227" height="3.84227" fill="white"/>
<rect x="358.271" y="908.74" width="3.84227" height="3.84227" fill="white"/>
<rect x="365.955" y="908.74" width="3.84227" height="3.84227" fill="white"/>
<rect x="373.642" y="908.74" width="3.84227" height="3.84227" fill="white"/>
<rect x="339.06" y="912.583" width="3.84227" height="3.84227" fill="white"/>
<rect x="346.744" y="912.583" width="3.84227" height="3.84227" fill="white"/>
<rect x="350.587" y="912.583" width="3.84227" height="3.84227" fill="white"/>
<rect x="358.271" y="912.583" width="3.84227" height="3.84227" fill="white"/>
<rect x="365.955" y="912.583" width="3.84227" height="3.84227" fill="white"/>
<rect x="403.359" y="904.897" width="3.84227" height="3.84227" fill="white"/>
<rect x="403.359" y="901.056" width="3.84227" height="3.84227" fill="white"/>
<rect x="403.359" y="916.425" width="3.84227" height="3.84227" fill="white"/>
<rect x="403.359" y="908.74" width="3.84227" height="3.84227" fill="white"/>
<rect x="395.676" y="908.74" width="3.84227" height="3.84227" fill="white"/>
<rect x="403.359" y="912.583" width="3.84227" height="3.84227" fill="white"/>
<rect x="407.201" y="904.897" width="3.84227" height="3.84227" fill="white"/>
<rect x="407.201" y="901.056" width="3.84227" height="3.84227" fill="white"/>
<rect x="407.201" y="916.425" width="3.84227" height="3.84227" fill="white"/>
<rect x="411.045" y="901.056" width="3.84227" height="3.84227" fill="white"/>
<rect x="411.045" y="916.425" width="3.84227" height="3.84227" fill="white"/>
<rect x="411.045" y="920.267" width="3.84227" height="3.84227" fill="white"/>
<rect x="407.201" y="912.583" width="3.84227" height="3.84227" fill="white"/>
<rect x="414.888" y="904.897" width="3.84227" height="3.84227" fill="white"/>
<rect x="414.888" y="901.056" width="3.84227" height="3.84227" fill="white"/>
<rect x="414.888" y="916.425" width="3.84227" height="3.84227" fill="white"/>
<rect x="414.888" y="920.267" width="3.84227" height="3.84227" fill="white"/>
<rect x="414.888" y="912.583" width="3.84227" height="3.84227" fill="white"/>
<rect x="418.729" y="904.897" width="3.84227" height="3.84227" fill="white"/>
<rect x="426.414" y="904.897" width="3.84227" height="3.84227" fill="white"/>
<rect x="437.94" y="904.897" width="3.84227" height="3.84227" fill="white"/>
<rect x="418.729" y="901.056" width="3.84227" height="3.84227" fill="white"/>
<rect x="426.414" y="901.056" width="3.84227" height="3.84227" fill="white"/>
<rect x="426.414" y="893.371" width="3.84227" height="3.84227" fill="white"/>
<rect x="426.414" y="889.529" width="3.84227" height="3.84227" fill="white"/>
<rect x="426.414" y="885.686" width="3.84227" height="3.84227" fill="white"/>
<rect x="437.94" y="901.056" width="3.84227" height="3.84227" fill="white"/>
<rect x="445.625" y="901.056" width="3.84227" height="3.84227" fill="white"/>
<rect x="418.729" y="916.425" width="3.84227" height="3.84227" fill="white"/>
<rect x="422.571" y="916.425" width="3.84227" height="3.84227" fill="white"/>
<rect x="418.729" y="920.267" width="3.84227" height="3.84227" fill="white"/>
<rect x="437.94" y="916.425" width="3.84227" height="3.84227" fill="white"/>
<rect x="437.94" y="920.267" width="3.84227" height="3.84227" fill="white"/>
<rect x="445.625" y="916.425" width="3.84227" height="3.84227" fill="white"/>
<rect x="418.729" y="908.74" width="3.84227" height="3.84227" fill="white"/>
<rect x="426.414" y="908.74" width="3.84227" height="3.84227" fill="white"/>
<rect x="437.94" y="908.74" width="3.84227" height="3.84227" fill="white"/>
<rect x="445.625" y="908.74" width="3.84227" height="3.84227" fill="white"/>
<rect x="418.729" y="912.583" width="3.84227" height="3.84227" fill="white"/>
<rect x="426.414" y="912.583" width="3.84227" height="3.84227" fill="white"/>
<rect x="445.625" y="912.583" width="3.84227" height="3.84227" fill="white"/>
<rect x="422.571" y="904.897" width="3.84227" height="3.84227" fill="white"/>
<rect x="430.256" y="904.897" width="3.84227" height="3.84227" fill="white"/>
<rect x="434.099" y="904.897" width="3.84227" height="3.84227" fill="white"/>
<rect x="441.783" y="904.897" width="3.84227" height="3.84227" fill="white"/>
<rect x="449.467" y="904.897" width="3.84227" height="3.84227" fill="white"/>
<rect x="422.571" y="901.056" width="3.84227" height="3.84227" fill="white"/>
<rect x="430.256" y="901.056" width="3.84227" height="3.84227" fill="white"/>
<rect x="434.099" y="901.056" width="3.84227" height="3.84227" fill="white"/>
<rect x="441.783" y="901.056" width="3.84227" height="3.84227" fill="white"/>
<rect x="449.467" y="901.056" width="3.84227" height="3.84227" fill="white"/>
<rect x="434.099" y="916.425" width="3.84227" height="3.84227" fill="white"/>
<rect x="430.256" y="916.425" width="3.84227" height="3.84227" fill="white"/>
<rect x="434.099" y="920.267" width="3.84227" height="3.84227" fill="white"/>
<rect x="441.783" y="916.425" width="3.84227" height="3.84227" fill="white"/>
<rect x="441.783" y="920.267" width="3.84227" height="3.84227" fill="white"/>
<rect x="449.467" y="916.425" width="3.84227" height="3.84227" fill="white"/>
<rect x="422.571" y="908.74" width="3.84227" height="3.84227" fill="white"/>
<rect x="430.256" y="908.74" width="3.84227" height="3.84227" fill="white"/>
<rect x="434.099" y="908.74" width="3.84227" height="3.84227" fill="white"/>
<rect x="441.783" y="908.74" width="3.84227" height="3.84227" fill="white"/>
<rect x="449.467" y="908.74" width="3.84227" height="3.84227" fill="white"/>
<rect x="457.152" y="908.74" width="3.84227" height="3.84227" fill="white"/>
<rect x="422.571" y="912.583" width="3.84227" height="3.84227" fill="white"/>
<rect x="430.256" y="912.583" width="3.84227" height="3.84227" fill="white"/>
<rect x="434.099" y="912.583" width="3.84227" height="3.84227" fill="white"/>
<rect x="441.783" y="912.583" width="3.84227" height="3.84227" fill="white"/>
<rect x="449.467" y="912.583" width="3.84227" height="3.84227" fill="white"/>
<g style="mix-blend-mode:screen">
<rect x="480.267" y="785.625" width="173.818" height="192.058" rx="9.06646" transform="rotate(90 480.267 785.625)" fill="url(#paint4_radial_206_2)"/>
</g>
<circle cx="1592.64" cy="707.99" r="18.6437" fill="#EEEEEE"/>
<circle cx="1662.65" cy="707.99" r="18.6437" fill="#EEEEEE"/>
<circle cx="1746.43" cy="389.835" r="15.6041" fill="#F1F1F1"/>
<circle cx="1709.13" cy="122.01" r="15.6041" fill="#F1F1F1"/>
<circle cx="1820.35" cy="389.835" r="15.6041" fill="#F1F1F1"/>
<circle cx="1783.05" cy="122.01" r="15.6041" fill="#F1F1F1"/>
<circle cx="1919.41" cy="387.032" r="19.8331" fill="#EEEEEE"/>
<ellipse cx="1555.08" cy="250.66" rx="105.795" ry="100.34" fill="#B03C43"/>
<ellipse cx="1555.08" cy="245.526" rx="105.795" ry="100.34" fill="url(#paint5_linear_206_2)"/>
<ellipse cx="1555.08" cy="245.525" rx="84.7233" ry="80.3551" fill="url(#paint6_linear_206_2)"/>
<ellipse cx="1555.08" cy="245.686" rx="45.9228" ry="40.8038" fill="url(#paint7_linear_206_2)"/>
<ellipse cx="1555.08" cy="240.039" rx="45.9228" ry="40.8038" fill="#962264"/>
<circle cx="1555.08" cy="150.659" r="5.47268" fill="#C9006C"/>
<ellipse cx="1555.08" cy="336.869" rx="5.47268" ry="5.19051" fill="#C9006C"/>
<ellipse cx="1650.59" cy="246.275" rx="5.19051" ry="5.47268" transform="rotate(90 1650.59 246.275)" fill="#C9006C"/>
<circle cx="1459.56" cy="246.177" r="5.47268" transform="rotate(90 1459.56 246.177)" fill="#C9006C"/>
<g opacity="0.24" filter="url(#filter1_f_206_2)">
<path d="M1461.91 230.262C1438.21 230.262 1419 249.472 1419 273.169C1419 296.866 1438.21 316.076 1461.91 316.076C1485.6 316.076 1504.81 296.866 1504.81 273.169C1504.81 270.693 1504.6 268.266 1504.2 265.904L1560.55 247.288L1554.79 233.016L1499.27 252.062C1491.9 239.047 1477.93 230.262 1461.91 230.262Z" fill="#49032D"/>
</g>
<circle cx="1555.08" cy="239.029" r="8.76699" fill="#FFB9B9"/>
<rect x="1546.31" y="150.43" width="17.5336" height="88.7281" fill="#FFB9B9"/>
<rect x="1546.31" y="150.43" width="17.5336" height="88.7281" fill="url(#paint8_radial_206_2)"/>
<circle cx="46.2319" cy="46.2319" r="46.2319" transform="matrix(-1 0 0 1 1601 122)" fill="url(#paint9_radial_206_2)"/>
<circle cx="1578.1" cy="140.133" r="2.20617" fill="white" fill-opacity="0.52"/>
<rect x="1881.32" y="724.971" width="147.885" height="36.9712" rx="18.4856" transform="rotate(-180 1881.32 724.971)" fill="#EFEFEF"/>
<circle cx="1807.38" cy="706.601" r="9.45774" transform="rotate(-180 1807.38 706.601)" fill="#F8F8F8"/>
<circle cx="1860.68" cy="706.601" r="9.45774" transform="rotate(-180 1860.68 706.601)" fill="#F8F8F8"/>
<circle cx="1755.92" cy="706.601" r="9.45774" transform="rotate(-180 1755.92 706.601)" fill="#F8F8F8"/>
<rect x="1752.08" y="310.824" width="247.502" height="35.3575" rx="17.6787" fill="#F1F1F1"/>
<rect x="1714.77" y="43" width="247.502" height="35.3575" rx="17.6787" fill="#F1F1F1"/>
<rect x="1598" y="572" width="192.127" height="36.9712" rx="18.4856" fill="#EEEEEE"/>
<rect x="1720.67" y="236" width="247.502" height="35.3575" rx="17.6787" fill="#F1F1F1"/>
<ellipse cx="1375.33" cy="848.5" rx="63" ry="60.5" fill="url(#paint10_linear_206_2)"/>
<path d="M1451.33 834.308H1533.14C1540.12 834.308 1546.81 831.542 1551.75 826.617L1588.4 790.073C1600.65 777.859 1617.24 771 1634.54 771H1762.55C1779.57 771 1795.9 777.748 1807.95 789.765L1892.75 874.309C1897.69 879.234 1904.38 882 1911.35 882H1945.33" stroke="#A77195" stroke-width="11.5946"/>
<path d="M1451.33 843.878H1525.53C1540.41 843.878 1554.67 837.946 1565.16 827.397L1599.9 792.439C1607.82 784.477 1618.58 780 1629.81 780H1766.56C1778.63 780 1790.2 784.813 1798.7 793.372L1880.05 875.208C1890.73 885.956 1905.26 892 1920.42 892L1945.33 892" stroke="#D297B7" stroke-width="11.5946"/>
<path d="M1451.33 853.878H1527.48C1544.6 853.878 1561.02 847.051 1573.08 834.909L1610 797.775C1614.94 792.799 1621.67 790.001 1628.69 790.001L1768.92 790C1775.94 790 1782.66 792.798 1787.61 797.774L1868.65 879.299C1883.09 893.829 1902.73 901.999 1923.22 902L1945.33 902" stroke="#DEAFC3" stroke-width="11.5946"/>
<rect x="1744.6" y="911.971" width="147.885" height="36.9712" rx="18.4856" transform="rotate(-180 1744.6 911.971)" fill="#EFEFEF"/>
<circle cx="1670.66" cy="893.601" r="9.45774" transform="rotate(-180 1670.66 893.601)" fill="#F8F8F8"/>
<circle cx="1723.96" cy="893.601" r="9.45774" transform="rotate(-180 1723.96 893.601)" fill="#F8F8F8"/>
<circle cx="1619.21" cy="893.601" r="9.45774" transform="rotate(-180 1619.21 893.601)" fill="#F8F8F8"/>
<rect x="1690.88" y="987.756" width="147.885" height="36.9712" rx="18.4856" transform="rotate(-180 1690.88 987.756)" fill="#EFEFEF"/>
<circle cx="1616.94" cy="969.386" r="9.45774" transform="rotate(-180 1616.94 969.386)" fill="#F8F8F8"/>
<circle cx="1670.24" cy="969.386" r="9.45774" transform="rotate(-180 1670.24 969.386)" fill="#F8F8F8"/>
<circle cx="1565.49" cy="969.386" r="9.45774" transform="rotate(-180 1565.49 969.386)" fill="#F8F8F8"/>
<rect x="1304" y="952" width="157.35" height="32.9226" rx="16.4613" fill="#F1F1F1"/>
<path d="M1453.18 822.394C1459.76 822.395 1465.1 827.731 1465.1 834.313V868.294C1465.1 874.877 1459.76 880.212 1453.18 880.213V880.214H1429.34V822.394H1453.18Z" fill="url(#paint11_linear_206_2)"/>
<path d="M1453.18 812.218C1459.76 812.218 1465.1 817.555 1465.1 824.137V858.119C1465.1 864.701 1459.76 870.037 1453.18 870.038V870.04H1429.34V812.219H1453.1C1453.13 812.219 1453.15 812.218 1453.18 812.218Z" fill="#F47A90"/>
<circle cx="1453.88" cy="859.021" r="2.47272" fill="#893348"/>
<circle cx="1453.88" cy="847.315" r="2.47272" fill="#893348"/>
<circle cx="1453.88" cy="835.156" r="2.47272" fill="#893348"/>
<circle cx="1453.88" cy="823.451" r="2.47272" fill="#893348"/>
<path d="M1722.98 999.961L1722.98 1016.36C1722.98 1019.01 1725.13 1021.16 1727.78 1021.16L1799.88 1021.16C1802.53 1021.16 1804.68 1019.01 1804.68 1016.36L1804.68 999.961C1804.68 997.313 1802.53 995.166 1799.88 995.166L1727.78 995.166C1725.13 995.166 1722.98 997.313 1722.98 999.961Z" fill="#F3F3F3"/>
<path d="M1755.27 1047.13L1773.03 1047.13C1775.68 1047.13 1777.83 1044.98 1777.83 1042.34L1777.83 973.259C1777.83 970.611 1775.68 968.465 1773.03 968.465L1755.27 968.465C1752.62 968.465 1750.47 970.611 1750.47 973.259L1750.47 1042.34C1750.47 1044.98 1752.62 1047.13 1755.27 1047.13Z" fill="#F3F3F3"/>
<ellipse cx="1764.3" cy="1033.87" rx="4.27459" ry="4.11627" transform="rotate(-180 1764.3 1033.87)" fill="white"/>
<ellipse cx="1733.9" cy="1008.26" rx="4.27459" ry="4.11627" transform="rotate(-180 1733.9 1008.26)" fill="white"/>
<ellipse cx="1764.3" cy="978.984" rx="4.27459" ry="4.11627" transform="rotate(-180 1764.3 978.984)" fill="white"/>
<ellipse cx="1793.75" cy="1008.26" rx="4.27454" ry="4.11627" transform="rotate(-180 1793.75 1008.26)" fill="white"/>
<rect width="48.5149" height="10.9736" transform="matrix(-1 0 0 1 1360.52 840.158)" fill="#FE9399"/>
<ellipse cx="1375.26" cy="840.109" rx="63.2616" ry="59.859" fill="url(#paint12_linear_206_2)"/>
<ellipse cx="1375.26" cy="811.085" rx="14.8265" ry="13.8383" fill="#562B47"/>
<ellipse cx="1375.26" cy="809.788" rx="13.4372" ry="12.5416" fill="#FF91A4"/>
<path d="M1363.83 803.195C1363.4 804.126 1363.12 805.086 1362.97 806.025C1362.29 810.35 1364.11 815.018 1370.26 818.433C1373.92 820.464 1378.69 820.32 1383.4 819.762C1381.14 821.371 1378.32 822.329 1375.26 822.329C1367.84 822.329 1361.83 816.714 1361.83 809.787C1361.83 807.369 1362.56 805.11 1363.83 803.195Z" fill="#F95B6E"/>
<ellipse cx="1375.26" cy="869.132" rx="14.8265" ry="13.8383" fill="#562B47"/>
<ellipse cx="1375.26" cy="867.835" rx="13.4372" ry="12.5416" fill="#FF91A4"/>
<path d="M1363.83 861.241C1363.4 862.173 1363.12 863.133 1362.97 864.072C1362.29 868.397 1364.11 873.065 1370.26 876.48C1373.92 878.511 1378.69 878.367 1383.4 877.809C1381.14 879.418 1378.32 880.376 1375.26 880.376C1367.84 880.376 1361.83 874.761 1361.83 867.834C1361.83 865.416 1362.56 863.157 1363.83 861.241Z" fill="#F95B6E"/>
<ellipse cx="1344.79" cy="840.826" rx="14.8265" ry="13.8383" fill="#562B47"/>
<ellipse cx="1344.79" cy="839.529" rx="13.4372" ry="12.5416" fill="#FF91A4"/>
<path d="M1333.36 832.936C1332.93 833.868 1332.65 834.828 1332.5 835.766C1331.82 840.092 1333.64 844.759 1339.79 848.174C1343.44 850.205 1348.22 850.062 1352.93 849.503C1350.67 851.113 1347.85 852.071 1344.79 852.071C1337.37 852.071 1331.35 846.455 1331.35 839.529C1331.35 837.11 1332.09 834.852 1333.36 832.936Z" fill="#F95B6E"/>
<ellipse cx="1405.73" cy="840.158" rx="14.8265" ry="13.8383" fill="#562B47"/>
<ellipse cx="1405.73" cy="838.861" rx="13.4372" ry="12.5416" fill="#FF91A4"/>
<path d="M1394.3 832.268C1393.87 833.199 1393.59 834.159 1393.44 835.098C1392.76 839.423 1394.58 844.091 1400.73 847.506C1404.39 849.537 1409.16 849.393 1413.88 848.835C1411.62 850.444 1408.79 851.402 1405.73 851.402C1398.31 851.402 1392.3 845.787 1392.3 838.86C1392.3 836.442 1393.03 834.183 1394.3 832.268Z" fill="#F95B6E"/>
<circle cx="1381.59" cy="804.243" r="1.01429" fill="#FFDEDE"/>
<circle cx="1351.88" cy="832.933" r="1.01429" fill="#FFDEDE"/>
<circle cx="1412.91" cy="832.933" r="1.01429" fill="#FFDEDE"/>
<circle cx="1382.39" cy="863.505" r="1.01429" fill="#FFDEDE"/>
<rect x="213.727" y="399.703" width="147.885" height="36.9712" rx="18.4856" transform="rotate(-180 213.727 399.703)" fill="#EFEFEF"/>
<circle cx="139.784" cy="381.333" r="9.45774" transform="rotate(-180 139.784 381.333)" fill="#F8F8F8"/>
<circle cx="193.082" cy="381.333" r="9.45774" transform="rotate(-180 193.082 381.333)" fill="#F8F8F8"/>
<circle cx="88.3284" cy="381.333" r="9.45774" transform="rotate(-180 88.3284 381.333)" fill="#F8F8F8"/>
<circle cx="97.8197" cy="227.536" r="2.51991" fill="#893348"/>
<circle cx="97.8197" cy="215.606" r="2.51991" fill="#893348"/>
<circle cx="168.432" cy="65.0124" r="15.8484" fill="#F1F1F1"/>
<circle cx="68.6579" cy="118.891" r="15.8484" fill="#F1F1F1"/>
<circle cx="227.945" cy="65.0124" r="15.8484" fill="#F1F1F1"/>
<circle cx="128.171" cy="118.891" r="15.8484" fill="#F1F1F1"/>
<rect x="47.7051" y="51.647" width="77.0645" height="30.9596" rx="15.4798" fill="#E3E3E3"/>
<rect x="47.7061" y="46" width="77.0645" height="30.9596" rx="15.4798" fill="#F3F3F3"/>
<rect x="58.4482" y="56.4473" width="53.1015" height="10.8006" rx="5.40028" fill="white"/>
<path d="M222.983 303.814L222.983 320.218C222.983 322.866 225.13 325.012 227.778 325.012L299.881 325.012C302.529 325.012 304.676 322.866 304.676 320.218L304.676 303.814C304.676 301.166 302.529 299.019 299.881 299.019L227.778 299.019C225.13 299.019 222.983 301.166 222.983 303.814Z" fill="#F3F3F3"/>
<path d="M255.266 350.984L273.032 350.984C275.68 350.984 277.826 348.838 277.826 346.19L277.826 277.112C277.826 274.464 275.68 272.318 273.032 272.318L255.266 272.318C252.618 272.318 250.471 274.464 250.471 277.112L250.471 346.19C250.471 348.838 252.618 350.984 255.266 350.984Z" fill="#F3F3F3"/>
<ellipse cx="264.301" cy="337.721" rx="4.27459" ry="4.11627" transform="rotate(-180 264.301 337.721)" fill="white"/>
<ellipse cx="233.903" cy="312.109" rx="4.27459" ry="4.11627" transform="rotate(-180 233.903 312.109)" fill="white"/>
<ellipse cx="264.301" cy="282.837" rx="4.27459" ry="4.11627" transform="rotate(-180 264.301 282.837)" fill="white"/>
<ellipse cx="293.749" cy="312.109" rx="4.27459" ry="4.11627" transform="rotate(-180 293.749 312.109)" fill="white"/>
<rect x="-38" y="297.277" width="227.679" height="32.5256" rx="16.2628" fill="#F3F3F3"/>
<ellipse cx="64.469" cy="61.7462" rx="64.469" ry="61.7462" transform="matrix(-1 0 0 1 507.974 109.129)" fill="url(#paint13_linear_206_2)"/>
<rect x="60.623" y="187.68" width="15.7284" height="53.7286" rx="2" fill="url(#paint14_linear_206_2)"/>
<rect x="62.1738" y="232.553" width="15.7284" height="3.22279" rx="1.6114" fill="#F2B75E"/>
<rect x="62.1738" y="232.553" width="15.7284" height="3.22279" rx="1.6114" fill="url(#paint15_linear_206_2)"/>
<rect x="62.1738" y="226.832" width="15.7284" height="3.22279" rx="1.6114" fill="#F2B75E"/>
<rect x="62.1738" y="226.832" width="15.7284" height="3.22279" rx="1.6114" fill="url(#paint16_linear_206_2)"/>
<rect x="62.1738" y="221.111" width="15.7284" height="3.22279" rx="1.6114" fill="#F2B75E"/>
<rect x="62.1738" y="221.111" width="15.7284" height="3.22279" rx="1.6114" fill="url(#paint17_linear_206_2)"/>
<rect x="62.1738" y="215.391" width="15.7284" height="3.22279" rx="1.6114" fill="#F2B75E"/>
<rect x="62.1738" y="215.391" width="15.7284" height="3.22279" rx="1.6114" fill="url(#paint18_linear_206_2)"/>
<rect x="62.1738" y="209.67" width="15.7284" height="3.22279" rx="1.6114" fill="#F2B75E"/>
<rect x="62.1738" y="209.67" width="15.7284" height="3.22279" rx="1.6114" fill="url(#paint19_linear_206_2)"/>
<rect x="62.1738" y="203.949" width="15.7284" height="3.22279" rx="1.6114" fill="#F2B75E"/>
<rect x="62.1738" y="203.949" width="15.7284" height="3.22279" rx="1.6114" fill="url(#paint20_linear_206_2)"/>
<rect x="62.1738" y="198.229" width="15.7284" height="3.22279" rx="1.6114" fill="#F2B75E"/>
<rect x="62.1738" y="198.229" width="15.7284" height="3.22279" rx="1.6114" fill="url(#paint21_linear_206_2)"/>
<rect x="62.1738" y="192.508" width="15.7284" height="3.22279" rx="1.6114" fill="#F2B75E"/>
<rect x="62.1738" y="192.508" width="15.7284" height="3.22279" rx="1.6114" fill="url(#paint22_linear_206_2)"/>
<path d="M351.953 156.879L248.97 156.879C234.196 156.879 222.219 168.856 222.219 183.631V183.631C222.219 194.216 213.637 202.798 203.051 202.798L89.1482 202.798" stroke="#A36084" stroke-width="12.6487"/>
<path d="M357.168 167.668H251.3C240.94 167.668 232.542 176.066 232.542 186.426V186.426C232.542 201.427 220.382 213.587 205.381 213.587H94.363" stroke="#AE73A8" stroke-width="12.6487"/>
<path d="M362 179.84H248.207C245.887 179.84 244.005 181.721 244.005 184.042V184.042C244.005 207.081 225.328 225.759 202.288 225.759L99.1951 225.759" stroke="#B884B9" stroke-width="12.6487"/>
<path d="M97.0996 190.207C103.808 190.207 109.246 195.645 109.246 202.354V236.983C109.246 243.691 103.809 249.129 97.1016 249.13V249.131H72.8076V190.208H97.0215C97.0474 190.208 97.0737 190.207 97.0996 190.207Z" fill="url(#paint23_linear_206_2)"/>
<path d="M97.0996 179.84C103.808 179.84 109.246 185.278 109.246 191.986V226.616C109.246 233.324 103.809 238.761 97.1016 238.763V238.765H72.8076V179.841H97.0215C97.0474 179.841 97.0737 179.84 97.0996 179.84Z" fill="#F47A90"/>
<circle cx="97.8197" cy="203.215" r="2.51991" fill="#893348"/>
<path d="M364.103 143.874C357.394 143.874 351.956 149.312 351.956 156.021V190.65C351.956 197.358 357.393 202.796 364.101 202.797V202.798H388.395V143.875H364.181C364.155 143.875 364.128 143.874 364.103 143.874Z" fill="url(#paint24_linear_206_2)"/>
<path d="M364.103 133.504C357.394 133.504 351.956 138.942 351.956 145.65V180.28C351.956 186.988 357.393 192.426 364.101 192.427V192.429H388.395V133.505H364.181C364.155 133.505 364.128 133.504 364.103 133.504Z" fill="#F47A90"/>
<circle cx="2.51991" cy="2.51991" r="2.51991" transform="matrix(-1 0 0 1 365.902 178.68)" fill="#893348"/>
<circle cx="2.51991" cy="2.51991" r="2.51991" transform="matrix(-1 0 0 1 365.902 166.75)" fill="#893348"/>
<circle cx="2.51991" cy="2.51991" r="2.51991" transform="matrix(-1 0 0 1 365.902 154.359)" fill="#893348"/>
<circle cx="2.51991" cy="2.51991" r="2.51991" transform="matrix(-1 0 0 1 365.902 142.431)" fill="#893348"/>
<path d="M9.25195 190.21C2.5437 190.21 -2.89432 195.648 -2.89453 202.356V236.986C-2.89453 243.694 2.54251 249.132 9.25 249.133V249.134H33.5439V190.211H9.33008C9.30416 190.211 9.2779 190.21 9.25195 190.21Z" fill="url(#paint25_linear_206_2)"/>
<path d="M9.25195 179.84C2.5437 179.84 -2.89432 185.278 -2.89453 191.986V226.616C-2.89453 233.324 2.54251 238.761 9.25 238.763V238.765H33.5439V179.841H9.33008C9.30416 179.841 9.2779 179.84 9.25195 179.84Z" fill="#F47A90"/>
<circle cx="2.51991" cy="2.51991" r="2.51991" transform="matrix(-1 0 0 1 11.0518 225.016)" fill="#893348"/>
<circle cx="2.51991" cy="2.51991" r="2.51991" transform="matrix(-1 0 0 1 11.0518 213.086)" fill="#893348"/>
<circle cx="2.51991" cy="2.51991" r="2.51991" transform="matrix(-1 0 0 1 11.0518 200.695)" fill="#893348"/>
<circle cx="2.51991" cy="2.51991" r="2.51991" transform="matrix(-1 0 0 1 11.0518 188.767)" fill="#893348"/>
<circle cx="97.8197" cy="191.286" r="2.51991" fill="#893348"/>
<rect x="458.533" y="161.977" width="49.4408" height="11.183" fill="#FE9399"/>
<ellipse cx="64.469" cy="61.0014" rx="64.469" ry="61.0014" transform="matrix(-1 0 0 1 507.971 100.926)" fill="url(#paint26_linear_206_2)"/>
<path d="M428.471 129.45C428.471 125.957 431.303 123.126 434.796 123.126H452.209C455.702 123.126 458.533 125.957 458.533 129.45V142.787C458.533 144.575 457.776 146.28 456.45 147.479L447.742 155.35C445.334 157.527 441.668 157.527 439.26 155.349L430.554 147.479C429.228 146.28 428.471 144.576 428.471 142.788V129.45Z" fill="#460F41"/>
<path d="M428.471 198.26C428.471 201.753 431.303 204.584 434.796 204.584H452.209C455.702 204.584 458.533 201.753 458.533 198.26V184.923C458.533 183.135 457.776 181.43 456.45 180.231L447.742 172.36C445.334 170.183 441.668 170.184 439.26 172.361L430.554 180.231C429.228 181.43 428.471 183.135 428.471 184.922V198.26Z" fill="#460F41"/>
<path d="M482.535 177.524C486.028 177.524 488.859 174.692 488.859 171.2L488.859 156.672C488.859 153.179 486.028 150.347 482.535 150.347L466.439 150.347C464.872 150.347 463.36 150.929 462.197 151.98L454.163 159.245C451.385 161.756 451.386 166.117 454.163 168.628L462.198 175.891C463.36 176.942 464.872 177.524 466.439 177.524L482.535 177.524Z" fill="#460F41"/>
<path d="M404.471 177.524C400.978 177.524 398.146 174.692 398.146 171.2L398.146 156.672C398.146 153.179 400.978 150.347 404.471 150.347L420.567 150.347C422.134 150.347 423.646 150.929 424.808 151.98L432.843 159.245C435.621 161.756 435.62 166.117 432.843 168.628L424.808 175.891C423.646 176.942 422.134 177.524 420.567 177.524L404.471 177.524Z" fill="#460F41"/>
<path d="M428.471 196.123C428.471 199.616 431.303 202.447 434.796 202.447H452.209C455.702 202.447 458.533 199.616 458.533 196.123V182.785C458.533 180.997 457.776 179.293 456.45 178.094L447.742 170.223C445.334 168.046 441.668 168.046 439.26 170.223L430.554 178.094C429.228 179.293 428.471 180.997 428.471 182.785V196.123Z" fill="#692D60"/>
<path d="M404.471 175.032C400.978 175.032 398.146 172.2 398.146 168.707L398.146 154.179C398.146 150.686 400.978 147.855 404.471 147.855L420.567 147.855C422.134 147.855 423.646 148.437 424.808 149.488L432.843 156.753C435.621 159.264 435.62 163.625 432.843 166.136L424.808 173.399C423.646 174.45 422.134 175.032 420.567 175.032L404.471 175.032Z" fill="#692D60"/>
<path d="M482.535 175.032C486.028 175.032 488.859 172.2 488.859 168.707L488.859 154.179C488.859 150.686 486.028 147.855 482.535 147.855L466.439 147.855C464.872 147.855 463.36 148.437 462.197 149.488L454.163 156.753C451.385 159.264 451.386 163.625 454.163 166.136L462.198 173.399C463.36 174.45 464.872 175.032 466.439 175.032L482.535 175.032Z" fill="#692D60"/>
<path d="M443.502 187.555L443.502 193.772" stroke="#DDB9C0" stroke-width="5.27029" stroke-linecap="round"/>
<path d="M407.414 161.146L414.292 161.146" stroke="#DDB9C0" stroke-width="5.27029" stroke-linecap="round"/>
<path d="M472.715 161.146L479.592 161.146" stroke="#DDB9C0" stroke-width="5.27029" stroke-linecap="round"/>
<path d="M428.471 126.764C428.471 123.271 431.303 120.439 434.796 120.439H452.209C455.702 120.439 458.533 123.271 458.533 126.764V140.101C458.533 141.889 457.776 143.594 456.45 144.793L447.742 152.663C445.334 154.84 441.668 154.84 439.26 152.663L430.554 144.793C429.228 143.593 428.471 141.889 428.471 140.101V126.764Z" fill="#692D60"/>
<path d="M443.502 128.521L443.502 134.738" stroke="#DDB9C0" stroke-width="5.27029" stroke-linecap="round"/>
<circle cx="0.761287" cy="622.835" r="15.6041" fill="#F1F1F1"/>
<circle cx="74.6773" cy="622.835" r="15.6041" fill="#F1F1F1"/>
<circle cx="173.734" cy="620.032" r="19.8331" fill="#EEEEEE"/>
<rect x="6.40527" y="543.824" width="298.595" height="35.3575" rx="17.6787" fill="#F1F1F1"/>
<rect x="-25" y="469" width="247.502" height="35.3575" rx="17.6787" fill="#F1F1F1"/>
<path d="M599.164 136.023C613.939 121.326 637.896 121.326 652.672 136.023L693.753 176.888C708.529 191.585 708.529 215.415 693.753 230.112L652.672 270.977C637.896 285.674 613.939 285.674 599.164 270.977L558.082 230.112C543.306 215.415 543.306 191.585 558.082 176.888L599.164 136.023Z" fill="#ED3266"/>
<path fill-rule="evenodd" clip-rule="evenodd" d="M656.537 191.352C658.549 191.352 660.24 192.847 660.432 194.839C660.782 198.48 661.257 204.368 661.256 209.52C661.256 214.876 660.76 219.902 660.408 222.791C660.22 224.334 659.096 225.582 657.588 225.991L641.454 230.368C639.589 230.874 637.626 229.972 636.629 228.325C634.505 224.816 630.483 219.394 625.917 219.394V219.394C621.351 219.394 617.33 224.816 615.206 228.325C614.209 229.972 612.245 230.874 610.38 230.368L594.246 225.991C592.739 225.582 591.615 224.334 591.427 222.791C591.075 219.902 590.578 214.876 590.578 209.52C590.578 204.368 591.053 198.481 591.403 194.839C591.594 192.847 593.285 191.352 595.297 191.352H625.917V191.352H656.537Z" fill="white"/>
<path fill-rule="evenodd" clip-rule="evenodd" d="M588.353 199.695C588.475 198.327 586.968 197.518 586.068 198.56C583.705 201.298 582.277 204.858 582.277 208.75C582.277 212.477 583.587 215.9 585.773 218.588C586.656 219.674 588.199 218.863 588.088 217.472C587.914 215.298 587.8 212.94 587.8 210.496C587.8 207.013 588.04 203.195 588.353 199.695Z" fill="white"/>
<path fill-rule="evenodd" clip-rule="evenodd" d="M663.484 199.695C663.362 198.327 664.869 197.518 665.769 198.56C668.132 201.298 669.56 204.858 669.56 208.75C669.56 212.477 668.25 215.9 666.064 218.588C665.181 219.674 663.638 218.863 663.749 217.472C663.923 215.298 664.037 212.94 664.037 210.496C664.037 207.013 663.797 203.195 663.484 199.695Z" fill="white"/>
<path d="M619.564 172.392C619.564 171.083 620.631 170.022 621.947 170.022H629.888C631.204 170.022 632.271 171.083 632.271 172.392V188.981H619.564V172.392Z" fill="white"/>
<path d="M652.124 202.409C652.124 204.591 650.346 206.359 648.153 206.359C645.96 206.359 644.183 204.591 644.183 202.409C644.183 200.228 645.96 198.459 648.153 198.459C650.346 198.459 652.124 200.228 652.124 202.409Z" fill="#ED3266"/>
<path d="M644.183 214.258C644.183 216.439 642.405 218.207 640.212 218.207C638.019 218.207 636.241 216.439 636.241 214.258C636.241 212.076 638.019 210.308 640.212 210.308C642.405 210.308 644.183 212.076 644.183 214.258Z" fill="#ED3266"/>
<path d="M604.161 201.071C604.161 200.032 605.008 199.19 606.053 199.19H607.945C608.99 199.19 609.837 200.032 609.837 201.071V215.185C609.837 216.224 608.99 217.067 607.945 217.067H606.053C605.008 217.067 604.161 216.224 604.161 215.185V201.071Z" fill="#ED3266"/>
<path d="M614.093 205.305C615.137 205.305 615.984 206.147 615.984 207.186L615.984 209.068C615.984 210.108 615.137 210.95 614.093 210.95L599.904 210.95C598.859 210.95 598.012 210.108 598.012 209.068L598.012 207.186C598.012 206.147 598.859 205.305 599.904 205.305L614.093 205.305Z" fill="#ED3266"/>
<path d="M786.721 175.28H803.747V234.534H786.721V175.28Z" fill="black"/>
<path fill-rule="evenodd" clip-rule="evenodd" d="M769.435 235.476C787.187 235.476 799.934 220.33 799.934 204.897C799.934 190.32 787.272 174.318 769.435 174.318C752.377 174.318 739.426 188.009 739.426 204.897C739.426 221.785 752.377 235.476 769.435 235.476ZM771.304 220.019C780.05 220.019 786.721 213.538 786.721 204.897C786.721 196.256 780.05 189.775 771.304 189.775C762.558 189.775 755.784 196.545 755.784 204.897C755.784 213.249 762.558 220.019 771.304 220.019Z" fill="black"/>
<path fill-rule="evenodd" clip-rule="evenodd" d="M872.142 191.799L856.551 199.003C854.562 194.547 850.368 190.96 844.697 190.96C836.633 190.96 830.389 197.202 830.389 204.902C830.389 212.601 836.633 218.843 844.697 218.843C850.498 218.843 854.753 215.612 856.684 210.933L872.243 218.23C867.462 228.441 857.206 235.481 844.42 235.481C827.205 235.481 813.679 221.79 813.679 204.902C813.679 188.013 827.82 174.323 844.42 174.323C856.412 174.323 867.12 181.466 872.142 191.799Z" fill="black"/>
<path d="M881.782 175.269H898.808V234.545H881.782V175.269Z" fill="black"/>
<path d="M919.618 198.319L936.644 196.907V234.543H919.618V198.319Z" fill="black"/>
<path d="M957.454 198.319L974.48 196.907V234.543H957.454V198.319Z" fill="black"/>
<path d="M914.067 174.323C929.134 174.323 936.643 185.805 936.643 197.845L919.617 200.994C919.617 195.787 914.888 191.101 909.212 191.101C903.537 191.101 898.807 195.967 898.807 201.612L894.298 195.281C892.523 191.101 898.955 174.323 914.067 174.323Z" fill="black"/>
<path d="M951.903 174.323C966.97 174.323 974.479 185.805 974.479 197.845L957.453 200.994C957.453 195.787 952.724 191.101 947.048 191.101C941.373 191.101 936.643 195.967 936.643 201.612L932.134 195.281C930.359 191.101 936.791 174.323 951.903 174.323Z" fill="black"/>
<path d="M951.902 174.323C966.97 174.323 974.479 185.805 974.479 197.845L957.453 199.256C957.453 194.05 952.723 189.847 947.048 189.847C941.372 189.847 936.643 193.611 936.643 199.256L928.13 190.318C931.913 181.85 936.791 174.323 951.902 174.323Z" fill="black"/>
<path d="M1011.8 223.464C1011.8 229.558 1006.83 234.498 1000.71 234.498C994.582 234.498 989.615 229.558 989.615 223.464C989.615 217.37 994.582 212.43 1000.71 212.43C1006.83 212.43 1011.8 217.37 1011.8 223.464Z" fill="black"/>
<mask id="mask0_206_2" style="mask-type:alpha" maskUnits="userSpaceOnUse" x="1026" y="146" width="347" height="90">
<path fill-rule="evenodd" clip-rule="evenodd" d="M1048.9 174.622C1063.98 172.836 1072.8 181.261 1075.44 187.666L1061.1 193.498C1060.15 191.844 1056.85 188.805 1052.65 188.805C1047.41 188.805 1046.38 190.777 1046.01 191.818C1045.53 193.208 1046.27 194.493 1047.99 195.125C1049.63 195.727 1051.39 196.159 1053.23 196.613C1054.21 196.853 1055.2 197.098 1056.22 197.379L1056.22 197.378L1056.34 197.411C1060.19 198.461 1064.53 199.791 1069.6 203.603C1073.23 206.322 1075.42 210.105 1075.87 214.33C1076.31 218.359 1075.1 222.112 1073.27 225.094C1069.69 230.931 1062.71 235.499 1054.59 235.499L1054.5 235.499C1052.6 235.5 1047.52 235.501 1042.15 233.999C1036.7 232.477 1029.72 229.047 1026.03 221.306L1040.44 214.521C1040.49 214.634 1041.29 216.609 1044.2 218.755C1047.2 220.965 1050.82 221.298 1054.59 220.49C1058.82 219.584 1059.49 216.863 1058.24 215.631C1056.76 214.186 1053.82 213.355 1050.9 212.531C1050.55 212.432 1050.2 212.334 1049.85 212.234L1049.85 212.231C1049.75 212.203 1049.65 212.175 1049.55 212.146C1049.49 212.128 1049.42 212.109 1049.36 212.091L1049.35 212.091C1046.34 211.243 1042.61 210.03 1038.11 207.636C1034.45 205.683 1031.38 202.827 1029.67 199.079C1027.93 195.244 1027.9 191.054 1029.42 187.27C1032.37 179.895 1040.2 175.652 1048.9 174.622Z" fill="black"/>
<path d="M1251.59 148.359H1268.62V234.687H1251.59V148.359Z" fill="black"/>
<path fill-rule="evenodd" clip-rule="evenodd" d="M1234.34 235.482C1252.1 235.482 1264.84 220.336 1264.84 204.903C1264.84 190.326 1252.18 174.324 1234.34 174.324C1217.29 174.324 1204.33 188.014 1204.33 204.903C1204.33 221.791 1217.29 235.482 1234.34 235.482ZM1236.21 220.025C1244.96 220.025 1251.63 213.544 1251.63 204.903C1251.63 196.261 1244.96 189.78 1236.21 189.78C1227.47 189.78 1220.69 196.551 1220.69 204.903C1220.69 213.254 1227.47 220.025 1236.21 220.025Z" fill="black"/>
<path fill-rule="evenodd" clip-rule="evenodd" d="M1341.96 235.482C1359.79 235.482 1372.7 221.791 1372.7 204.903C1372.7 188.014 1358.56 174.324 1341.96 174.324C1325.36 174.324 1311.22 188.014 1311.22 204.903C1311.22 221.791 1324.75 235.482 1341.96 235.482ZM1341.96 220.167C1350.86 220.167 1357.31 213.333 1357.31 204.903C1357.31 196.472 1350.25 189.638 1341.96 189.638C1333.68 189.638 1326.62 196.472 1326.62 204.903C1326.62 213.333 1333.37 220.167 1341.96 220.167Z" fill="black"/>
<path d="M1094.14 216.848L1111.16 214.459V158.222L1094.14 165.142L1094.14 216.848Z" fill="black"/>
<path d="M1082.79 175.305H1125.35V190.359H1082.79V175.305Z" fill="black"/>
<path d="M1114 234.542C1096.23 234.542 1094.14 223.627 1094.14 216.682C1099 213.773 1107.76 212.922 1111.16 212.922C1111.16 216.23 1113.53 219.537 1118.26 219.537H1125.35L1125.35 234.211C1121.09 234.542 1119.42 234.542 1114 234.542Z" fill="black"/>
<path d="M1283.32 175.255H1300.34V234.684H1283.32V175.255Z" fill="black"/>
<path d="M1302.23 156.453C1302.23 162.169 1297.58 166.803 1291.83 166.803C1286.08 166.803 1281.42 162.169 1281.42 156.453C1281.42 150.737 1286.08 146.103 1291.83 146.103C1297.58 146.103 1302.23 150.737 1302.23 156.453Z" fill="black"/>
<path d="M1195.41 234.548H1178.18V176.254H1195.41V234.548Z" fill="black"/>
<path d="M1153.46 205.528L1136.23 208.871V176.253H1153.46V205.528Z" fill="black"/>
<path d="M1162.78 235.464C1146.4 235.464 1136.23 223.508 1136.23 208.85L1153.45 204.918C1153.45 214.557 1158 218.865 1165.8 218.865C1173.17 218.865 1178.19 214.739 1178.19 206.743L1183.68 212.271C1183.68 216.807 1179.71 235.464 1162.78 235.464Z" fill="black"/>
</mask>
<g mask="url(#mask0_206_2)">
<path d="M1020.36 120.602H1412.43V276.319H1020.36V120.602Z" fill="url(#paint27_linear_206_2)"/>
</g>
<g filter="url(#filter2_d_206_2)">
<path d="M-78.7468 854.816C-81.1674 851.455 -85.8546 850.692 -89.2158 853.113C-92.577 855.534 -93.3395 860.221 -90.9189 863.582L-84.8329 859.199L-78.7468 854.816ZM-2.46922 897.341L-3.34492 889.892L-2.46922 897.341ZM134.984 1078.54L135.628 1086.01L134.984 1078.54ZM-84.8329 859.199L-90.9189 863.582C-85.5406 871.05 -78.2517 883.883 -64.935 893.145C-51.146 902.736 -31.5786 908.314 -1.59352 904.789L-2.46922 897.341L-3.34492 889.892C-30.5945 893.095 -46.2601 887.863 -56.3699 880.831C-66.9519 873.471 -72.2274 863.869 -78.7468 854.816L-84.8329 859.199ZM-2.46922 897.341L-1.59352 904.789C18.2737 902.454 32.1257 909.611 41.8157 919.454C51.7561 929.551 57.3763 942.605 59.7087 951.369L66.9564 949.44L74.2042 947.511C71.4138 937.027 64.7715 921.391 52.505 908.931C39.9881 896.216 21.6886 886.949 -3.34492 889.892L-2.46922 897.341ZM66.9564 949.44L59.7087 951.369C60.2158 953.275 60.7874 956.718 61.5268 961.801C62.2345 966.666 63.0737 972.853 64.0983 979.572C66.1581 993.081 69.0727 1009.49 73.7429 1025.23C78.379 1040.86 84.9336 1056.51 94.6343 1068.03C104.571 1079.84 118.055 1087.53 135.628 1086.01L134.984 1078.54L134.341 1071.07C122.636 1072.08 113.618 1067.29 106.11 1058.37C98.3668 1049.17 92.5346 1035.84 88.1235 1020.97C83.7465 1006.21 80.9534 990.602 78.9269 977.311C77.9085 970.632 77.1099 964.724 76.3705 959.641C75.6627 954.776 74.9778 950.418 74.2042 947.511L66.9564 949.44ZM134.984 1078.54L135.628 1086.01C155.506 1084.3 173.818 1075.46 191.571 1067.21C209.714 1058.78 227.852 1050.62 249.013 1048.16C290.528 1043.33 346.799 1060.23 436.631 1153.26L442.026 1148.05L447.421 1142.84C356.432 1048.61 295.779 1027.61 247.278 1033.26C223.43 1036.04 203.285 1045.22 185.249 1053.61C166.824 1062.17 151.059 1069.63 134.341 1071.07L134.984 1078.54Z" fill="#4C1941"/>
<path d="M-78.7468 854.816C-81.1674 851.455 -85.8546 850.692 -89.2158 853.113C-92.577 855.534 -93.3395 860.221 -90.9189 863.582L-84.8329 859.199L-78.7468 854.816ZM-2.46922 897.341L-3.34492 889.892L-2.46922 897.341ZM134.984 1078.54L135.628 1086.01L134.984 1078.54ZM-84.8329 859.199L-90.9189 863.582C-85.5406 871.05 -78.2517 883.883 -64.935 893.145C-51.146 902.736 -31.5786 908.314 -1.59352 904.789L-2.46922 897.341L-3.34492 889.892C-30.5945 893.095 -46.2601 887.863 -56.3699 880.831C-66.9519 873.471 -72.2274 863.869 -78.7468 854.816L-84.8329 859.199ZM-2.46922 897.341L-1.59352 904.789C18.2737 902.454 32.1257 909.611 41.8157 919.454C51.7561 929.551 57.3763 942.605 59.7087 951.369L66.9564 949.44L74.2042 947.511C71.4138 937.027 64.7715 921.391 52.505 908.931C39.9881 896.216 21.6886 886.949 -3.34492 889.892L-2.46922 897.341ZM66.9564 949.44L59.7087 951.369C60.2158 953.275 60.7874 956.718 61.5268 961.801C62.2345 966.666 63.0737 972.853 64.0983 979.572C66.1581 993.081 69.0727 1009.49 73.7429 1025.23C78.379 1040.86 84.9336 1056.51 94.6343 1068.03C104.571 1079.84 118.055 1087.53 135.628 1086.01L134.984 1078.54L134.341 1071.07C122.636 1072.08 113.618 1067.29 106.11 1058.37C98.3668 1049.17 92.5346 1035.84 88.1235 1020.97C83.7465 1006.21 80.9534 990.602 78.9269 977.311C77.9085 970.632 77.1099 964.724 76.3705 959.641C75.6627 954.776 74.9778 950.418 74.2042 947.511L66.9564 949.44ZM134.984 1078.54L135.628 1086.01C155.506 1084.3 173.818 1075.46 191.571 1067.21C209.714 1058.78 227.852 1050.62 249.013 1048.16C290.528 1043.33 346.799 1060.23 436.631 1153.26L442.026 1148.05L447.421 1142.84C356.432 1048.61 295.779 1027.61 247.278 1033.26C223.43 1036.04 203.285 1045.22 185.249 1053.61C166.824 1062.17 151.059 1069.63 134.341 1071.07L134.984 1078.54Z" fill="url(#paint28_linear_206_2)" fill-opacity="0.5"/>
</g>
<g filter="url(#filter3_d_206_2)">
<path d="M1554.13 -39.8153C1550.37 -41.5444 1545.91 -39.8947 1544.18 -36.1307C1542.46 -32.3667 1544.11 -27.9137 1547.87 -26.1847L1551 -33L1554.13 -39.8153ZM1808.5 59.0931L1813.56 53.5586L1808.5 59.0931ZM1551 -33L1547.87 -26.1847C1590.63 -6.5408 1643.83 5.63736 1691.21 18.1923C1715.09 24.5205 1737.55 30.9454 1756.98 38.4758C1776.47 46.0311 1792.36 54.4941 1803.44 64.6275L1808.5 59.0931L1813.56 53.5586C1800.48 41.591 1782.59 32.3157 1762.4 24.4896C1742.14 16.6384 1719 10.0386 1695.05 3.69268C1646.77 -9.10056 1595.38 -20.8679 1554.13 -39.8153L1551 -33ZM1808.5 59.0931L1803.44 64.6275C1811.9 72.3627 1815.53 79.4994 1817.03 86.4053C1818.58 93.6061 1817.97 101.156 1816.79 110.252C1814.47 128.159 1810.1 150.488 1824.4 176.97L1831 173.405L1837.6 169.841C1825.92 148.224 1829.26 130.735 1831.66 112.18C1832.85 103.045 1833.84 93.2024 1831.69 83.2341C1829.47 72.9709 1824.06 63.1617 1813.56 53.5586L1808.5 59.0931ZM1831 173.405L1824.4 176.97C1832.02 191.07 1846.4 201.242 1862.92 209.377C1879.57 217.571 1899.58 224.251 1919.71 230.712C1940.05 237.239 1960.56 243.557 1979.03 251.128C1997.54 258.714 2013.24 267.274 2024.17 277.896L2029.4 272.517L2034.63 267.137C2021.64 254.522 2003.84 245.087 1984.72 237.249C1965.56 229.395 1944.33 222.859 1924.3 216.429C1904.06 209.934 1885.06 203.556 1869.55 195.919C1853.91 188.223 1842.97 179.79 1837.6 169.841L1831 173.405Z" fill="#4C1941"/>
<path d="M1554.13 -39.8153C1550.37 -41.5444 1545.91 -39.8947 1544.18 -36.1307C1542.46 -32.3667 1544.11 -27.9137 1547.87 -26.1847L1551 -33L1554.13 -39.8153ZM1808.5 59.0931L1813.56 53.5586L1808.5 59.0931ZM1551 -33L1547.87 -26.1847C1590.63 -6.5408 1643.83 5.63736 1691.21 18.1923C1715.09 24.5205 1737.55 30.9454 1756.98 38.4758C1776.47 46.0311 1792.36 54.4941 1803.44 64.6275L1808.5 59.0931L1813.56 53.5586C1800.48 41.591 1782.59 32.3157 1762.4 24.4896C1742.14 16.6384 1719 10.0386 1695.05 3.69268C1646.77 -9.10056 1595.38 -20.8679 1554.13 -39.8153L1551 -33ZM1808.5 59.0931L1803.44 64.6275C1811.9 72.3627 1815.53 79.4994 1817.03 86.4053C1818.58 93.6061 1817.97 101.156 1816.79 110.252C1814.47 128.159 1810.1 150.488 1824.4 176.97L1831 173.405L1837.6 169.841C1825.92 148.224 1829.26 130.735 1831.66 112.18C1832.85 103.045 1833.84 93.2024 1831.69 83.2341C1829.47 72.9709 1824.06 63.1617 1813.56 53.5586L1808.5 59.0931ZM1831 173.405L1824.4 176.97C1832.02 191.07 1846.4 201.242 1862.92 209.377C1879.57 217.571 1899.58 224.251 1919.71 230.712C1940.05 237.239 1960.56 243.557 1979.03 251.128C1997.54 258.714 2013.24 267.274 2024.17 277.896L2029.4 272.517L2034.63 267.137C2021.64 254.522 2003.84 245.087 1984.72 237.249C1965.56 229.395 1944.33 222.859 1924.3 216.429C1904.06 209.934 1885.06 203.556 1869.55 195.919C1853.91 188.223 1842.97 179.79 1837.6 169.841L1831 173.405Z" fill="url(#paint29_linear_206_2)" fill-opacity="0.5"/>
</g>
<path d="M744.486 124L728.274 65.2H742.386L752.55 106.36L763.89 65.2H774.81L786.15 106.36L796.314 65.2H810.426L794.214 124H778.926L769.35 89.308L759.774 124H744.486ZM822.142 108.04C823.738 112.408 827.602 113.92 832.222 113.92C835.666 113.92 838.606 112.576 840.286 110.728L850.366 116.524C846.25 122.236 840.034 125.176 832.054 125.176C817.69 125.176 808.786 115.516 808.786 103C808.786 90.484 817.858 80.824 831.13 80.824C843.394 80.824 852.466 90.316 852.466 103C852.466 104.764 852.298 106.444 851.962 108.04H822.142ZM821.89 98.632H839.95C838.606 93.76 834.826 91.996 831.046 91.996C826.258 91.996 823.066 94.348 821.89 98.632ZM859.612 124V62.68H872.212V124H859.612ZM901.593 125.176C888.825 125.176 879.333 115.516 879.333 103C879.333 90.484 888.825 80.824 901.593 80.824C909.741 80.824 916.965 85.108 920.577 91.576L909.573 97.96C908.145 95.02 905.121 93.256 901.425 93.256C895.965 93.256 891.933 97.204 891.933 103C891.933 108.796 895.965 112.744 901.425 112.744C905.121 112.744 908.229 110.98 909.573 108.04L920.577 114.34C916.965 120.892 909.825 125.176 901.593 125.176ZM944.987 125.176C932.639 125.176 922.727 115.516 922.727 103C922.727 90.484 932.639 80.824 944.987 80.824C957.335 80.824 967.247 90.484 967.247 103C967.247 115.516 957.335 125.176 944.987 125.176ZM944.987 112.912C950.447 112.912 954.647 108.964 954.647 103C954.647 97.036 950.447 93.088 944.987 93.088C939.527 93.088 935.327 97.036 935.327 103C935.327 108.964 939.527 112.912 944.987 112.912ZM1021.41 80.824C1031.07 80.824 1037.37 87.712 1037.37 98.212V124H1024.77V99.304C1024.77 95.104 1022.76 92.416 1018.73 92.416C1014.53 92.416 1012.17 95.356 1012.17 100.312V124H999.574V99.304C999.574 95.104 997.558 92.416 993.526 92.416C989.326 92.416 986.974 95.356 986.974 100.312V124H974.374V82H986.974V85.864C988.906 83.008 992.602 80.824 998.23 80.824C1003.19 80.824 1006.88 82.84 1009.23 86.368C1011.59 83.008 1015.45 80.824 1021.41 80.824ZM1057.24 108.04C1058.84 112.408 1062.7 113.92 1067.32 113.92C1070.77 113.92 1073.71 112.576 1075.39 110.728L1085.47 116.524C1081.35 122.236 1075.14 125.176 1067.16 125.176C1052.79 125.176 1043.89 115.516 1043.89 103C1043.89 90.484 1052.96 80.824 1066.23 80.824C1078.5 80.824 1087.57 90.316 1087.57 103C1087.57 104.764 1087.4 106.444 1087.06 108.04H1057.24ZM1056.99 98.632H1075.05C1073.71 93.76 1069.93 91.996 1066.15 91.996C1061.36 91.996 1058.17 94.348 1056.99 98.632ZM1140.33 94.096H1131.67V108.964C1131.67 112.576 1134.78 112.912 1140.33 112.576V124C1123.86 125.68 1119.07 120.724 1119.07 108.964V94.096H1112.35V82H1119.07V74.02L1131.67 70.24V82H1140.33V94.096ZM1166.8 125.176C1154.45 125.176 1144.54 115.516 1144.54 103C1144.54 90.484 1154.45 80.824 1166.8 80.824C1179.15 80.824 1189.06 90.484 1189.06 103C1189.06 115.516 1179.15 125.176 1166.8 125.176ZM1166.8 112.912C1172.26 112.912 1176.46 108.964 1176.46 103C1176.46 97.036 1172.26 93.088 1166.8 93.088C1161.34 93.088 1157.14 97.036 1157.14 103C1157.14 108.964 1161.34 112.912 1166.8 112.912Z" fill="black"/>
</g>
<defs>
<filter id="filter0_f_206_2" x="-96.2437" y="755.342" width="634.487" height="295.27" filterUnits="userSpaceOnUse" color-interpolation-filters="sRGB">
<feFlood flood-opacity="0" result="BackgroundImageFix"/>
<feBlend mode="normal" in="SourceGraphic" in2="BackgroundImageFix" result="shape"/>
<feGaussianBlur stdDeviation="6.12185" result="effect1_foregroundBlur_206_2"/>
</filter>
<filter id="filter1_f_206_2" x="1413" y="224.262" width="153.549" height="97.8145" filterUnits="userSpaceOnUse" color-interpolation-filters="sRGB">
<feFlood flood-opacity="0" result="BackgroundImageFix"/>
<feBlend mode="normal" in="SourceGraphic" in2="BackgroundImageFix" result="shape"/>
<feGaussianBlur stdDeviation="3" result="effect1_foregroundBlur_206_2"/>
</filter>
<filter id="filter2_d_206_2" x="-96.3335" y="851.698" width="547.754" height="335.562" filterUnits="userSpaceOnUse" color-interpolation-filters="sRGB">
<feFlood flood-opacity="0" result="BackgroundImageFix"/>
<feColorMatrix in="SourceAlpha" type="matrix" values="0 0 0 0 0 0 0 0 0 0 0 0 0 0 0 0 0 0 127 0" result="hardAlpha"/>
<feOffset dy="30"/>
<feGaussianBlur stdDeviation="2"/>
<feComposite in2="hardAlpha" operator="out"/>
<feColorMatrix type="matrix" values="0 0 0 0 0 0 0 0 0 0 0 0 0 0 0 0 0 0 0.1 0"/>
<feBlend mode="normal" in2="BackgroundImageFix" result="effect1_dropShadow_206_2"/>
<feBlend mode="normal" in="SourceGraphic" in2="effect1_dropShadow_206_2" result="shape"/>
</filter>
<filter id="filter3_d_206_2" x="1539.5" y="-40.5017" width="499.129" height="352.397" filterUnits="userSpaceOnUse" color-interpolation-filters="sRGB">
<feFlood flood-opacity="0" result="BackgroundImageFix"/>
<feColorMatrix in="SourceAlpha" type="matrix" values="0 0 0 0 0 0 0 0 0 0 0 0 0 0 0 0 0 0 127 0" result="hardAlpha"/>
<feOffset dy="30"/>
<feGaussianBlur stdDeviation="2"/>
<feComposite in2="hardAlpha" operator="out"/>
<feColorMatrix type="matrix" values="0 0 0 0 0 0 0 0 0 0 0 0 0 0 0 0 0 0 0.1 0"/>
<feBlend mode="normal" in2="BackgroundImageFix" result="effect1_dropShadow_206_2"/>
<feBlend mode="normal" in="SourceGraphic" in2="effect1_dropShadow_206_2" result="shape"/>
</filter>
<linearGradient id="paint0_linear_206_2" x1="523.31" y1="1017.14" x2="34.8105" y2="1017.14" gradientUnits="userSpaceOnUse">
<stop stop-color="#FF6E65"/>
<stop offset="0.0677083" stop-color="#BC233F"/>
<stop offset="0.9375" stop-color="#BD2D4F"/>
<stop offset="1" stop-color="#B42C55"/>
</linearGradient>
<linearGradient id="paint1_linear_206_2" x1="477.172" y1="743" x2="34.8105" y2="988.892" gradientUnits="userSpaceOnUse">
<stop stop-color="#FF8080"/>
<stop offset="0.375" stop-color="#F7535D"/>
<stop offset="1" stop-color="#F0538C"/>
</linearGradient>
<linearGradient id="paint2_linear_206_2" x1="222.88" y1="825.944" x2="144.547" y2="825.944" gradientUnits="userSpaceOnUse">
<stop stop-color="#7C3939"/>
<stop offset="0.078125" stop-color="#571726"/>
<stop offset="1" stop-color="#571727"/>
</linearGradient>
<linearGradient id="paint3_linear_206_2" x1="144.547" y1="810.342" x2="222.88" y2="810.342" gradientUnits="userSpaceOnUse">
<stop stop-color="#87374A"/>
<stop offset="0.286458" stop-color="#862F63"/>
<stop offset="0.744792" stop-color="#862F63"/>
<stop offset="1" stop-color="#5A1123"/>
</linearGradient>
<radialGradient id="paint4_radial_206_2" cx="0" cy="0" r="1" gradientUnits="userSpaceOnUse" gradientTransform="translate(567.176 881.654) rotate(90) scale(96.0289 86.9092)">
<stop stop-color="#364468"/>
<stop offset="1" stop-color="#161C2A"/>
</radialGradient>
<linearGradient id="paint5_linear_206_2" x1="1645.79" y1="167.923" x2="1470.97" y2="331.435" gradientUnits="userSpaceOnUse">
<stop stop-color="#FF9C9C"/>
<stop offset="0.34535" stop-color="#FF4E4E"/>
<stop offset="1" stop-color="#F74B89"/>
</linearGradient>
<linearGradient id="paint6_linear_206_2" x1="1639.8" y1="211.443" x2="1513.23" y2="325.88" gradientUnits="userSpaceOnUse">
<stop stop-color="#EEB7C5"/>
<stop offset="1" stop-color="#D784AC"/>
</linearGradient>
<linearGradient id="paint7_linear_206_2" x1="1601" y1="286.49" x2="1509.16" y2="286.49" gradientUnits="userSpaceOnUse">
<stop stop-color="#C1387A"/>
<stop offset="0.4375" stop-color="#912845"/>
<stop offset="0.609375" stop-color="#731E41"/>
<stop offset="1" stop-color="#5F174A"/>
</linearGradient>
<radialGradient id="paint8_radial_206_2" cx="0" cy="0" r="1" gradientUnits="userSpaceOnUse" gradientTransform="translate(1551.63 205.004) rotate(60.0965) scale(31.2211 59.7931)">
<stop stop-color="#411045" stop-opacity="0.73"/>
<stop offset="1" stop-color="white" stop-opacity="0"/>
<stop offset="1" stop-color="#532E1A" stop-opacity="0"/>
</radialGradient>
<radialGradient id="paint9_radial_206_2" cx="0" cy="0" r="1" gradientUnits="userSpaceOnUse" gradientTransform="translate(25.5158 33.3421) rotate(70.6896) scale(62.6461 81.4429)">
<stop stop-color="#FB4469"/>
<stop offset="0.494792" stop-color="#FD435A"/>
<stop offset="0.609375" stop-color="#EE323E"/>
<stop offset="1" stop-color="#C8003C"/>
</radialGradient>
<linearGradient id="paint10_linear_206_2" x1="1430.75" y1="909" x2="1312.33" y2="909" gradientUnits="userSpaceOnUse">
<stop stop-color="#AD2C46"/>
<stop offset="0.348958" stop-color="#C2465B"/>
<stop offset="0.5625" stop-color="#EB7A85"/>
<stop offset="1" stop-color="#FF949A"/>
</linearGradient>
<linearGradient id="paint11_linear_206_2" x1="1466.63" y1="880.214" x2="1425.37" y2="880.214" gradientUnits="userSpaceOnUse">
<stop stop-color="#CB488F"/>
<stop offset="0.302083" stop-color="#BB5168"/>
<stop offset="1" stop-color="#C8506D"/>
</linearGradient>
<linearGradient id="paint12_linear_206_2" x1="1418.78" y1="793.058" x2="1328.42" y2="889.136" gradientUnits="userSpaceOnUse">
<stop stop-color="#FF5E68"/>
<stop offset="0.427083" stop-color="#F54D63"/>
<stop offset="1" stop-color="#FD4D6D"/>
</linearGradient>
<linearGradient id="paint13_linear_206_2" x1="121.182" y1="123.492" x2="2.88921e-05" y2="123.492" gradientUnits="userSpaceOnUse">
<stop stop-color="#88134B"/>
<stop offset="0.348958" stop-color="#E43943"/>
<stop offset="0.5625" stop-color="#F75363"/>
<stop offset="1" stop-color="#FF8D94"/>
</linearGradient>
<linearGradient id="paint14_linear_206_2" x1="60.623" y1="212.036" x2="79.1087" y2="212.036" gradientUnits="userSpaceOnUse">
<stop stop-color="#B94F75"/>
<stop offset="0.396555" stop-color="#B94F75"/>
<stop offset="1" stop-color="#8B295E"/>
</linearGradient>
<linearGradient id="paint15_linear_206_2" x1="74.0494" y1="235.776" x2="65.9169" y2="235.776" gradientUnits="userSpaceOnUse">
<stop stop-color="#631A41" stop-opacity="0.72"/>
<stop offset="1" stop-color="white" stop-opacity="0"/>
</linearGradient>
<linearGradient id="paint16_linear_206_2" x1="74.0494" y1="230.055" x2="65.9169" y2="230.055" gradientUnits="userSpaceOnUse">
<stop stop-color="#631A41" stop-opacity="0.72"/>
<stop offset="1" stop-color="white" stop-opacity="0"/>
</linearGradient>
<linearGradient id="paint17_linear_206_2" x1="74.0494" y1="224.334" x2="65.9169" y2="224.334" gradientUnits="userSpaceOnUse">
<stop stop-color="#631A41" stop-opacity="0.72"/>
<stop offset="1" stop-color="white" stop-opacity="0"/>
</linearGradient>
<linearGradient id="paint18_linear_206_2" x1="74.0494" y1="218.613" x2="65.9169" y2="218.613" gradientUnits="userSpaceOnUse">
<stop stop-color="#631A41" stop-opacity="0.72"/>
<stop offset="1" stop-color="white" stop-opacity="0"/>
</linearGradient>
<linearGradient id="paint19_linear_206_2" x1="74.0494" y1="212.893" x2="65.9169" y2="212.893" gradientUnits="userSpaceOnUse">
<stop stop-color="#631A41" stop-opacity="0.72"/>
<stop offset="1" stop-color="white" stop-opacity="0"/>
</linearGradient>
<linearGradient id="paint20_linear_206_2" x1="74.0494" y1="207.172" x2="65.9169" y2="207.172" gradientUnits="userSpaceOnUse">
<stop stop-color="#631A41" stop-opacity="0.72"/>
<stop offset="1" stop-color="white" stop-opacity="0"/>
</linearGradient>
<linearGradient id="paint21_linear_206_2" x1="74.0494" y1="201.451" x2="65.9169" y2="201.451" gradientUnits="userSpaceOnUse">
<stop stop-color="#631A41" stop-opacity="0.72"/>
<stop offset="1" stop-color="white" stop-opacity="0"/>
</linearGradient>
<linearGradient id="paint22_linear_206_2" x1="74.0494" y1="195.731" x2="65.9169" y2="195.731" gradientUnits="userSpaceOnUse">
<stop stop-color="#631A41" stop-opacity="0.72"/>
<stop offset="1" stop-color="white" stop-opacity="0"/>
</linearGradient>
<linearGradient id="paint23_linear_206_2" x1="110.813" y1="249.131" x2="68.7607" y2="249.131" gradientUnits="userSpaceOnUse">
<stop stop-color="#CB488F"/>
<stop offset="0.302083" stop-color="#BB5168"/>
<stop offset="1" stop-color="#C8506D"/>
</linearGradient>
<linearGradient id="paint24_linear_206_2" x1="350.389" y1="202.798" x2="392.441" y2="202.798" gradientUnits="userSpaceOnUse">
<stop stop-color="#CB488F"/>
<stop offset="0.302083" stop-color="#BB5168"/>
<stop offset="1" stop-color="#C8506D"/>
</linearGradient>
<linearGradient id="paint25_linear_206_2" x1="-4.46186" y1="249.134" x2="37.5909" y2="249.134" gradientUnits="userSpaceOnUse">
<stop stop-color="#CB488F"/>
<stop offset="0.302083" stop-color="#BB5168"/>
<stop offset="1" stop-color="#C8506D"/>
</linearGradient>
<linearGradient id="paint26_linear_206_2" x1="25.0793" y1="-3.4074e-06" x2="119.743" y2="106.007" gradientUnits="userSpaceOnUse">
<stop stop-color="#FF6871"/>
<stop offset="1" stop-color="#FF4B61"/>
</linearGradient>
<linearGradient id="paint27_linear_206_2" x1="1030.97" y1="268.088" x2="1351.57" y2="111.141" gradientUnits="userSpaceOnUse">
<stop stop-color="#FF3939"/>
<stop offset="1" stop-color="#FF70D6"/>
</linearGradient>
<linearGradient id="paint28_linear_206_2" x1="-84.3777" y1="868.71" x2="64.8084" y2="937.88" gradientUnits="userSpaceOnUse">
<stop stop-color="#DEA6C1" stop-opacity="0.52"/>
<stop offset="1" stop-color="#C1387A"/>
</linearGradient>
<linearGradient id="paint29_linear_206_2" x1="1575.4" y1="-97.5544" x2="1771.97" y2="118.934" gradientUnits="userSpaceOnUse">
<stop stop-color="#DEA6C1" stop-opacity="0.52"/>
<stop offset="1" stop-color="#C1387A"/>
</linearGradient>
<clipPath id="clip0_206_2">
<rect width="1920" height="1080" fill="white"/>
</clipPath>
</defs>
</svg>
