<svg width="1920" height="1080" viewBox="0 0 1920 1080" fill="none" xmlns="http://www.w3.org/2000/svg">
<g clip-path="url(#clip0_214_2)">
<path d="M124.765 477.046C158.973 443.019 214.435 443.019 248.643 477.046L343.752 571.652C377.96 605.678 377.96 660.847 343.752 694.874L248.643 789.48C214.435 823.507 158.973 823.507 124.765 789.48L29.6559 694.874C-4.552 660.847 -4.55196 605.678 29.656 571.652L124.765 477.046Z" fill="#ED3266"/>
<path fill-rule="evenodd" clip-rule="evenodd" d="M257.592 605.137C262.251 605.137 266.165 608.599 266.609 613.212C267.42 621.642 268.519 635.272 268.518 647.2C268.518 659.599 267.368 671.235 266.553 677.925C266.118 681.497 263.516 684.385 260.026 685.332L222.674 695.465C218.356 696.636 213.81 694.549 211.501 690.735C206.584 682.613 197.275 670.06 186.703 670.06V670.06C176.132 670.06 166.823 682.613 161.905 690.735C159.597 694.549 155.051 696.636 150.733 695.465L113.381 685.332C109.891 684.385 107.288 681.497 106.853 677.925C106.038 671.235 104.889 659.599 104.889 647.2C104.888 635.272 105.987 621.642 106.798 613.212C107.241 608.599 111.156 605.138 115.814 605.138H186.703V605.137H257.592Z" fill="white"/>
<path fill-rule="evenodd" clip-rule="evenodd" d="M99.7368 624.453C100.02 621.285 96.5305 619.413 94.4483 621.826C88.9775 628.165 85.6719 636.407 85.6719 645.417C85.6719 654.046 88.7035 661.97 93.765 668.194C95.8084 670.706 99.3821 668.83 99.1245 665.608C98.7222 660.577 98.4575 655.117 98.4575 649.46C98.457 641.396 99.0122 632.555 99.7368 624.453Z" fill="white"/>
<path fill-rule="evenodd" clip-rule="evenodd" d="M273.675 624.453C273.392 621.285 276.882 619.413 278.964 621.826C284.435 628.165 287.74 636.407 287.74 645.417C287.74 654.046 284.709 661.97 279.647 668.194C277.604 670.706 274.03 668.83 274.288 665.608C274.69 660.577 274.955 655.117 274.955 649.46C274.955 641.396 274.4 632.555 273.675 624.453Z" fill="white"/>
<path d="M171.996 561.243C171.996 558.213 174.466 555.757 177.512 555.757H195.897C198.943 555.757 201.413 558.213 201.413 561.243V599.648H171.996V561.243Z" fill="white"/>
<path d="M247.376 630.737C247.376 635.787 243.26 639.881 238.183 639.881C233.106 639.881 228.99 635.787 228.99 630.737C228.99 625.687 233.106 621.593 238.183 621.593C243.26 621.593 247.376 625.687 247.376 630.737Z" fill="#ED3266"/>
<path d="M228.99 658.168C228.99 663.218 224.874 667.312 219.797 667.312C214.72 667.312 210.604 663.218 210.604 658.168C210.604 653.118 214.72 649.024 219.797 649.024C224.874 649.024 228.99 653.118 228.99 658.168Z" fill="#ED3266"/>
<path d="M136.334 627.64C136.334 625.234 138.295 623.283 140.714 623.283H145.093C147.512 623.283 149.473 625.234 149.473 627.64V660.314C149.473 662.72 147.512 664.671 145.093 664.671H140.714C138.295 664.671 136.334 662.72 136.334 660.314V627.64Z" fill="#ED3266"/>
<path d="M159.326 637.441C161.745 637.441 163.706 639.391 163.706 641.797L163.706 646.154C163.706 648.56 161.745 650.51 159.326 650.51L126.478 650.51C124.059 650.51 122.098 648.56 122.098 646.154L122.098 641.797C122.098 639.391 124.059 637.441 126.478 637.441L159.326 637.441Z" fill="#ED3266"/>
<path d="M558.984 567.928H598.402V705.11H558.984V567.928Z" fill="black"/>
<path fill-rule="evenodd" clip-rule="evenodd" d="M518.966 707.291C560.063 707.291 589.574 672.226 589.574 636.497C589.574 602.749 560.26 565.703 518.966 565.703C479.474 565.703 449.49 597.399 449.49 636.497C449.49 675.596 479.474 707.291 518.966 707.291ZM523.292 671.507C543.54 671.507 558.984 656.502 558.984 636.497C558.984 616.491 543.54 601.487 523.292 601.487C503.043 601.487 487.362 617.161 487.362 636.497C487.362 655.832 503.043 671.507 523.292 671.507Z" fill="black"/>
<path fill-rule="evenodd" clip-rule="evenodd" d="M756.745 606.172L720.65 622.851C716.045 612.534 706.336 604.231 693.206 604.231C674.539 604.231 660.082 618.681 660.082 636.507C660.082 654.333 674.539 668.784 693.206 668.784C706.636 668.784 716.487 661.304 720.957 650.47L756.978 667.365C745.911 691.004 722.167 707.301 692.566 707.301C652.711 707.301 621.396 675.606 621.396 636.507C621.396 597.409 654.134 565.713 692.566 565.713C720.328 565.713 745.119 582.251 756.745 606.172Z" fill="black"/>
<path d="M779.062 567.904H818.48V705.135H779.062V567.904Z" fill="black"/>
<path d="M866.658 621.267L906.076 618V705.131H866.658V621.267Z" fill="black"/>
<path d="M954.253 621.267L993.671 618V705.131H954.253V621.267Z" fill="black"/>
<path d="M853.805 565.713C888.688 565.713 906.073 592.297 906.073 620.17L866.655 627.46C866.655 615.406 855.706 604.556 842.567 604.556C829.427 604.556 818.478 615.821 818.478 628.891L808.038 614.235C803.929 604.556 818.82 565.713 853.805 565.713Z" fill="black"/>
<path d="M941.401 565.713C976.284 565.713 993.668 592.297 993.668 620.17L954.251 627.46C954.251 615.406 943.301 604.556 930.162 604.556C917.023 604.556 906.073 615.821 906.073 628.891L895.634 614.235C891.525 604.556 906.416 565.713 941.401 565.713Z" fill="black"/>
<path d="M941.4 565.713C976.282 565.713 993.667 592.297 993.667 620.17L954.249 623.437C954.249 611.384 943.3 601.655 930.161 601.655C917.021 601.655 906.072 610.368 906.072 623.437L886.363 602.744C895.123 583.139 906.415 565.713 941.4 565.713Z" fill="black"/>
<path d="M1080.07 679.481C1080.07 693.589 1068.57 705.026 1054.39 705.026C1040.21 705.026 1028.71 693.589 1028.71 679.481C1028.71 665.373 1040.21 653.937 1054.39 653.937C1068.57 653.937 1080.07 665.373 1080.07 679.481Z" fill="black"/>
<mask id="mask0_214_2" style="mask-type:alpha" maskUnits="userSpaceOnUse" x="1113" y="500" width="803" height="208">
<path fill-rule="evenodd" clip-rule="evenodd" d="M1165.97 566.405C1200.87 562.271 1221.29 581.776 1227.39 596.606L1194.21 610.107C1192 606.277 1184.36 599.241 1174.64 599.241C1162.52 599.241 1160.12 603.808 1159.28 606.217C1158.16 609.435 1159.88 612.41 1163.87 613.873C1167.66 615.267 1171.72 616.267 1175.99 617.318C1178.24 617.873 1180.56 618.442 1182.91 619.091L1182.92 619.09L1183.2 619.166C1192.11 621.597 1202.14 624.677 1213.89 633.502C1222.28 639.796 1227.35 648.555 1228.41 658.335C1229.41 667.664 1226.61 676.352 1222.38 683.256C1214.09 696.768 1197.92 707.345 1179.12 707.345L1178.92 707.345C1174.52 707.346 1162.77 707.349 1150.33 703.873C1137.71 700.347 1121.55 692.407 1113.02 674.486L1146.39 658.777C1146.49 659.04 1148.34 663.613 1155.08 668.58C1162.02 673.697 1170.4 674.466 1179.13 672.596C1188.94 670.498 1190.48 664.199 1187.58 661.347C1184.17 658.002 1177.35 656.079 1170.59 654.171C1169.78 653.942 1168.97 653.714 1168.17 653.483L1168.17 653.475C1167.93 653.411 1167.7 653.346 1167.46 653.28C1167.32 653.237 1167.17 653.195 1167.02 653.152L1167 653.152C1160.02 651.189 1151.39 648.38 1140.99 642.838C1132.5 638.316 1125.39 631.704 1121.45 623.028C1117.42 614.148 1117.35 604.448 1120.85 595.689C1127.69 578.613 1145.81 568.792 1165.97 566.405Z" fill="black"/>
<path d="M1635.22 505.604H1674.64V705.464H1635.22V505.604Z" fill="black"/>
<path fill-rule="evenodd" clip-rule="evenodd" d="M1595.29 707.304C1636.38 707.304 1665.9 672.239 1665.9 636.51C1665.9 602.762 1636.58 565.716 1595.29 565.716C1555.8 565.716 1525.81 597.412 1525.81 636.51C1525.81 675.609 1555.8 707.304 1595.29 707.304ZM1599.61 671.52C1619.86 671.52 1635.3 656.515 1635.3 636.51C1635.3 616.504 1619.86 601.5 1599.61 601.5C1579.36 601.5 1563.68 617.174 1563.68 636.51C1563.68 655.845 1579.36 671.52 1599.61 671.52Z" fill="black"/>
<path fill-rule="evenodd" clip-rule="evenodd" d="M1844.43 707.304C1885.71 707.304 1915.61 675.609 1915.61 636.51C1915.61 597.411 1882.87 565.716 1844.43 565.716C1806 565.716 1773.26 597.411 1773.26 636.51C1773.26 675.609 1804.58 707.304 1844.43 707.304ZM1844.44 671.849C1865.04 671.849 1879.96 656.027 1879.96 636.51C1879.96 616.992 1863.62 601.17 1844.44 601.17C1825.25 601.17 1808.91 616.992 1808.91 636.51C1808.91 656.027 1824.54 671.849 1844.44 671.849Z" fill="black"/>
<path d="M1270.69 664.166L1310.11 658.633V528.439L1270.69 544.46L1270.69 664.166Z" fill="black"/>
<path d="M1244.42 567.987H1342.96V602.84H1244.42V567.987Z" fill="black"/>
<path d="M1316.67 705.129C1275.54 705.129 1270.69 679.86 1270.69 663.779C1281.94 657.046 1302.22 655.076 1310.11 655.076C1310.11 662.733 1315.58 670.391 1326.53 670.391H1342.95L1342.95 704.363C1333.1 705.129 1329.23 705.129 1316.67 705.129Z" fill="black"/>
<path d="M1708.66 567.872H1748.08V705.457H1708.66V567.872Z" fill="black"/>
<path d="M1752.46 524.342C1752.46 537.576 1741.68 548.304 1728.37 548.304C1715.07 548.304 1704.29 537.576 1704.29 524.342C1704.29 511.109 1715.07 500.381 1728.37 500.381C1741.68 500.381 1752.46 511.109 1752.46 524.342Z" fill="black"/>
<path d="M1505.15 705.143H1465.27V570.186H1505.15V705.143Z" fill="black"/>
<path d="M1408.02 637.958L1368.14 645.697V570.183H1408.02V637.958Z" fill="black"/>
<path d="M1429.6 707.263C1391.7 707.263 1368.14 679.584 1368.14 645.647L1408.02 636.544C1408.02 658.86 1418.55 668.835 1436.6 668.835C1453.67 668.835 1465.29 659.282 1465.29 640.77L1478 653.569C1478 664.07 1468.8 707.263 1429.6 707.263Z" fill="black"/>
</mask>
<g mask="url(#mask0_214_2)">
<path d="M1099.88 441.342H2007.58V801.848H1099.88V441.342Z" fill="url(#paint0_linear_214_2)"/>
</g>
<path d="M590.904 452L563.112 351.2H587.304L604.728 421.76L624.168 351.2H642.888L662.328 421.76L679.752 351.2H703.944L676.152 452H649.944L633.528 392.528L617.112 452H590.904ZM724.029 424.64C726.765 432.128 733.389 434.72 741.309 434.72C747.213 434.72 752.253 432.416 755.133 429.248L772.413 439.184C765.357 448.976 754.701 454.016 741.021 454.016C716.397 454.016 701.133 437.456 701.133 416C701.133 394.544 716.685 377.984 739.437 377.984C760.461 377.984 776.013 394.256 776.013 416C776.013 419.024 775.725 421.904 775.149 424.64H724.029ZM723.597 408.512H754.557C752.253 400.16 745.773 397.136 739.293 397.136C731.085 397.136 725.613 401.168 723.597 408.512ZM788.264 452V346.88H809.864V452H788.264ZM860.23 454.016C838.342 454.016 822.07 437.456 822.07 416C822.07 394.544 838.342 377.984 860.23 377.984C874.198 377.984 886.582 385.328 892.774 396.416L873.91 407.36C871.462 402.32 866.278 399.296 859.942 399.296C850.582 399.296 843.67 406.064 843.67 416C843.67 425.936 850.582 432.704 859.942 432.704C866.278 432.704 871.606 429.68 873.91 424.64L892.774 435.44C886.582 446.672 874.342 454.016 860.23 454.016ZM934.621 454.016C913.453 454.016 896.461 437.456 896.461 416C896.461 394.544 913.453 377.984 934.621 377.984C955.789 377.984 972.781 394.544 972.781 416C972.781 437.456 955.789 454.016 934.621 454.016ZM934.621 432.992C943.981 432.992 951.181 426.224 951.181 416C951.181 405.776 943.981 399.008 934.621 399.008C925.261 399.008 918.061 405.776 918.061 416C918.061 426.224 925.261 432.992 934.621 432.992ZM1065.64 377.984C1082.2 377.984 1093 389.792 1093 407.792V452H1071.4V409.664C1071.4 402.464 1067.94 397.856 1061.03 397.856C1053.83 397.856 1049.8 402.896 1049.8 411.392V452H1028.2V409.664C1028.2 402.464 1024.74 397.856 1017.83 397.856C1010.63 397.856 1006.6 402.896 1006.6 411.392V452H984.998V380H1006.6V386.624C1009.91 381.728 1016.25 377.984 1025.89 377.984C1034.39 377.984 1040.73 381.44 1044.76 387.488C1048.79 381.728 1055.41 377.984 1065.64 377.984ZM1127.06 424.64C1129.8 432.128 1136.42 434.72 1144.34 434.72C1150.24 434.72 1155.28 432.416 1158.16 429.248L1175.44 439.184C1168.39 448.976 1157.73 454.016 1144.05 454.016C1119.43 454.016 1104.16 437.456 1104.16 416C1104.16 394.544 1119.72 377.984 1142.47 377.984C1163.49 377.984 1179.04 394.256 1179.04 416C1179.04 419.024 1178.76 421.904 1178.18 424.64H1127.06ZM1126.63 408.512H1157.59C1155.28 400.16 1148.8 397.136 1142.32 397.136C1134.12 397.136 1128.64 401.168 1126.63 408.512ZM1269.49 400.736H1254.66V426.224C1254.66 432.416 1259.98 432.992 1269.49 432.416V452C1241.26 454.88 1233.06 446.384 1233.06 426.224V400.736H1221.54V380H1233.06V366.32L1254.66 359.84V380H1269.49V400.736ZM1314.87 454.016C1293.7 454.016 1276.71 437.456 1276.71 416C1276.71 394.544 1293.7 377.984 1314.87 377.984C1336.04 377.984 1353.03 394.544 1353.03 416C1353.03 437.456 1336.04 454.016 1314.87 454.016ZM1314.87 432.992C1324.23 432.992 1331.43 426.224 1331.43 416C1331.43 405.776 1324.23 399.008 1314.87 399.008C1305.51 399.008 1298.31 405.776 1298.31 416C1298.31 426.224 1305.51 432.992 1314.87 432.992Z" fill="black"/>
</g>
<defs>
<linearGradient id="paint0_linear_214_2" x1="1124.46" y1="782.792" x2="1866.69" y2="419.441" gradientUnits="userSpaceOnUse">
<stop stop-color="#FF3939"/>
<stop offset="1" stop-color="#FF70D6"/>
</linearGradient>
<clipPath id="clip0_214_2">
<rect width="1920" height="1080" fill="white"/>
</clipPath>
</defs>
</svg>
