<svg width="1920" height="478" viewBox="0 0 1920 478" fill="none" xmlns="http://www.w3.org/2000/svg">
<g clip-path="url(#clip0_214_2)">
<path d="M124.765 140.046C158.973 106.019 214.435 106.019 248.643 140.046L343.752 234.652C377.96 268.679 377.96 323.847 343.752 357.874L248.643 452.48C214.435 486.507 158.973 486.507 124.765 452.48L29.6559 357.874C-4.552 323.847 -4.55196 268.678 29.656 234.652L124.765 140.046Z" fill="#ED3266"/>
<path fill-rule="evenodd" clip-rule="evenodd" d="M257.592 268.137C262.251 268.137 266.165 271.599 266.609 276.212C267.42 284.642 268.519 298.272 268.518 310.2C268.518 322.599 267.368 334.235 266.553 340.925C266.118 344.497 263.516 347.385 260.026 348.332L222.674 358.465C218.356 359.636 213.81 357.549 211.501 353.735C206.584 345.613 197.275 333.06 186.703 333.06V333.06C176.132 333.06 166.823 345.613 161.905 353.735C159.597 357.549 155.051 359.636 150.733 358.465L113.381 348.332C109.891 347.385 107.288 344.497 106.853 340.925C106.038 334.235 104.889 322.599 104.889 310.2C104.888 298.272 105.987 284.642 106.798 276.212C107.241 271.599 111.156 268.138 115.814 268.138H186.703V268.137H257.592Z" fill="white"/>
<path fill-rule="evenodd" clip-rule="evenodd" d="M99.7368 287.453C100.02 284.285 96.5305 282.413 94.4483 284.826C88.9775 291.165 85.6719 299.407 85.6719 308.417C85.6719 317.046 88.7035 324.97 93.765 331.194C95.8084 333.706 99.3821 331.83 99.1245 328.608C98.7222 323.577 98.4575 318.117 98.4575 312.46C98.457 304.396 99.0122 295.555 99.7368 287.453Z" fill="white"/>
<path fill-rule="evenodd" clip-rule="evenodd" d="M273.675 287.453C273.392 284.285 276.882 282.413 278.964 284.826C284.435 291.165 287.74 299.407 287.74 308.417C287.74 317.046 284.709 324.97 279.647 331.194C277.604 333.706 274.03 331.83 274.288 328.608C274.69 323.577 274.955 318.117 274.955 312.46C274.955 304.396 274.4 295.555 273.675 287.453Z" fill="white"/>
<path d="M171.996 224.243C171.996 221.213 174.466 218.757 177.512 218.757H195.897C198.943 218.757 201.413 221.213 201.413 224.243V262.648H171.996V224.243Z" fill="white"/>
<path d="M247.376 293.737C247.376 298.787 243.26 302.881 238.183 302.881C233.106 302.881 228.99 298.787 228.99 293.737C228.99 288.687 233.106 284.593 238.183 284.593C243.26 284.593 247.376 288.687 247.376 293.737Z" fill="#ED3266"/>
<path d="M228.99 321.168C228.99 326.218 224.874 330.312 219.797 330.312C214.72 330.312 210.604 326.218 210.604 321.168C210.604 316.118 214.72 312.024 219.797 312.024C224.874 312.024 228.99 316.118 228.99 321.168Z" fill="#ED3266"/>
<path d="M136.334 290.64C136.334 288.234 138.295 286.283 140.714 286.283H145.093C147.512 286.283 149.473 288.234 149.473 290.64V323.314C149.473 325.72 147.512 327.671 145.093 327.671H140.714C138.295 327.671 136.334 325.72 136.334 323.314V290.64Z" fill="#ED3266"/>
<path d="M159.326 300.441C161.745 300.441 163.706 302.391 163.706 304.797L163.706 309.154C163.706 311.56 161.745 313.51 159.326 313.51L126.478 313.51C124.059 313.51 122.098 311.56 122.098 309.154L122.098 304.797C122.098 302.391 124.059 300.441 126.478 300.441L159.326 300.441Z" fill="#ED3266"/>
<path d="M558.984 230.928H598.402V368.11H558.984V230.928Z" fill="black"/>
<path fill-rule="evenodd" clip-rule="evenodd" d="M518.966 370.291C560.063 370.291 589.574 335.226 589.574 299.497C589.574 265.749 560.26 228.703 518.966 228.703C479.474 228.703 449.49 260.399 449.49 299.497C449.49 338.596 479.474 370.291 518.966 370.291ZM523.292 334.507C543.54 334.507 558.984 319.502 558.984 299.497C558.984 279.491 543.54 264.487 523.292 264.487C503.043 264.487 487.362 280.161 487.362 299.497C487.362 318.832 503.043 334.507 523.292 334.507Z" fill="black"/>
<path fill-rule="evenodd" clip-rule="evenodd" d="M756.745 269.172L720.65 285.851C716.045 275.534 706.336 267.231 693.206 267.231C674.539 267.231 660.082 281.681 660.082 299.507C660.082 317.333 674.539 331.784 693.206 331.784C706.636 331.784 716.487 324.304 720.957 313.47L756.978 330.365C745.911 354.004 722.167 370.301 692.566 370.301C652.711 370.301 621.396 338.606 621.396 299.507C621.396 260.409 654.134 228.713 692.566 228.713C720.328 228.713 745.119 245.251 756.745 269.172Z" fill="black"/>
<path d="M779.062 230.904H818.48V368.135H779.062V230.904Z" fill="black"/>
<path d="M866.658 284.267L906.076 281V368.131H866.658V284.267Z" fill="black"/>
<path d="M954.253 284.267L993.671 281V368.131H954.253V284.267Z" fill="black"/>
<path d="M853.805 228.713C888.688 228.713 906.073 255.297 906.073 283.17L866.655 290.46C866.655 278.406 855.706 267.556 842.567 267.556C829.427 267.556 818.478 278.821 818.478 291.891L808.038 277.235C803.929 267.556 818.82 228.713 853.805 228.713Z" fill="black"/>
<path d="M941.401 228.713C976.284 228.713 993.668 255.297 993.668 283.17L954.251 290.46C954.251 278.406 943.301 267.556 930.162 267.556C917.023 267.556 906.073 278.821 906.073 291.891L895.634 277.235C891.525 267.556 906.416 228.713 941.401 228.713Z" fill="black"/>
<path d="M941.4 228.713C976.282 228.713 993.667 255.297 993.667 283.17L954.249 286.437C954.249 274.384 943.3 264.655 930.161 264.655C917.021 264.655 906.072 273.368 906.072 286.437L886.363 265.744C895.123 246.139 906.415 228.713 941.4 228.713Z" fill="black"/>
<path d="M1080.07 342.481C1080.07 356.589 1068.57 368.026 1054.39 368.026C1040.21 368.026 1028.71 356.589 1028.71 342.481C1028.71 328.373 1040.21 316.937 1054.39 316.937C1068.57 316.937 1080.07 328.373 1080.07 342.481Z" fill="black"/>
<mask id="mask0_214_2" style="mask-type:alpha" maskUnits="userSpaceOnUse" x="1113" y="163" width="803" height="208">
<path fill-rule="evenodd" clip-rule="evenodd" d="M1165.97 229.405C1200.87 225.271 1221.29 244.776 1227.39 259.606L1194.21 273.107C1192 269.277 1184.36 262.241 1174.64 262.241C1162.52 262.241 1160.12 266.808 1159.28 269.217C1158.16 272.435 1159.88 275.41 1163.87 276.873C1167.66 278.267 1171.72 279.267 1175.99 280.318C1178.24 280.873 1180.56 281.442 1182.91 282.091L1182.92 282.09L1183.2 282.166C1192.11 284.597 1202.14 287.677 1213.89 296.502C1222.28 302.796 1227.35 311.555 1228.41 321.335C1229.41 330.664 1226.61 339.352 1222.38 346.256C1214.09 359.768 1197.92 370.345 1179.12 370.345L1178.92 370.345C1174.52 370.346 1162.77 370.349 1150.33 366.873C1137.71 363.347 1121.55 355.407 1113.02 337.486L1146.39 321.777C1146.49 322.04 1148.34 326.613 1155.08 331.58C1162.02 336.697 1170.4 337.466 1179.13 335.596C1188.94 333.498 1190.48 327.199 1187.58 324.347C1184.17 321.002 1177.35 319.079 1170.59 317.171C1169.78 316.942 1168.97 316.714 1168.17 316.483L1168.17 316.475C1167.93 316.411 1167.7 316.346 1167.46 316.28C1167.32 316.237 1167.17 316.195 1167.02 316.152L1167 316.152C1160.02 314.189 1151.39 311.38 1140.99 305.838C1132.5 301.316 1125.39 294.704 1121.45 286.028C1117.42 277.148 1117.35 267.448 1120.85 258.689C1127.69 241.613 1145.81 231.792 1165.97 229.405Z" fill="black"/>
<path d="M1635.22 168.604H1674.64V368.464H1635.22V168.604Z" fill="black"/>
<path fill-rule="evenodd" clip-rule="evenodd" d="M1595.29 370.304C1636.38 370.304 1665.9 335.239 1665.9 299.51C1665.9 265.762 1636.58 228.716 1595.29 228.716C1555.8 228.716 1525.81 260.412 1525.81 299.51C1525.81 338.609 1555.8 370.304 1595.29 370.304ZM1599.61 334.52C1619.86 334.52 1635.3 319.515 1635.3 299.51C1635.3 279.504 1619.86 264.5 1599.61 264.5C1579.36 264.5 1563.68 280.174 1563.68 299.51C1563.68 318.845 1579.36 334.52 1599.61 334.52Z" fill="black"/>
<path fill-rule="evenodd" clip-rule="evenodd" d="M1844.43 370.304C1885.71 370.304 1915.61 338.609 1915.61 299.51C1915.61 260.411 1882.87 228.716 1844.43 228.716C1806 228.716 1773.26 260.411 1773.26 299.51C1773.26 338.609 1804.58 370.304 1844.43 370.304ZM1844.44 334.849C1865.04 334.849 1879.96 319.027 1879.96 299.51C1879.96 279.992 1863.62 264.17 1844.44 264.17C1825.25 264.17 1808.91 279.992 1808.91 299.51C1808.91 319.027 1824.54 334.849 1844.44 334.849Z" fill="black"/>
<path d="M1270.69 327.166L1310.11 321.633V191.439L1270.69 207.46L1270.69 327.166Z" fill="black"/>
<path d="M1244.42 230.987H1342.96V265.84H1244.42V230.987Z" fill="black"/>
<path d="M1316.67 368.129C1275.54 368.129 1270.69 342.86 1270.69 326.779C1281.94 320.046 1302.22 318.076 1310.11 318.076C1310.11 325.733 1315.58 333.391 1326.53 333.391H1342.95L1342.95 367.363C1333.1 368.129 1329.23 368.129 1316.67 368.129Z" fill="black"/>
<path d="M1708.66 230.872H1748.08V368.457H1708.66V230.872Z" fill="black"/>
<path d="M1752.46 187.342C1752.46 200.576 1741.68 211.304 1728.37 211.304C1715.07 211.304 1704.29 200.576 1704.29 187.342C1704.29 174.109 1715.07 163.381 1728.37 163.381C1741.68 163.381 1752.46 174.109 1752.46 187.342Z" fill="black"/>
<path d="M1505.15 368.143H1465.27V233.186H1505.15V368.143Z" fill="black"/>
<path d="M1408.02 300.958L1368.14 308.697V233.183H1408.02V300.958Z" fill="black"/>
<path d="M1429.6 370.263C1391.7 370.263 1368.14 342.584 1368.14 308.647L1408.02 299.544C1408.02 321.86 1418.55 331.835 1436.6 331.835C1453.67 331.835 1465.29 322.282 1465.29 303.77L1478 316.569C1478 327.07 1468.8 370.263 1429.6 370.263Z" fill="black"/>
</mask>
<g mask="url(#mask0_214_2)">
<path d="M1099.88 104.342H2007.58V464.848H1099.88V104.342Z" fill="url(#paint0_linear_214_2)"/>
</g>
<path d="M590.904 115L563.112 14.2H587.304L604.728 84.76L624.168 14.2H642.888L662.328 84.76L679.752 14.2H703.944L676.152 115H649.944L633.528 55.528L617.112 115H590.904ZM724.029 87.64C726.765 95.128 733.389 97.72 741.309 97.72C747.213 97.72 752.253 95.416 755.133 92.248L772.413 102.184C765.357 111.976 754.701 117.016 741.021 117.016C716.397 117.016 701.133 100.456 701.133 79C701.133 57.544 716.685 40.984 739.437 40.984C760.461 40.984 776.013 57.256 776.013 79C776.013 82.024 775.725 84.904 775.149 87.64H724.029ZM723.597 71.512H754.557C752.253 63.16 745.773 60.136 739.293 60.136C731.085 60.136 725.613 64.168 723.597 71.512ZM788.264 115V9.88H809.864V115H788.264ZM860.23 117.016C838.342 117.016 822.07 100.456 822.07 79C822.07 57.544 838.342 40.984 860.23 40.984C874.198 40.984 886.582 48.328 892.774 59.416L873.91 70.36C871.462 65.32 866.278 62.296 859.942 62.296C850.582 62.296 843.67 69.064 843.67 79C843.67 88.936 850.582 95.704 859.942 95.704C866.278 95.704 871.606 92.68 873.91 87.64L892.774 98.44C886.582 109.672 874.342 117.016 860.23 117.016ZM934.621 117.016C913.453 117.016 896.461 100.456 896.461 79C896.461 57.544 913.453 40.984 934.621 40.984C955.789 40.984 972.781 57.544 972.781 79C972.781 100.456 955.789 117.016 934.621 117.016ZM934.621 95.992C943.981 95.992 951.181 89.224 951.181 79C951.181 68.776 943.981 62.008 934.621 62.008C925.261 62.008 918.061 68.776 918.061 79C918.061 89.224 925.261 95.992 934.621 95.992ZM1065.64 40.984C1082.2 40.984 1093 52.792 1093 70.792V115H1071.4V72.664C1071.4 65.464 1067.94 60.856 1061.03 60.856C1053.83 60.856 1049.8 65.896 1049.8 74.392V115H1028.2V72.664C1028.2 65.464 1024.74 60.856 1017.83 60.856C1010.63 60.856 1006.6 65.896 1006.6 74.392V115H984.998V43H1006.6V49.624C1009.91 44.728 1016.25 40.984 1025.89 40.984C1034.39 40.984 1040.73 44.44 1044.76 50.488C1048.79 44.728 1055.41 40.984 1065.64 40.984ZM1127.06 87.64C1129.8 95.128 1136.42 97.72 1144.34 97.72C1150.24 97.72 1155.28 95.416 1158.16 92.248L1175.44 102.184C1168.39 111.976 1157.73 117.016 1144.05 117.016C1119.43 117.016 1104.16 100.456 1104.16 79C1104.16 57.544 1119.72 40.984 1142.47 40.984C1163.49 40.984 1179.04 57.256 1179.04 79C1179.04 82.024 1178.76 84.904 1178.18 87.64H1127.06ZM1126.63 71.512H1157.59C1155.28 63.16 1148.8 60.136 1142.32 60.136C1134.12 60.136 1128.64 64.168 1126.63 71.512ZM1269.49 63.736H1254.66V89.224C1254.66 95.416 1259.98 95.992 1269.49 95.416V115C1241.26 117.88 1233.06 109.384 1233.06 89.224V63.736H1221.54V43H1233.06V29.32L1254.66 22.84V43H1269.49V63.736ZM1314.87 117.016C1293.7 117.016 1276.71 100.456 1276.71 79C1276.71 57.544 1293.7 40.984 1314.87 40.984C1336.04 40.984 1353.03 57.544 1353.03 79C1353.03 100.456 1336.04 117.016 1314.87 117.016ZM1314.87 95.992C1324.23 95.992 1331.43 89.224 1331.43 79C1331.43 68.776 1324.23 62.008 1314.87 62.008C1305.51 62.008 1298.31 68.776 1298.31 79C1298.31 89.224 1305.51 95.992 1314.87 95.992Z" fill="black"/>
</g>
<defs>
<linearGradient id="paint0_linear_214_2" x1="1124.46" y1="445.792" x2="1866.69" y2="82.441" gradientUnits="userSpaceOnUse">
<stop stop-color="#FF3939"/>
<stop offset="1" stop-color="#FF70D6"/>
</linearGradient>
<clipPath id="clip0_214_2">
<rect width="1920" height="478" fill="white"/>
</clipPath>
</defs>
</svg>
